<svg width="120" height="70" viewBox="0 0 120 70" fill="none" xmlns="http://www.w3.org/2000/svg">
<g clip-path="url(#clip0_352_472)">
<path d="M33.9338 25.364C33.9338 26.7992 34.0932 27.9627 34.3712 28.8159C34.7241 29.7759 35.149 30.7091 35.6424 31.6081C35.8412 31.9183 35.9204 32.2285 35.9204 32.5003C35.9204 32.8878 35.6823 33.2758 35.1657 33.6638L32.6626 35.2925C32.3049 35.5254 31.9473 35.6416 31.629 35.6416C31.232 35.6416 30.8345 35.4476 30.437 35.0985C29.9012 34.5374 29.4222 33.927 29.0068 33.2758C28.6093 32.617 28.2118 31.8795 27.7749 30.9878C24.6753 34.5555 20.7812 36.3395 16.0928 36.3398C12.7553 36.3398 10.0928 35.4087 8.14557 33.5476C6.19885 31.6855 5.20557 29.2034 5.20557 26.101C5.20557 22.8046 6.3976 20.1286 8.8215 18.1119C11.2449 16.0951 14.4638 15.0868 18.5565 15.0868C19.9074 15.0868 21.2982 15.203 22.7682 15.397C24.2387 15.591 25.7485 15.9012 27.3381 16.2502V13.4191C27.3381 10.4714 26.702 8.41619 25.4701 7.21383C24.1988 6.01148 22.0529 5.42952 18.9934 5.42952C17.6026 5.42952 16.1724 5.58508 14.702 5.93416C13.2315 6.28325 11.8013 6.70965 10.4106 7.25272C9.77494 7.52403 9.29822 7.67913 9.01979 7.75691C8.74135 7.83468 8.54307 7.87312 8.38416 7.87312C7.82775 7.87312 7.54979 7.48514 7.54979 6.67076V4.77024C7.54979 4.14985 7.62947 3.68455 7.82775 3.41325C8.0265 3.14148 8.38416 2.87017 8.94057 2.59887C10.3312 1.90039 11.9999 1.31858 13.9468 0.853442C15.8945 0.349259 17.9607 0.11684 20.146 0.11684C24.8748 0.11684 28.3318 1.16364 30.557 3.25815C32.7423 5.3522 33.8551 8.5324 33.8551 12.7987V25.364H33.9338ZM17.8013 31.2591C19.1129 31.2591 20.4638 31.0266 21.894 30.5609C23.3246 30.0956 24.5963 29.2423 25.6688 28.0789C26.3049 27.3423 26.7817 26.5279 27.0198 25.5968C27.2584 24.6663 27.4173 23.5412 27.4173 22.2227V20.5939C26.2122 20.3078 24.9917 20.0877 23.7615 19.9346C22.5227 19.7812 21.2753 19.7034 20.0265 19.7017C17.364 19.7017 15.4173 20.2059 14.1062 21.2532C12.7951 22.3004 12.159 23.7741 12.159 25.7131C12.159 27.5358 12.6357 28.8932 13.629 29.8243C14.5829 30.7938 15.9737 31.2591 17.8013 31.2591ZM49.7087 35.4476C48.9934 35.4476 48.5167 35.3314 48.1988 35.0597C47.881 34.8272 47.6026 34.2842 47.3645 33.5476L38.027 3.56834C37.7879 2.7924 37.6688 2.28821 37.6688 2.01691C37.6688 1.39651 37.9867 1.04697 38.6227 1.04697H42.5167C43.2713 1.04697 43.7884 1.16364 44.0663 1.43494C44.3842 1.66782 44.6228 2.21089 44.8609 2.94749L51.5363 28.6219L57.7351 2.94749C57.9338 2.172 58.1724 1.66782 58.4898 1.43494C58.8081 1.20253 59.3645 1.04743 60.0798 1.04743H63.2584C64.0131 1.04743 64.5301 1.16364 64.8474 1.43494C65.1657 1.66782 65.4437 2.21089 65.6026 2.94749L71.881 28.9321L78.7548 2.94749C78.9929 2.172 79.2713 1.66782 79.5493 1.43494C79.8671 1.20253 80.3837 1.04743 81.099 1.04743H84.7942C85.4303 1.04743 85.7879 1.35762 85.7879 2.01691C85.7879 2.21089 85.7481 2.40488 85.7082 2.6373C85.6684 2.86972 85.5892 3.18037 85.4303 3.60723L75.8537 33.586C75.6156 34.3619 75.3374 34.8661 75.0193 35.0985C74.7015 35.3314 74.1849 35.4865 73.5099 35.4865H70.0928C69.3376 35.4865 68.821 35.3703 68.5028 35.0985C68.1849 34.8272 67.907 34.3231 67.7481 33.5476L61.5887 8.5324L55.4696 33.5082C55.2713 34.2842 55.0327 34.7883 54.7149 35.0597C54.3971 35.3314 53.8407 35.4476 53.1259 35.4476H49.7087ZM100.768 36.4949C98.702 36.4949 96.6357 36.262 94.6492 35.7967C92.6621 35.3314 91.1129 34.8268 90.0798 34.2457C89.4437 33.8962 89.0063 33.5087 88.8479 33.1596C88.6934 32.8172 88.6122 32.4476 88.6093 32.0734V30.0956C88.6093 29.2812 88.9271 28.8932 89.5234 28.8932C89.7667 28.8941 90.0083 28.9335 90.2387 29.0099C90.4768 29.0877 90.8345 29.2423 91.232 29.3974C92.6353 30.0003 94.1004 30.4553 95.6026 30.7549C97.1591 31.0629 98.7432 31.2188 100.331 31.2202C102.834 31.2202 104.782 30.7938 106.133 29.9405C107.484 29.0872 108.199 27.8465 108.199 26.2561C108.199 25.1704 107.841 24.2783 107.126 23.5412C106.411 22.8042 105.06 22.1453 103.113 21.5245L97.351 19.7795C94.4504 18.8874 92.3049 17.5688 90.9934 15.8234C89.6823 14.1168 89.0068 12.2168 89.0068 10.2C89.0068 8.57129 89.3645 7.13621 90.0798 5.89481C90.7946 4.65403 91.7485 3.56834 92.9406 2.71508C94.1326 1.82292 95.4835 1.16364 97.0731 0.698344C98.6621 0.233049 100.331 0.0390625 102.079 0.0390625C102.954 0.0390625 103.868 0.0779514 104.742 0.194161C105.656 0.31037 106.49 0.465468 107.325 0.620566C108.119 0.814553 108.874 1.00854 109.59 1.24142C110.305 1.47383 110.861 1.7064 111.258 1.93913C111.815 2.24978 112.212 2.55998 112.45 2.90906C112.689 3.21926 112.808 3.64582 112.808 4.18874V6.01148C112.808 6.82586 112.49 7.25272 111.894 7.25272C111.576 7.25272 111.06 7.09717 110.385 6.78697C108.119 5.7786 105.576 5.27442 102.755 5.27442C100.49 5.27442 98.702 5.62351 97.4701 6.36057C96.2387 7.09717 95.6026 8.2222 95.6026 9.81207C95.6026 10.8982 96.0001 11.8288 96.7946 12.5659C97.5892 13.3029 99.0596 14.0395 101.166 14.6988L106.808 16.4442C109.669 17.3364 111.735 18.5772 112.967 20.167C114.199 21.7569 114.795 23.5801 114.795 25.5968C114.795 27.2645 114.437 28.777 113.761 30.0956C113.047 31.4142 112.093 32.5776 110.861 33.5087C109.629 34.4781 108.159 35.1763 106.45 35.6805C104.662 36.2236 102.795 36.4949 100.768 36.4949Z" fill="#252F3E"/>
<path d="M108.278 55.3434C95.2055 64.7678 76.2117 69.7707 59.881 69.7707C36.9933 69.7707 16.3711 61.5098 0.795018 47.7807C-0.436857 46.695 0.675487 45.2213 2.14549 46.0741C18.9933 55.6152 39.7749 61.3936 61.2717 61.3936C75.7749 61.3936 91.7086 58.4463 106.371 52.3961C108.556 51.4262 110.424 53.7924 108.278 55.3434ZM113.722 49.2932C112.053 47.1992 102.675 48.2848 98.4239 48.789C97.1522 48.9446 96.9534 47.8584 98.1061 47.0441C105.576 41.9245 117.855 43.3986 119.285 45.1047C120.715 46.8501 118.887 58.8338 111.894 64.5738C110.821 65.466 109.788 65.0007 110.265 63.8372C111.854 59.9973 115.391 51.3488 113.722 49.2932Z" fill="#FF9900"/>
</g>
<defs>
<clipPath id="clip0_352_472">
<rect width="120" height="70" fill="white"/>
</clipPath>
</defs>
</svg>
