<svg width="120" height="120" viewBox="0 0 120 120" fill="none" xmlns="http://www.w3.org/2000/svg">
<g clip-path="url(#clip0_350_338)">
<path d="M111.97 30.0005C111.135 28.5505 109.98 27.2855 108.71 26.5505L64.6301 1.10055C62.0851 -0.369453 57.9301 -0.369453 55.3901 1.10055L11.3001 26.5505C8.76006 28.0155 6.68506 31.6155 6.68506 34.5505V85.4505C6.68506 86.9205 7.20506 88.5505 8.04006 90.0005C8.87506 91.4505 10.0301 92.7155 11.3001 93.4505L55.3801 118.901C57.9201 120.366 62.0801 120.366 64.6201 118.901L108.7 93.4505C109.97 92.7155 111.125 91.4505 111.96 90.0005C112.795 88.5505 113.31 86.9205 113.31 85.4505V34.5505C113.325 33.0805 112.81 31.4505 111.97 30.0005ZM60.0001 95.5506C40.4001 95.5506 24.4551 79.6005 24.4551 60.0005C24.4551 40.4005 40.4051 24.4505 60.0051 24.4505C66.2409 24.4624 72.3646 26.109 77.7654 29.2262C83.1662 32.3433 87.6553 36.822 90.785 42.2155L75.4051 51.1155C73.8414 48.4142 71.5961 46.1706 68.8937 44.6088C66.1913 43.047 63.1263 42.2218 60.0051 42.2155C55.2894 42.2195 50.768 44.0946 47.4335 47.429C44.0991 50.7635 42.224 55.2849 42.2201 60.0005C42.2267 64.7136 44.1022 69.2317 47.4353 72.5638C50.7684 75.896 55.287 77.7703 60.0001 77.7755C63.12 77.7689 66.1838 76.9445 68.8858 75.3847C71.5879 73.8248 73.8339 71.584 75.4001 68.8855L90.7901 77.7855C87.6587 83.1799 83.1678 87.659 77.7653 90.7761C72.3627 93.8932 66.2374 95.5394 60.0001 95.5506ZM95.5501 61.9755H91.6001V65.9255H87.6501V61.9755H83.7001V58.0255H87.6501V54.0755H91.6001V58.0255H95.5501V61.9755ZM110.36 61.9755H106.41V65.9255H102.46V61.9755H98.51V58.0255H102.46V54.0755H106.41V58.0255H110.36V61.9755Z" fill="#00599C"/>
</g>
<defs>
<clipPath id="clip0_350_338">
<rect width="120" height="120" fill="white"/>
</clipPath>
</defs>
</svg>
