<svg width="120" height="120" viewBox="0 0 120 120" fill="none" xmlns="http://www.w3.org/2000/svg">
<path d="M82.9605 45.981C82.9605 45.981 81.1905 29.491 64.8255 29.031C48.455 28.581 40.0495 41.401 40.0495 59.731C40.0495 78.0565 49.3395 92.717 65.275 92.717C81.195 92.717 82.9655 74.392 82.9655 74.392L113.486 76.217C113.486 76.217 115.286 92.767 102.506 105.397C89.746 118.017 74.0555 120.083 63.125 119.997C52.175 119.912 36.9945 120.167 22.324 105.147C7.63404 90.097 5.14404 75.4965 5.14404 61.1465C5.14404 46.796 7.92404 27.7955 25.379 13.3955C37.22 3.6 49.245 0 61.27 0C111.481 0 114.856 46.301 114.856 46.301L82.9605 45.981Z" fill="#00599C"/>
</svg>
