<svg width="26" height="26" viewBox="0 0 26 26" fill="none" xmlns="http://www.w3.org/2000/svg">
<path d="M12.3684 22.3333H3.52632C2.8563 22.3333 2.21372 22.0524 1.73994 21.5523C1.26616 21.0522 1 20.3739 1 19.6667V7.66667C1 6.95942 1.26616 6.28115 1.73994 5.78105C2.21372 5.28095 2.8563 5 3.52632 5H4.78947C5.45949 5 6.10207 4.71905 6.57585 4.21895C7.04963 3.71885 7.31579 3.04058 7.31579 2.33333C7.31579 1.97971 7.44887 1.64057 7.68576 1.39052C7.92265 1.14048 8.24394 1 8.57895 1H16.1579C16.4929 1 16.8142 1.14048 17.0511 1.39052C17.288 1.64057 17.4211 1.97971 17.4211 2.33333C17.4211 3.04058 17.6872 3.71885 18.161 4.21895C18.6348 4.71905 19.2773 5 19.9474 5H21.2105C21.8805 5 22.5231 5.28095 22.9969 5.78105C23.4707 6.28115 23.7368 6.95942 23.7368 7.66667V12.3333" stroke="black" stroke-width="2" stroke-linecap="round" stroke-linejoin="round"/>
<path d="M21.2107 25V17M21.2107 17L25.0002 21M21.2107 17L17.4212 21M12.3686 17C13.3736 17 14.3375 16.5786 15.0481 15.8284C15.7588 15.0783 16.158 14.0609 16.158 13C16.158 11.9391 15.7588 10.9217 15.0481 10.1716C14.3375 9.42143 13.3736 9 12.3686 9C11.3635 9 10.3997 9.42143 9.68901 10.1716C8.97835 10.9217 8.5791 11.9391 8.5791 13C8.5791 14.0609 8.97835 15.0783 9.68901 15.8284C10.3997 16.5786 11.3635 17 12.3686 17Z" stroke="black" stroke-width="2" stroke-linecap="round" stroke-linejoin="round"/>
</svg>
