<svg width="150" height="150" viewBox="0 0 150 150" fill="none" xmlns="http://www.w3.org/2000/svg">
<mask id="mask0_691_993" style="mask-type:alpha" maskUnits="userSpaceOnUse" x="0" y="0" width="150" height="150">
<rect x="0.5" y="0.5" width="149" height="149" fill="#D9D9D9" stroke="#BFBFBF"/>
</mask>
<g mask="url(#mask0_691_993)">
<path d="M24.5 88V108.22L25.3496 107.389L32.3916 100.5H49.5V112H37.293L13 136.293V88H24.5ZM137 88V100C137 103.304 135.83 106.12 133.475 108.475C131.12 110.83 128.304 112 125 112H100.5V100.5H125.5V88H137ZM87 100.5V112H63V100.5H87ZM137 50.5V74.5H125.5V50.5H137ZM24.5 50.5V74.5H13V50.5H24.5ZM125 13C128.304 13 131.12 14.1705 133.475 16.5254C135.83 18.8803 137 21.6962 137 25V37.1562H125.5V24.5H100.5V13H125ZM25 13H49.5V24.5H24.5V37.1562H13V25C13 21.6962 14.1705 18.8803 16.5254 16.5254C18.8803 14.1705 21.6962 13 25 13ZM87 13V24.5H63V13H87Z" fill="#F9F8FE" stroke="#BFBFBF"/>
</g>
</svg>
