<svg width="16" height="16" viewBox="0 0 16 16" fill="none" xmlns="http://www.w3.org/2000/svg">
<mask id="path-1-inside-1_674_733" fill="white">
<path d="M14.3535 4.85403L6.35354 12.854C6.3071 12.9005 6.25196 12.9374 6.19126 12.9626C6.13056 12.9877 6.0655 13.0007 5.99979 13.0007C5.93408 13.0007 5.86902 12.9877 5.80832 12.9626C5.74762 12.9374 5.69248 12.9005 5.64604 12.854L2.14604 9.35403C2.05222 9.26021 1.99951 9.13296 1.99951 9.00028C1.99951 8.8676 2.05222 8.74035 2.14604 8.64653C2.23986 8.55271 2.36711 8.5 2.49979 8.5C2.63247 8.5 2.75972 8.55271 2.85354 8.64653L5.99979 11.7934L13.646 4.14653C13.7399 4.05271 13.8671 4 13.9998 4C14.1325 4 14.2597 4.05271 14.3535 4.14653C14.4474 4.24035 14.5001 4.3676 14.5001 4.50028C14.5001 4.63296 14.4474 4.76021 14.3535 4.85403Z"/>
</mask>
<path d="M6.35354 12.854L5.64643 12.1469L5.64604 12.1473L6.35354 12.854ZM5.64604 12.854L6.35354 12.1473L6.35315 12.1469L5.64604 12.854ZM2.14604 9.35403L2.85315 8.64692H2.85315L2.14604 9.35403ZM1.99951 9.00028H2.99951H1.99951ZM2.85354 8.64653L3.56072 7.93949L3.56065 7.93942L2.85354 8.64653ZM5.99979 11.7934L5.29261 12.5004L5.99975 13.2077L6.70693 12.5005L5.99979 11.7934ZM13.646 4.14653L12.9389 3.43942L12.9389 3.43945L13.646 4.14653ZM13.9998 4V3V4ZM14.3535 4.85403L13.6464 4.14692L5.64643 12.1469L6.35354 12.854L7.06065 13.5611L15.0606 5.56114L14.3535 4.85403ZM6.35354 12.854L5.64604 12.1473C5.69248 12.1008 5.74762 12.0639 5.80832 12.0388L6.19126 12.9626L6.5742 13.8863C6.7563 13.8108 6.92173 13.7002 7.06104 13.5607L6.35354 12.854ZM6.19126 12.9626L5.80832 12.0388C5.86903 12.0136 5.93409 12.0007 5.99979 12.0007V13.0007V14.0007C6.1969 14.0007 6.3921 13.9618 6.5742 13.8863L6.19126 12.9626ZM5.99979 13.0007V12.0007C6.06549 12.0007 6.13055 12.0136 6.19126 12.0388L5.80832 12.9626L5.42538 13.8863C5.60748 13.9618 5.80267 14.0007 5.99979 14.0007V13.0007ZM5.80832 12.9626L6.19126 12.0388C6.25196 12.0639 6.3071 12.1008 6.35354 12.1473L5.64604 12.854L4.93854 13.5607C5.07785 13.7002 5.24328 13.8108 5.42538 13.8863L5.80832 12.9626ZM5.64604 12.854L6.35315 12.1469L2.85315 8.64692L2.14604 9.35403L1.43893 10.0611L4.93893 13.5611L5.64604 12.854ZM2.14604 9.35403L2.85315 8.64692C2.94686 8.74064 2.99951 8.86774 2.99951 9.00028H1.99951H0.999512C0.999512 9.39818 1.15758 9.77978 1.43893 10.0611L2.14604 9.35403ZM1.99951 9.00028H2.99951C2.99951 9.13281 2.94686 9.25992 2.85315 9.35363L2.14604 8.64653L1.43893 7.93942C1.15758 8.22078 0.999512 8.60238 0.999512 9.00028H1.99951ZM2.14604 8.64653L2.85315 9.35363C2.75943 9.44735 2.63233 9.5 2.49979 9.5V8.5V7.5C2.10189 7.5 1.72029 7.65807 1.43893 7.93942L2.14604 8.64653ZM2.49979 8.5V9.5C2.36725 9.5 2.24015 9.44735 2.14643 9.35363L2.85354 8.64653L3.56065 7.93942C3.27929 7.65807 2.89769 7.5 2.49979 7.5V8.5ZM2.85354 8.64653L2.14636 9.35356L5.29261 12.5004L5.99979 11.7934L6.70697 11.0864L3.56072 7.93949L2.85354 8.64653ZM5.99979 11.7934L6.70693 12.5005L14.3532 4.85361L13.646 4.14653L12.9389 3.43945L5.29265 11.0863L5.99979 11.7934ZM13.646 4.14653L14.3531 4.85363C14.2594 4.94735 14.1323 5 13.9998 5V4V3C13.6019 3 13.2203 3.15806 12.9389 3.43942L13.646 4.14653ZM13.9998 4V5C13.8673 5 13.7402 4.94735 13.6464 4.85363L14.3535 4.14653L15.0606 3.43942C14.7793 3.15806 14.3977 3 13.9998 3V4ZM14.3535 4.14653L13.6464 4.85363C13.5527 4.75992 13.5001 4.63281 13.5001 4.50028H14.5001H15.5001C15.5001 4.10238 15.342 3.72078 15.0606 3.43942L14.3535 4.14653ZM14.5001 4.50028H13.5001C13.5001 4.36774 13.5527 4.24064 13.6464 4.14692L14.3535 4.85403L15.0606 5.56114C15.342 5.27978 15.5001 4.89818 15.5001 4.50028H14.5001Z" fill="#70AD25" mask="url(#path-1-inside-1_674_733)"/>
</svg>
