<svg width="120" height="120" viewBox="0 0 120 120" fill="none" xmlns="http://www.w3.org/2000/svg">
<path fill-rule="evenodd" clip-rule="evenodd" d="M0.296143 52.0353V43.0775C0.505205 42.9603 0.449893 42.7446 0.490205 42.5647C3.31021 30.2965 11.0005 22.9221 23.1261 19.9784C24.1883 19.7215 25.3011 19.7468 26.3343 19.3662H32.3061C32.4421 19.6231 32.6952 19.52 32.8968 19.5425C38.9174 20.1865 44.3371 22.3146 49.1305 26.0243C53.2218 29.1837 56.4805 33.0997 59.3849 37.3287C59.744 37.8528 59.9155 37.8678 60.2783 37.3325C61.9405 34.8856 63.7536 32.554 65.7721 30.3856C70.7877 25.0062 76.7465 21.2965 84.0636 19.9381C85.1624 19.7318 86.2977 19.744 87.3636 19.3662H93.1668C93.2886 19.5818 93.5043 19.5134 93.688 19.535C95.4158 19.729 97.123 20.0478 98.8002 20.5306C111.409 24.1531 120.3 35.7031 119.553 48.7803C118.926 59.6975 113.401 67.5603 103.821 72.6096C98.9868 75.1587 93.7433 75.8806 88.3302 75.7737C81.1818 75.635 74.9671 73.1768 69.6093 68.4865C65.8921 65.2343 62.9699 61.324 60.2858 57.2215C59.8865 56.6103 59.7327 56.6872 59.3736 57.2403C57.6749 59.855 55.8505 62.389 53.7861 64.7403C50.1599 68.8709 45.9702 72.2403 40.7268 74.0778C34.244 76.3484 27.6346 76.4365 21.0824 74.584C11.638 71.9131 5.12614 65.9065 1.61521 56.7003C1.03583 55.1843 0.794893 53.5737 0.296143 52.0353ZM30.0993 65.8015C35.4749 66.0247 40.0555 64.219 43.9415 60.605C47.9952 56.8325 50.863 52.1637 53.774 47.5306C53.9502 47.2522 53.8958 47.0328 53.7271 46.7731C51.2474 42.9096 48.7058 39.0828 45.3515 35.8962C38.8986 29.7622 31.2965 27.7006 22.814 30.41C15.7293 32.6768 11.2499 37.7197 10.2036 45.2065C9.22583 52.1862 11.9427 57.8225 17.5274 62.0262C21.2446 64.8275 25.5261 65.929 30.0993 65.8015ZM89.4871 65.8015C91.5927 65.8559 93.6655 65.7172 95.6652 65.1162C102.996 62.93 107.951 58.279 109.332 50.6506C110.709 43.0522 107.768 36.9696 101.466 32.6262C94.4418 27.7812 84.2024 28.2575 77.0399 33.5853C72.283 37.1234 69.0486 41.9384 65.9071 46.835C65.7233 47.1162 65.7711 47.3328 65.9324 47.5897C68.4524 51.6209 70.9752 55.6493 74.2415 59.1434C78.373 63.5637 83.339 66.0753 89.4871 65.8015ZM119.7 92.9956C119.421 93.8787 119.198 94.7797 118.861 95.6393C116.766 100.964 109.278 102.393 105.684 98.1556C104.462 96.7128 103.924 94.9812 103.718 93.1428C103.432 90.5712 103.44 88.0193 104.406 85.5509C105.772 82.0868 108.728 80.2887 112.613 80.5822C116.154 80.8484 118.51 82.9615 119.352 86.6131C119.462 87.0818 119.406 87.5947 119.699 88.0193L119.7 92.9956ZM107.871 90.5487C107.874 91.9634 107.951 93.3697 108.454 94.7093C108.834 95.7462 109.472 96.53 110.603 96.8225C112.625 97.3465 114.283 96.515 114.899 94.505C115.689 91.9081 115.653 89.2643 114.906 86.6637C114.423 84.9687 113.401 84.2253 111.797 84.1962C110.083 84.1625 109.022 84.8956 108.406 86.5465C107.926 87.8403 107.878 89.195 107.871 90.5497L107.871 90.5487ZM91.2271 87.605V99.1156C91.2271 100.25 91.2271 100.25 90.0515 100.25C89.4721 100.25 88.8899 100.211 88.3115 100.261C87.6636 100.32 87.4621 100.092 87.4696 99.4343C87.4986 96.035 87.4837 92.6375 87.4837 89.2381C87.4837 86.6975 87.5024 84.1559 87.4733 81.6143C87.4658 81.035 87.6308 80.8484 88.213 80.8709C89.3446 80.915 90.4799 80.9178 91.6115 80.8672C92.1749 80.8447 92.4393 81.0462 92.6661 81.5412C94.4343 85.3756 96.2286 89.195 98.0193 93.0181C98.0643 93.109 98.1261 93.1972 98.3099 93.5009V92.5128C98.3099 88.894 98.324 85.2753 98.2949 81.6584C98.2911 81.05 98.4299 80.8231 99.0674 80.8709C99.8652 80.929 100.668 80.9037 101.469 80.8784C101.919 80.8596 102.099 80.9881 102.099 81.4747C102.086 87.5259 102.086 93.5772 102.099 99.6284C102.099 100.086 101.964 100.266 101.488 100.257C100.244 100.231 99.0003 100.232 97.7568 100.261C97.2468 100.276 97.1155 99.965 96.9468 99.6021C95.1917 95.7937 93.4292 91.9887 91.6593 88.1872C91.5711 88.0006 91.5599 87.7512 91.2271 87.605ZM29.8246 91.0737C31.2449 92.2156 31.8093 93.7981 32.5565 95.2662C33.2783 96.6912 33.9627 98.1378 34.6874 99.5618C34.933 100.049 34.9808 100.287 34.288 100.261C33.1299 100.225 31.9709 100.225 30.8127 100.261C30.344 100.276 30.1358 100.082 29.9558 99.6753C29.1468 97.8331 28.3011 96.0059 27.4733 94.1721C27.0186 93.1643 26.2977 92.5493 25.1661 92.3909C24.4958 92.3 24.3196 92.5128 24.3318 93.1756C24.3711 95.2737 24.3233 97.3718 24.3599 99.4709C24.3711 100.086 24.2099 100.302 23.5799 100.265C22.6977 100.211 21.8118 100.232 20.9286 100.257C20.4599 100.269 20.2293 100.163 20.2293 99.6247C20.248 93.574 20.2405 87.5281 20.2443 81.4784C20.2443 81.215 20.1749 80.8747 20.6099 80.8887C23.5583 80.9843 26.5283 80.5775 29.4468 81.2328C33.4565 82.1337 33.9627 85.5218 33.2408 88.0268C32.7683 89.6703 31.498 90.5675 29.8246 91.0737ZM24.3496 86.6572V88.7262C24.3496 88.9531 24.3421 89.1875 24.6683 89.1875C25.7961 89.1987 26.938 89.2784 27.9861 88.7225C28.934 88.2162 29.3268 87.3856 29.1861 86.225C29.0736 85.2762 28.5496 84.6865 27.4949 84.4484C26.9023 84.3139 26.2969 84.2438 25.6893 84.2393C24.0299 84.2206 24.3899 84.0856 24.3486 85.4993C24.3383 85.8837 24.3496 86.2718 24.3496 86.6572ZM36.5511 90.5459C36.5511 87.6162 36.5699 84.6903 36.5371 81.7606C36.5296 81.1015 36.6646 80.8381 37.3902 80.87C39.734 80.9656 42.089 80.7237 44.4252 81.0106C48.8633 81.5553 51.1518 83.8737 51.6505 88.37C51.8952 90.5534 51.8155 92.7322 51.0318 94.8303C49.7971 98.1228 47.219 99.6397 43.9049 100.097C41.6568 100.405 39.3824 100.207 37.1155 100.257C36.5071 100.272 36.5511 99.8956 36.5511 99.4962V90.5459ZM40.6274 90.5309V94.999C40.6274 96.9115 40.6274 96.9115 42.5755 96.83C44.9924 96.7268 46.5346 95.4865 47.1055 93.124C47.563 91.2415 47.5161 89.345 47.0474 87.4737C46.5786 85.6128 45.3477 84.5731 43.4249 84.3565C42.7443 84.2797 42.0486 84.3059 41.3633 84.244C40.7811 84.1878 40.6049 84.4128 40.6161 84.9903C40.649 86.8362 40.6274 88.6859 40.6274 90.5309ZM16.4024 100.257C14.1833 100.257 14.1833 100.257 13.5861 98.1593C13.1099 96.4897 13.1099 96.4897 11.3708 96.4897C9.98614 96.4897 8.60521 96.515 7.22521 96.4784C6.71239 96.4643 6.49677 96.6359 6.37583 97.1272C6.16677 97.984 5.84802 98.8147 5.63989 99.6715C5.52271 100.148 5.28083 100.28 4.82333 100.265C3.9127 100.232 3.00115 100.232 2.09052 100.265C1.47177 100.291 1.41364 100.093 1.58239 99.5431C2.96239 95.09 4.31708 90.6303 5.67927 86.1697C6.14802 84.6425 6.63927 83.119 7.07896 81.5815C7.21771 81.0865 7.40802 80.8559 7.96864 80.8747C9.37864 80.9178 10.7886 80.9028 12.1949 80.8812C12.6261 80.8747 12.8174 81.0134 12.9449 81.4381C14.7858 87.4806 16.639 93.5193 18.5043 99.5543C18.6693 100.089 18.5886 100.317 17.9774 100.265C17.4571 100.221 16.9302 100.257 16.4024 100.257ZM9.96458 85.5762L9.79208 85.5875L7.60208 93.0987C7.73052 93.1353 7.78208 93.1643 7.83646 93.1643C8.71896 93.1731 9.60177 93.1781 10.4849 93.1793C12.1761 93.1831 12.1799 93.1793 11.7149 91.5856C11.1327 89.5831 10.5468 87.5759 9.96458 85.5762ZM53.5068 88.0925C53.5068 85.91 53.518 83.7275 53.4965 81.5412C53.4927 81.0575 53.609 80.8484 54.1368 80.8747C55.049 80.915 55.9649 80.9215 56.8724 80.8709C57.4836 80.8381 57.6008 81.0865 57.5971 81.6359C57.5793 85.3128 57.5868 88.9897 57.5943 92.6665C57.5943 93.3003 57.613 93.9368 57.6786 94.5668C57.854 96.2993 58.8786 97.174 60.7611 97.2293C62.6474 97.2875 63.7133 96.4709 63.9693 94.7243C64.0591 94.0962 64.1033 93.4623 64.1015 92.8278C64.1165 89.1509 64.123 85.474 64.0902 81.8009C64.0865 81.109 64.2074 80.7978 64.9837 80.8672C65.834 80.944 66.6983 80.9037 67.5515 80.8784C68.0015 80.8634 68.1918 80.9843 68.189 81.4709C68.159 85.6709 68.2321 89.8756 68.1111 94.0728C68.009 97.7197 65.6324 100.082 61.9771 100.489C60.4171 100.664 58.8833 100.576 57.3927 100.082C55.0011 99.2834 53.6352 97.3615 53.5433 94.5556C53.4777 92.4031 53.533 90.2459 53.533 88.0925H53.5068ZM77.7833 80.885C79.6911 80.885 81.5952 80.9037 83.503 80.8709C84.0421 80.8634 84.239 81.0209 84.2024 81.5703C84.1612 82.2312 84.1612 82.894 84.2024 83.555C84.2361 84.0828 84.0233 84.2178 83.533 84.2028C82.5365 84.17 81.5436 84.2103 80.548 84.184C80.083 84.17 79.8599 84.2618 79.8599 84.8075C79.8815 88.6193 79.8786 92.4322 79.8636 96.245C79.8599 96.7531 80.0202 96.9256 80.5265 96.9068C81.5183 96.8815 82.514 96.9293 83.5077 96.8881C84.0702 96.8703 84.2286 97.0868 84.2024 97.6137C84.1658 98.3018 84.1743 98.9947 84.1986 99.6828C84.2174 100.126 84.0346 100.255 83.6174 100.255C79.7493 100.243 75.883 100.243 72.0111 100.255C71.5499 100.257 71.3643 100.111 71.3821 99.6387C71.4081 98.9483 71.4069 98.2571 71.3783 97.5668C71.3558 97.0681 71.5208 96.8778 72.0374 96.8918C73.0593 96.9218 74.0811 96.8853 75.103 96.9031C75.5718 96.9143 75.7218 96.739 75.718 96.2731C75.7068 92.4356 75.7068 88.5953 75.718 84.7522C75.718 84.3209 75.5643 84.1775 75.1386 84.185C74.1168 84.2065 73.0921 84.1625 72.073 84.2037C71.5133 84.2253 71.3343 84.02 71.3821 83.4893C71.4627 82.6465 71.0305 81.574 71.5686 81.0209C72.0374 80.5409 73.0921 80.9 73.8899 80.885C75.1836 80.8709 76.4868 80.885 77.7833 80.885ZM117.049 22.9475C116.924 23.134 116.88 23.1959 116.84 23.2587C116.613 23.599 116.788 24.2871 116.217 24.2768C115.711 24.2656 115.839 23.6356 115.66 23.2915C115.613 23.1996 115.557 23.1153 115.401 22.8593C115.401 23.3318 115.408 23.599 115.401 23.87C115.393 24.0528 115.433 24.2834 115.144 24.2984C114.851 24.3134 114.869 24.079 114.865 23.8953C114.859 23.2584 114.858 22.6237 114.862 21.9912C114.862 21.7756 114.829 21.5262 115.166 21.5187C115.419 21.515 115.639 21.5046 115.745 21.8337C115.88 22.2368 115.927 22.6868 116.239 23.075C116.536 22.6981 116.586 22.2621 116.7 21.8628C116.796 21.5375 116.997 21.5159 117.261 21.5159C117.594 21.5187 117.579 21.7531 117.583 21.9734C117.587 22.6109 117.587 23.2437 117.579 23.8812C117.576 24.0603 117.601 24.2984 117.316 24.3021C117.03 24.3021 117.051 24.0753 117.049 23.8878C117.041 23.6168 117.049 23.3496 117.049 22.9475ZM113.569 21.5112C113.65 21.5112 113.737 21.4971 113.814 21.5112C114.119 21.5703 114.591 21.3359 114.69 21.6987C114.825 22.2078 114.291 21.9518 114.064 22.0606C113.837 22.1703 113.881 22.3718 113.876 22.5556C113.866 22.9943 113.87 23.434 113.87 23.8737C113.87 24.1156 113.823 24.3171 113.511 24.305C113.225 24.2956 113.236 24.0856 113.236 23.8953C113.227 23.4841 113.226 23.0728 113.232 22.6615C113.243 22.31 113.247 21.98 112.742 22.0278C112.566 22.0428 112.412 21.9912 112.412 21.7681C112.412 21.4606 112.65 21.5225 112.826 21.515C113.075 21.5037 113.319 21.5112 113.569 21.5112Z" fill="#00979C"/>
<path fill-rule="evenodd" clip-rule="evenodd" d="M29.9784 44.5717C33.014 44.5717 36.0534 44.5933 39.089 44.553C39.7996 44.5426 39.9824 44.762 39.9393 45.4361C39.8777 46.2893 39.8777 47.1459 39.9393 47.9992C39.9899 48.7098 39.7996 48.9405 39.0449 48.933C35.0137 48.8926 30.9815 48.9114 26.953 48.9114C24.9093 48.9114 22.8655 48.8823 20.8265 48.9301C20.1121 48.948 19.9293 48.7098 19.9696 48.0395C20.024 47.1611 20.0165 46.2705 19.9696 45.3883C19.9368 44.7545 20.1196 44.5464 20.7852 44.5539C23.848 44.5933 26.9165 44.5717 29.9784 44.5717ZM89.0774 38.5586C89.7946 38.5586 90.5165 38.5801 91.2337 38.5511C91.7024 38.5323 91.8524 38.6973 91.8459 39.1698C91.8196 40.4955 91.8646 41.8211 91.8234 43.1467C91.8018 43.7476 91.948 43.967 92.5921 43.9417C93.8887 43.8901 95.189 43.9455 96.4855 43.9201C96.9871 43.9089 97.2468 44.0073 97.2327 44.5905C97.2023 46.0268 97.201 47.4637 97.229 48.9001C97.2402 49.4205 97.0415 49.5564 96.5474 49.5489C95.2218 49.5189 93.8962 49.563 92.5705 49.5264C92.0071 49.5076 91.8018 49.6511 91.8205 50.252C91.8637 51.5776 91.813 52.9033 91.8459 54.2289C91.8599 54.7848 91.724 55.0126 91.1202 54.9939C89.712 54.9578 88.3032 54.9565 86.8949 54.9901C86.3484 55.0051 86.1805 54.8289 86.1946 54.2833C86.2321 52.9033 86.188 51.5223 86.2171 50.1414C86.2246 49.6726 86.0812 49.5189 85.6087 49.5301C84.283 49.5555 82.9537 49.5011 81.6318 49.5555C80.9512 49.5817 80.7937 49.3361 80.8077 48.7061C80.848 47.4095 80.8705 46.1092 80.804 44.8136C80.7637 44.0476 81.0496 43.8836 81.7527 43.9126C83.024 43.967 84.2943 43.9051 85.5655 43.938C86.0709 43.953 86.2312 43.7992 86.2171 43.2826C86.1843 41.9608 86.2312 40.6314 86.1946 39.3058C86.1805 38.7451 86.3193 38.507 86.9202 38.5473C87.6374 38.5951 88.3565 38.5586 89.0774 38.5586Z" fill="#00979C"/>
</svg>
