<svg width="120" height="120" viewBox="0 0 120 120" fill="none" xmlns="http://www.w3.org/2000/svg">
<path d="M20.0625 91.5C20.0625 93.1875 18.6562 94.7812 16.7812 94.7812C15.375 94.7812 14.1562 95.1562 13.0312 96C11.8125 96.75 10.9687 97.7812 10.2187 99C8.71875 100.969 7.96875 103.312 7.6875 104.156V115.875C7.6875 117.656 6.1875 119.156 4.3125 119.156C2.53125 119.156 1.03125 117.656 1.03125 115.875V91.5C1.03125 89.7187 2.53125 88.3125 4.3125 88.3125C6.1875 88.3125 7.6875 89.7187 7.6875 91.5V91.9687C8.0625 91.5 8.53125 91.0313 9 90.75C11.0625 89.4375 13.6875 88.3125 16.7812 88.3125C18.6562 88.3125 20.0625 89.7187 20.0625 91.5ZM18.2812 103.687C18.375 95.25 24.8438 88.2187 33.375 88.2187C41.4375 88.2187 47.7188 94.2188 48.2812 102.562V102.844C48.2812 102.937 48.2813 103.313 48.1875 103.406C48 104.906 46.6875 105.844 45 105.844H25.3125C25.5938 107.25 26.3438 108.844 27.375 109.875C28.6875 111.375 31.125 112.5 33.2812 112.687C35.5312 112.875 38.1562 112.312 39.6562 111.187C40.9688 109.875 43.5 109.969 44.25 111C45.0938 111.844 45.6563 113.719 44.25 115.031C41.25 117.844 37.5938 119.062 33.1875 119.062C24.8438 119.062 18.2812 112.031 18.2812 103.687ZM24.9375 100.688H42.375C41.7188 98.25 38.625 94.5938 33.2812 94.125C28.0313 94.3125 25.5 98.1562 24.9375 100.688ZM79.5938 115.781C79.5938 117.562 78.0938 119.156 76.2188 119.156C74.5313 119.156 73.2188 117.938 72.9375 116.531C70.5938 118.125 67.5938 119.156 64.5 119.156C56.1563 119.156 49.5 112.125 49.5 103.781C49.5 95.3437 56.1563 88.3125 64.5 88.3125C67.5 88.3125 70.5 89.3437 72.75 90.9375V79.2187C72.75 77.4375 74.25 75.8438 76.125 75.8438C78 75.8438 79.5 77.3437 79.5 79.2187V103.781L79.5938 115.781ZM64.5938 94.9688C62.3438 94.9688 60.375 95.9062 58.7813 97.5C57.2813 99 56.3438 101.25 56.3438 103.687C56.3438 106.031 57.2813 108.281 58.7813 109.781C60.2813 111.375 62.3438 112.312 64.5938 112.312C66.8438 112.312 68.8125 111.375 70.4062 109.781C71.9062 108.281 72.8438 106.031 72.8438 103.687C72.8438 101.25 71.9062 99 70.4062 97.5C68.9062 95.9062 66.9375 94.9688 64.5938 94.9688ZM91.4062 80.5312C91.4062 82.4062 90 83.9062 88.0312 83.9062C86.1562 83.9062 84.6563 82.4062 84.6563 80.5312V79.2187C84.6563 77.3437 86.1562 75.8438 88.0312 75.8438C89.9062 75.8438 91.4062 77.3437 91.4062 79.2187V80.5312ZM91.4062 91.6875V115.781C91.4062 117.656 90 119.156 88.0312 119.156C86.1562 119.156 84.6563 117.656 84.6563 115.781V91.6875C84.6563 89.7188 86.1562 88.3125 88.0312 88.3125C90 88.3125 91.4062 89.7188 91.4062 91.6875ZM95.625 110.25C96.75 108.75 98.9062 108.562 100.219 109.781C101.812 111.094 104.625 112.594 106.969 112.5C108.656 112.5 110.156 111.937 111.188 111.281C112.031 110.531 112.313 109.969 112.313 109.406C112.313 109.125 112.219 108.938 112.125 108.75C112.031 108.562 111.844 108.281 111.281 108C110.438 107.344 108.562 106.688 106.312 106.312H106.219C104.344 105.938 102.469 105.469 100.875 104.719C99.1875 103.875 97.6875 102.844 96.6562 101.156C96 100.031 95.625 98.7188 95.625 97.3125C95.625 94.5 97.2188 92.0625 99.2812 90.5625C101.438 89.0625 104.062 88.3125 106.875 88.3125C111.094 88.3125 114.188 90.375 116.156 91.6875C117.656 92.7188 118.031 94.6875 117.188 96.2812C116.156 97.7812 114.188 98.1562 112.594 97.125C110.625 95.8125 108.844 94.875 106.875 94.875C105.375 94.875 103.969 95.3438 103.125 96C102.281 96.5625 102.094 97.125 102.094 97.4062C102.094 97.6875 102.094 97.6875 102.188 97.875C102.281 97.9688 102.469 98.25 102.844 98.5312C103.688 99.0937 105.281 99.6562 107.344 100.031L107.438 100.125H107.531C109.594 100.5 111.469 101.062 113.25 101.906C114.938 102.656 116.625 103.781 117.656 105.562C118.406 106.781 118.875 108.188 118.875 109.594C118.875 112.594 117.188 115.125 115.031 116.719C112.781 118.219 110.062 119.156 106.969 119.156C102.188 119.062 98.4375 116.906 96 114.937C94.6875 113.719 94.5 111.656 95.625 110.25Z" fill="#636466"/>
<path d="M100.219 58.7813C95.5312 61.2188 71.4375 71.1563 66.2812 73.7813C61.125 76.5001 58.3125 76.4063 54.2812 74.5313C50.1562 72.5626 24.5625 62.2501 19.875 60.0001C17.5313 58.8751 16.3125 57.9376 16.3125 57.0938V48.2813C16.3125 48.2813 49.6875 40.9688 55.125 39.0938C60.5625 37.1251 62.4375 37.1251 66.9375 38.8126C71.5312 40.5001 99 45.4688 103.5 47.0626V55.7813C103.594 56.6251 102.562 57.5626 100.219 58.7813Z" fill="#A41E11"/>
<path d="M100.219 49.9688C95.5313 52.4063 71.4376 62.3438 66.2813 64.9688C61.1251 67.6876 58.3126 67.5938 54.2813 65.7188C50.1563 63.7501 24.5626 53.4376 19.8751 51.1876C15.2813 48.9376 15.1876 47.4376 19.6876 45.6563C24.1876 43.8751 49.7813 33.8438 55.1251 31.9688C60.5626 30.0001 62.4376 30.0001 66.9376 31.6876C71.5313 33.3751 95.5313 42.9376 100.031 44.5313C104.719 46.2188 104.906 47.5313 100.219 49.9688Z" fill="#D82C20"/>
<path d="M100.219 44.4376C95.5312 46.8751 71.4375 56.8126 66.2812 59.4376C61.125 62.1563 58.3125 62.0626 54.2812 60.1876C50.1562 58.2188 24.5625 47.8126 19.875 45.6563C17.5313 44.5313 16.3125 43.5938 16.3125 42.7501V33.9376C16.3125 33.9376 49.6875 26.6251 55.125 24.7501C60.5625 22.7813 62.4375 22.7813 66.9375 24.4688C71.5312 26.1563 99 31.1251 103.5 32.7188V41.4376C103.594 42.2813 102.562 43.2188 100.219 44.4376Z" fill="#A41E11"/>
<path d="M100.219 35.6251C95.5313 38.0626 71.4376 48.0001 66.2813 50.6251C61.1251 53.3438 58.3126 53.2501 54.2813 51.3751C50.2501 49.4063 24.5626 39.0938 19.9688 36.8438C15.3751 34.5938 15.2813 33.0938 19.7813 31.3126C24.2813 29.5313 49.8751 19.5001 55.2188 17.6251C60.6563 15.6563 62.5313 15.6563 67.0313 17.3438C71.6251 19.0313 95.6251 28.5938 100.125 30.1876C104.719 31.7813 104.906 33.1876 100.219 35.6251Z" fill="#D82C20"/>
<path d="M100.219 29.5313C95.5312 31.9688 71.4375 41.9063 66.2812 44.5313C61.125 47.2501 58.3125 47.1563 54.2812 45.2813C50.25 43.3126 24.5625 33.0001 19.9687 30.7501C17.625 29.6251 16.4062 28.6876 16.4062 27.8438V19.0313C16.4062 19.0313 49.7812 11.7188 55.2188 9.84383C60.6562 7.87508 62.5312 7.87508 67.0312 9.56258C71.625 11.2501 99.0938 16.2188 103.594 17.8126V26.5313C103.594 27.2813 102.562 28.3126 100.219 29.5313Z" fill="#A41E11"/>
<path d="M100.219 20.7188C95.5313 23.1563 71.4376 33.0938 66.2813 35.7188C61.1251 38.4376 58.3126 38.3438 54.2813 36.4688C50.2501 34.5001 24.5626 24.1876 19.9688 21.9376C15.3751 19.6876 15.2813 18.1876 19.7813 16.4063C24.2813 14.6251 49.8751 4.59383 55.2188 2.71883C60.6563 0.750077 62.5313 0.750077 67.0313 2.43758C71.6251 4.12508 95.6251 13.6876 100.125 15.2813C104.719 16.8751 104.906 18.2813 100.219 20.7188Z" fill="#D82C20"/>
<path d="M71.4375 12.1875L63.8438 12.9375L62.1563 17.0625L59.4375 12.4688L50.7187 11.7188L57.1875 9.375L55.3125 5.8125L61.4063 8.15625L67.125 6.28125L65.5313 10.0312L71.4375 12.1875ZM61.6875 31.9687L47.625 26.0625L67.875 22.9688L61.6875 31.9687Z" fill="white"/>
<path d="M42.1875 22.875C48.1418 22.875 52.9688 20.9862 52.9688 18.6562C52.9688 16.3263 48.1418 14.4375 42.1875 14.4375C36.2332 14.4375 31.4062 16.3263 31.4062 18.6562C31.4062 20.9862 36.2332 22.875 42.1875 22.875Z" fill="white"/>
<path d="M80.3438 13.3125L92.3438 18L80.3438 22.7812V13.3125Z" fill="#7A0C00"/>
<path d="M67.125 18.5625L80.3437 13.3125V22.7812L79.125 23.25L67.125 18.5625Z" fill="#AD2115"/>
</svg>
