<svg width="120" height="120" viewBox="0 0 120 120" fill="none" xmlns="http://www.w3.org/2000/svg">
<path d="M44.2219 34.8656L36.2438 36.1622L28.9622 39.3534L22.7794 43.2441L16.8956 50.4234L13.5713 53.9447L10.3566 55.1288L9.50721 53.0513L10.9931 50.9063L11.3269 47.88L12.3225 47.9203L13.41 48.9122L13.1175 45.8306L11.9119 45.0216L11.9485 43.8469L9.09189 45.4631L6.50439 48.5147L5.96533 51.2428L7.07158 53.4272L8.10283 57.1378L10.2019 58.1316L12.4088 58.0228L14.5022 56.8069L13.1053 63.8869L14.5022 71.7656L12.9647 75.4031L7.93127 80.8275L8.82658 84.0675L11.2106 87.8222L15.7069 90.9863L18.0919 91.3125L20.7431 91.4025L19.0894 98.1937L25.1738 100.688L32.7525 101.685L35.3447 99.9891L35.5444 95.4019L38.4375 90.615L38.6372 86.8247L45.6188 87.3234L52.1006 86.7253L45.6188 90.615L46.7156 95.3025L50.8041 101.685L54.7931 103.38L57.9844 102.083L59.281 99.4903L65.9635 94.4044L67.26 95.5013L77.7319 95.9006L79.8253 94.2047L80.025 91.2131L79.3266 89.9166L78.8278 81.8391L75.3375 74.8575L75.9356 71.7656L78.03 72.8625L83.9147 78.3478L86.8069 78.5475L89.9981 77.2509L93.1894 74.8575L94.785 69.6713L104.16 70.2694L109.844 68.0756L114.431 63.7875L117.722 57.6038L118.521 50.3241L117.822 41.8472L116.027 34.2675L114.231 31.875L111.738 31.0772L107.35 35.8641L103.36 37.2609L99.87 31.4766L96.3797 28.2853L94.485 27.0881L86.9053 20.805L80.821 17.5144L74.7385 17.0156L67.6575 18.2119L61.4747 20.5059L57.1856 23.9963L53.7956 28.0856L50.3044 29.0822L44.2219 34.8656Z" fill="#FFFF00"/>
<path d="M76.7174 17.0879L72.7274 17.2473L64.1071 19.1616L57.404 23.311L53.5733 28.7391C62.4983 27.2532 63.6402 26.5145 68.2583 31.2929C66.388 28.0116 65.8415 26.4535 66.1537 23.3523C66.5924 18.9835 72.913 18.5148 76.7174 17.0879ZM53.2546 28.5788L49.5833 29.537L42.1377 36.8776L43.678 35.1235L35.0577 36.2401L27.7143 39.2729L21.0112 44.8595L16.7024 51.2438L13.8299 58.1082L13.5093 65.2895L14.6287 72.3141L17.6605 79.9754C15.7668 70.5038 14.248 60.8354 21.0824 52.8648C25.5102 47.6991 29.2883 46.3004 35.6962 44.221L37.1399 42.5757L32.6643 50.6063L31.0677 55.3951L34.4202 59.3851C34.7643 57.1501 34.8721 55.5254 36.0224 53.5876C38.2958 49.7598 40.7221 46.021 42.8849 42.1379C45.9083 36.7107 48.5043 33.2148 53.2546 28.5788Z" fill="#FFFFCC"/>
<path d="M80.9361 17.4277C83.6896 19.9843 87.0693 22.2071 89.2705 25.3318C90.1236 26.5412 91.0705 27.1599 89.2564 28.868C91.1727 28.3205 91.8843 28.3805 93.4189 28.5662C96.2089 28.9037 98.8255 32.8712 98.9924 35.7146C98.9596 35.9799 98.2161 36.5837 96.058 37.179C96.0158 37.2624 94.8411 37.0177 94.8702 37.0965C95.0952 37.7105 95.3952 37.8062 95.8518 38.093C95.9511 38.7755 96.0149 39.8265 96.4799 40.5718C97.8374 40.5484 99.1639 40.6974 100.493 40.9599C100.941 41.7024 100.873 42.444 100.836 43.1865L102.378 42.9305L101.949 39.4187L103.321 37.1059L101.35 32.6527L97.5805 29.0546L97.2177 29.0359L92.9802 26.4362L86.0671 20.7802L80.9361 17.4277ZM113.315 31.2934C114.48 36.5359 115.983 41.3724 115.843 46.7405C115.672 53.3265 114.389 61.6468 108.287 65.619C101.452 70.0665 93.4311 67.9627 85.933 66.0568L95.098 69.8256L103.663 70.254L109.488 68.5412L114.027 64.7715L117.453 57.5771L118.738 49.2699L117.71 41.1324L115.825 33.0812L113.315 31.2934ZM78.1489 31.869L77.1627 32.153L75.6111 32.9059C72.5483 35.3621 72.1949 38.7221 73.1924 42.279C72.9205 38.1718 75.0861 33.9577 78.1489 31.869ZM64.2627 31.9665L58.5243 32.6527C56.7255 33.0527 54.9268 33.4518 53.128 33.8499L50.473 37.7049L49.0152 41.3893C47.4271 45.7337 46.0414 49.4574 43.6358 53.3912C46.7183 50.0705 48.5868 47.2468 50.3521 43.493C51.0374 42.0343 51.1668 40.3243 53.0764 40.9599C53.1627 42.4168 53.4702 43.8727 53.5564 45.3287C54.5877 37.9318 57.4977 34.8371 64.2627 31.9665ZM113.301 32.4334C112.584 32.7643 111.886 32.9227 111.438 33.579C110.472 34.9918 109.645 36.1805 108.049 37.1715C107.244 37.6712 106.413 37.9965 105.561 38.2618C104.853 38.4812 104.428 38.2843 103.826 38.7174L104.898 38.904H107.26L110.173 37.1059L111.885 35.3077L113.301 32.4334ZM85.5749 38.5327C85.2664 38.6593 84.748 38.9659 84.4405 39.0924L82.0189 39.8818L78.3186 42.6812L76.2261 44.859C75.7996 45.1215 75.5371 45.2284 75.1105 45.2246C75.7827 45.4712 76.5543 45.264 77.368 45.0493C78.0486 46.4912 78.4086 47.0949 79.7596 47.843C79.2305 48.8371 78.9585 49.9477 78.9683 51.0737C81.0777 46.8549 85.0283 44.6218 89.1533 42.4018C88.2627 42.5799 87.3599 42.8237 86.4683 43.1077L87.0514 42.819C86.6418 41.2843 86.0764 40.5587 84.9289 39.473C85.2102 39.1918 85.4286 38.7868 85.5749 38.5327ZM62.1214 41.2168L61.7783 43.7012L61.9508 48.8415L63.4068 59.7174L61.4361 67.9412L55.3555 69.1402L47.5602 73.6796L43.1455 74.5477L36.9533 71.6284C43.4193 80.948 48.9252 76.3234 58.5214 73.178C60.9318 72.3877 62.4777 72.1065 64.9705 72.2677C67.2505 68.3584 67.1849 66.1796 66.5924 61.6477C65.6802 54.6727 63.5811 48.0821 62.1214 41.2168ZM11.7964 45.0999L11.3333 46.9168C8.23019 48.9362 7.01238 49.823 7.35269 53.5655L8.27894 56.9274L9.59332 57.8171L11.2152 58.3571L14.1552 57.6615L15.6618 52.9852L11.4871 55.0337H10.5214L9.43769 53.3715L10.753 51.4402L11.4486 47.768L12.3393 48.0371L13.4202 48.8884L13.2646 46.9552C13.0208 46.5427 12.7761 46.1309 12.5305 45.7196L11.7964 45.1009V45.0999ZM31.5439 57.2349C31.4249 59.3959 31.2852 60.2968 32.2377 62.2065C33.4499 64.6327 34.9386 66.9127 36.2558 69.3109L36.6824 64.5146L31.5439 57.2349ZM86.4683 62.3949C82.4333 63.5593 82.4643 63.8799 81.2718 67.884C82.8458 65.3602 84.0111 64.0862 86.4683 62.3949ZM69.2952 67.4855C69.7471 70.0177 70.5336 70.6196 71.7252 73.0712C70.9321 77.0715 69.658 81.8274 68.1252 85.3562C67.4783 86.844 66.9561 87.6652 65.8161 88.8156C63.8914 90.758 61.9452 92.4521 59.7627 94.1359C58.1924 95.3471 57.0964 94.7396 55.1577 94.4659C54.3327 95.9602 54.1058 96.789 52.5889 97.5474C50.2546 98.7137 48.1668 96.2002 46.3358 94.7218L50.3014 100.917L53.0427 103.487L55.3555 103.83L58.4389 101.945L60.0664 98.8618L63.493 96.2912L67.6893 92.6949L70.3443 88.9262L70.7586 88.1593L69.6599 90.5527L66.2333 94.5793L68.4599 95.5224H74.0286C74.1946 95.0855 76.513 95.9687 78.2005 95.2234C78.6721 95.0152 79.0939 94.2559 79.4061 93.819C80.5086 92.2787 77.848 89.2787 78.6533 83.7005L76.2552 75.9062H75.598C75.6736 75.6774 75.7499 75.4493 75.8268 75.2218L76.0827 71.709C74.7983 71.1377 73.5136 70.5671 72.2286 69.9971C71.2864 69.1121 70.2374 68.3705 69.2952 67.4855ZM92.7861 69.1402L84.7349 70.1677L84.1349 71.7952L84.3064 74.1081L85.0771 75.4768L86.2771 76.0777L87.2174 76.164C88.4849 76.9459 88.4586 77.5121 88.2467 78.0484L91.2439 76.8484L93.1846 74.2421L94.6283 70.5249L92.7861 69.1402ZM13.9611 73.5643L12.8493 75.9315C13.8702 79.3693 14.7768 81.5452 16.7202 84.549C16.3818 85.7649 16.1277 86.2984 15.3486 87.2893C13.6386 87.0268 12.1208 86.9518 10.3893 86.9565L16.1268 91.4096L18.9524 90.8949L21.7789 88.0693L17.7543 81.8162L13.9611 73.5643ZM55.0133 78.7327C53.6418 80.2187 52.5355 81.5921 51.4152 83.2721C47.4552 85.088 42.8914 85.329 38.5686 85.329L38.4824 86.528L38.8246 86.8702L41.9943 87.2124L51.7574 86.9565L53.0427 85.0721C53.3736 82.4227 53.7646 81.0896 55.0133 78.7327ZM37.6321 79.2896C36.8943 83.7352 37.0714 86.7146 35.0258 90.6971C33.4977 92.469 31.6161 94.0796 29.4608 94.9412C29.6427 96.0334 29.6961 96.7159 29.5911 97.5165C29.2114 100.396 23.4505 99.1234 21.0814 99.008L32.4852 101.945L35.0568 100.917L35.9118 95.9481L38.3099 91.4949L38.7383 88.7546L37.9677 82.3309C37.8552 81.3184 37.7427 80.3046 37.6321 79.2896Z" fill="#CCCC00"/>
<path d="M60.4922 15.0459C54.8287 16.4334 53.1618 17.4215 51.2803 23.9868C53.6728 19.1775 55.485 17.4075 60.4922 15.0459ZM75.0572 15.3956C71.3465 15.4687 67.4043 16.5853 62.8528 18.5006C60.3422 19.5571 58.4765 20.8078 56.8528 22.3096C55.3012 23.744 53.9822 25.4071 52.5347 27.3356C51.6956 27.3956 50.9456 27.5137 50.1853 27.8175C49.3462 28.1531 48.5006 28.6959 47.4881 29.5893C46.7821 30.2119 46.0903 30.8505 45.4134 31.5046V31.5065C44.796 32.1069 44.1893 32.7182 43.5937 33.3403C38.8593 34.0996 34.9978 34.9387 31.5431 36.2765C28.0097 37.6453 24.8943 39.5296 21.6947 42.3665C20.4344 43.4791 19.2855 44.7118 18.2643 46.0471C17.3067 47.31 16.4613 48.6542 15.7378 50.0643C15.0947 50.7768 14.4506 51.4959 13.7531 52.125C13.0762 52.7334 12.3543 53.2472 11.5462 53.5584C11.0775 53.7393 10.8825 53.8443 10.8618 53.8368C10.8468 53.8293 10.8037 53.6634 10.7906 53.61C11.9418 52.5028 12.1303 50.8856 12.2372 49.2759C12.3885 49.4615 12.5279 49.6566 12.6543 49.86C12.8072 50.0971 12.9656 50.34 13.154 50.5771L13.9415 51.5709L14.2181 50.3315C14.4506 49.2928 14.624 47.9081 14.354 46.7081C14.1787 45.9328 13.8103 45.2475 13.185 44.7562C13.2431 44.6062 13.3068 44.4356 13.3612 44.2987C13.559 43.7925 13.7615 43.2731 13.934 42.7828L14.2772 41.8125L13.2609 41.9878C11.9081 42.2221 9.00091 43.8206 6.95434 45.944C6.19497 46.7334 5.54153 47.6034 5.11216 48.5193C4.66591 49.4709 4.46528 50.4684 4.63778 51.465C4.78778 52.334 5.23122 53.1843 6.01872 53.9887C6.16216 54.5681 6.29528 55.0875 6.43778 55.5412C6.60091 56.0606 6.77716 56.5228 6.99653 56.9784C7.59184 58.2178 8.54153 58.9753 9.64028 59.3278C10.5309 59.6137 11.5181 59.625 12.4837 59.4103C12.2797 60.5522 12.1544 61.7068 12.1087 62.8659C12.0487 64.4831 12.1068 66.269 12.285 68.3418C12.3699 69.3053 12.5044 70.2638 12.6881 71.2134L12.149 72.6796L11.3118 74.954L9.47247 76.7775L7.75403 78.479C7.70716 78.5259 7.51403 78.7115 7.33872 78.8803C6.17903 79.9959 5.94934 80.219 6.27934 82.1831C6.49059 83.44 6.90073 84.6552 7.49434 85.7831C8.10415 86.935 8.88453 87.9881 9.80903 88.9068C11.0334 90.134 13.0378 91.6575 15.1368 92.4553C16.334 92.91 17.5668 93.1303 18.7247 92.9484C18.6647 93.1284 18.6178 93.3028 18.5522 93.4846C18.3682 93.9934 18.1643 94.4947 17.9409 94.9875C16.5159 98.1103 17.9793 99.7415 20.2547 100.779C21.3909 101.297 22.7418 101.65 23.9981 101.977C24.254 102.043 24.5109 102.109 24.8343 102.197C26.3222 102.599 28.8909 103.337 31.2375 103.486C33.7997 103.648 36.1115 103.12 36.7312 100.82C36.9759 99.9084 37.1184 99.21 37.1756 98.5275C37.229 97.8984 37.2037 97.2543 37.1315 96.4706C37.8534 94.8768 38.1778 94.38 38.7084 93.6037L38.9775 93.2062C39.5493 92.3568 39.8175 91.755 39.915 91.0762C40.0087 90.4218 39.9309 89.7703 39.8118 88.7728C39.8025 88.6837 39.7781 88.5121 39.7556 88.3425C41.2556 88.5356 42.7368 88.6518 44.2068 88.6612C44.9495 88.6621 45.692 88.6415 46.4334 88.5993C46.2272 88.7062 46.0856 88.7906 45.8615 88.905L45.584 89.0475C43.6059 90.0646 43.5234 91.9921 44.1431 93.975C44.7018 95.7628 45.8503 97.5871 46.5712 98.6971C48.0862 101.033 49.5337 103.01 51.2868 104.084C53.1243 105.211 55.2243 105.344 57.9337 103.878C59.3137 103.132 59.7478 102.368 60.3337 101.344C60.5184 101.019 60.7247 100.666 60.9543 100.318C61.4953 99.9712 62.8837 98.8331 64.3087 97.6556C64.7728 97.2722 65.2715 96.8662 65.7937 96.4415C66.1612 96.7106 66.6047 96.8981 67.139 97.0256C67.8365 97.1925 68.6672 97.2693 69.6628 97.3406C70.4072 97.395 72.8381 97.3922 74.4065 97.3922C74.8912 97.3922 75.2925 97.3921 75.5343 97.394C77.1543 97.4034 78.4631 97.319 79.4512 96.7584C80.505 96.1612 81.1284 95.1037 81.2643 93.2081C81.3243 92.3653 81.3347 91.8459 81.2175 91.3143C81.1097 90.8231 80.8893 90.3656 80.5293 89.7159L80.4637 87.2503L80.3943 84.6403C80.3662 83.6156 80.2537 82.784 80.0465 81.9656C79.8403 81.1509 79.545 80.3671 79.1512 79.4296C78.884 78.794 78.6675 78.2109 78.4556 77.639V77.6353C78.1171 76.7221 77.7778 75.8315 77.3109 74.8809C77.3421 74.6972 77.3734 74.4993 77.4047 74.2875L78.3084 75.1593L79.6396 76.4409C80.6559 77.4197 81.585 78.3093 82.6762 78.9534C83.8031 79.619 85.0715 80.0053 86.7131 79.9275C88.4334 79.8459 90.2718 79.1221 91.7868 78.0056C93.2522 76.9237 94.4287 75.465 94.92 73.8497L95.3447 72.449L95.6887 71.3212C98.1 71.7309 100.684 71.8706 103.184 71.609C105.596 71.3559 107.927 70.7418 109.937 69.6693C112.89 68.0934 115.106 65.7693 116.699 63.0121C118.477 59.9306 119.474 56.3015 119.852 52.5656C120.156 49.5693 119.99 45.494 119.366 41.565C118.811 38.0625 117.89 34.665 116.613 32.219C116.431 31.8891 116.2 31.5886 115.928 31.3275C115.293 30.7012 114.353 30.1106 113.382 29.7768C112.354 29.4225 111.268 29.3503 110.407 29.8003C110.179 29.9187 109.972 30.0725 109.792 30.2559C109.234 30.8221 108.763 31.5075 108.292 32.1956C107.767 32.9615 107.242 33.7312 106.612 34.2703C105.876 34.8984 104.953 35.2771 104.086 35.625C103.729 34.7433 103.297 33.8934 102.797 33.0843C102.208 32.1431 101.537 31.2609 100.798 30.3806C100.258 29.7325 99.645 29.1484 98.9718 28.6396C98.3343 28.154 97.6828 27.7434 96.9234 27.2681C94.8862 25.9931 93.1528 24.4725 91.3847 22.9209C90.5803 22.2159 89.7684 21.5034 88.9753 20.849C84.7631 17.3756 80.835 15.6928 76.6331 15.4284C76.1085 15.3954 75.5827 15.3844 75.0572 15.3956ZM55.9884 15.4537C53.1318 16.1418 52.5881 16.6706 51.7312 19.47C53.0981 17.4196 53.8856 16.7531 55.9884 15.4537ZM75.0018 17.7853C79.44 17.5903 83.4309 19.0846 87.9037 22.844C89.9643 24.5765 91.7634 26.2584 93.8522 27.7537C93.0708 27.8138 92.3037 27.996 91.5787 28.2937C92.6287 28.0931 93.8447 28.2918 94.935 28.4906C95.2406 28.6893 95.555 28.8837 95.8781 29.0737C97.3518 29.9428 98.189 30.4209 99.1865 31.8112C100.223 33.2451 101.129 34.769 101.894 36.3647C101.388 36.1837 100.961 36.0309 100.582 35.9175C100.158 35.7241 99.694 35.638 99.2296 35.6667C98.7652 35.6955 98.3151 35.8383 97.919 36.0825L97.859 36.1125C97.0434 36.509 95.7778 36.9618 94.9331 37.0987C95.3643 37.2487 96.3178 37.305 96.7678 37.1268C96.8278 37.1025 96.8893 37.0828 96.9525 37.0678C96.7438 37.4231 96.6158 37.82 96.5775 38.2303C96.5236 38.7714 96.6278 39.3165 96.8775 39.7996C96.8775 39.8009 96.8787 39.8021 96.8812 39.8034C96.9571 39.9834 97.0631 40.1493 97.1793 40.2684C96.7931 40.4109 96.3993 40.575 95.9934 40.7521C97.8787 40.4643 99.5793 40.4146 101.421 40.6565C101.542 41.2378 101.664 41.8509 101.777 42.4771L101.092 42.5315L101.037 42.5353C100.166 41.8396 99.1978 41.9559 97.8712 42.2587C93.84 43.1775 94.7868 45.4406 92.9315 48.8493C94.8572 46.4943 94.7156 44.0334 97.8534 43.29C98.5846 43.1165 99.0815 42.899 99.5765 42.9731C98.6859 43.4212 97.9153 44.1646 97.6096 45.0271C96.7481 47.46 97.2834 49.5084 96.3375 51.78C97.5093 49.7493 97.5797 47.7684 98.6278 45.6318C99.0047 44.864 100.402 43.635 101.259 43.6162L101.966 43.6012C102.172 44.9531 102.297 46.2965 102.217 47.4093C102.07 49.4418 101.544 52.4559 101.228 53.61C102.29 52.245 102.772 49.3546 103.238 47.3193C103.724 45.2006 103.604 42.6581 103.178 40.3818C102.594 37.259 105.811 37.7662 107.678 36.2943C109.052 35.2125 109.996 33.4837 111.255 32.2593C112.504 31.0453 114.468 32.8312 114.959 34.0171C117.088 39.1687 118.059 47.2734 117.497 52.4653C116.866 58.2918 114.051 64.6509 108.911 67.5197C102.36 71.1759 94.6359 68.9446 88.1268 66.7509C86.7375 66.2831 85.77 65.5996 84.5493 64.83C84.8812 66.3271 85.0331 67.9125 84.5906 69.4078C83.8884 71.7797 82.754 75.6628 85.9753 76.379C87.2015 76.6509 87.7584 76.6106 89.489 75.7181C88.0884 76.034 87.3815 75.9581 86.4187 75.78C85.5459 75.6197 85.0837 75.0637 84.84 74.4112C85.1447 74.6306 85.6425 74.7487 86.4918 74.955C88.8797 75.5297 91.155 74.3821 91.6003 72.7256C91.86 71.7581 91.814 71.25 92.3634 69.9318C92.8584 70.0837 93.3681 70.2228 93.8925 70.349L93.0065 73.244C92.2387 75.7471 89.249 77.7656 86.609 77.7187C84.1678 77.6756 82.6209 76.1475 80.9362 74.6484C79.8095 73.6465 78.681 72.6465 77.5509 71.6484C74.5134 70.6912 72.0787 69.5709 69.2597 67.4831C71.2659 69.8409 72.6272 71.1459 75.4247 72.3196C75.0178 76.47 73.575 79.4962 72.345 83.4684C71.789 85.2646 67.394 92.4618 66.1762 93.164C65.3081 93.6637 59.8697 98.2453 58.8468 98.849C58.0847 99.8615 57.4153 101.259 56.2697 101.865C52.7793 103.712 50.535 100.176 48.6572 97.1906C47.8012 95.8312 45.4275 91.9143 47.4975 90.8165C49.455 89.7797 50.5518 89.039 52.5497 87.7275C52.8431 88.2618 53.3456 88.7793 53.6737 89.3137L53.4562 87.5606C53.325 86.5021 53.3297 85.6415 53.414 84.5765L53.6578 81.4828C53.3568 82.53 52.7559 83.5771 52.4559 84.6262C52.3359 85.0453 52.2365 85.3856 52.1793 85.6987C47.7602 86.6126 43.207 86.6718 38.7656 85.8731C38.5003 84.3215 38.1911 82.7778 37.8384 81.2437C37.7503 82.6322 37.8075 86.4703 37.8009 88.619C37.7943 90.285 37.7259 90.8559 36.8662 92.2725C36.0628 93.599 35.7215 93.899 34.5956 96.1396C34.6893 97.5534 34.6912 98.489 34.3162 99.8306C33.6909 102.062 27.3881 100.334 25.7259 99.8784C23.6793 99.3178 19.4475 98.4843 20.5115 95.7553C21.449 93.3534 22.0425 90.8212 22.5 87.4603C18.75 82.0575 15.2606 74.6521 14.5912 68.0915C14.0718 62.9971 14.3831 59.8603 15.4856 56.744C17.2322 51.8071 19.6762 47.5331 23.5968 44.0915C28.8862 39.4509 33.8306 37.5871 41.5725 36.4087C39.7106 38.4928 37.8693 40.6959 35.8612 43.0593C33.8287 45.4518 32.6212 47.8678 31.3312 50.4843C29.5481 54.0975 29.5875 55.4718 31.95 58.6453C33.9862 61.379 35.0859 62.6109 35.9747 65.2865C35.2406 66.7996 34.9725 68.0784 34.7259 70.1456C37.2197 72.8709 39.0722 74.7375 41.4937 75.3131C43.8684 75.8775 45.8512 75.7687 47.9756 74.6831C52.694 72.2709 57.06 69.1556 62.3822 69.0271C64.845 62.9728 64.5975 57.914 63.4153 52.0565C62.6072 48.0562 62.2837 44.2678 62.0325 40.1896C61.034 44.3896 60.8475 48.0834 61.5872 52.2675C62.4806 57.3093 63.1743 62.879 60.69 67.3096C55.8778 67.6781 51.7518 70.6068 47.4131 72.854C45.6693 73.7578 43.8562 73.845 41.9259 73.3153C40.1343 72.8231 38.925 71.6371 36.9947 69.4115C36.9647 67.1765 37.4681 66.1453 38.4947 64.1212C40.1428 60.8718 41.9643 57.8465 43.9622 54.6478C41.5153 57.6 39.1978 60.0665 37.2731 63.0337C36.5372 60.9375 35.4853 59.8743 33.7425 57.5137C32.04 55.2075 31.8618 54.1987 33.135 51.5315C34.4147 48.8503 35.5012 46.4934 37.679 44.1412C41.4431 40.0771 44.8903 35.5537 49.0059 31.5506C51.2409 29.3775 52.1484 29.4534 55.1128 29.0034C57.7922 28.5975 60.4078 28.0856 63.1406 27.4509C60.4968 27.6975 57.9422 27.7865 55.3687 27.8503L55.2909 27.8521C57.8222 24.6196 59.2893 22.8196 63.4003 21.0337C67.8281 19.11 71.55 17.9362 75.0018 17.7853ZM78.5231 31.7325C73.0162 33.1106 71.9831 35.4225 72.6918 38.9775C73.2947 36.3028 74.3681 33.7265 78.5231 31.7325ZM62.2078 32.0343C59.9793 32.2865 57.7547 32.5171 55.5253 32.7281C53.6531 32.9062 53.3512 32.8753 52.0237 34.1878C50.0053 36.1837 48.044 43.0312 47.4168 45.7706C48.404 43.4953 50.8753 37.1296 52.77 35.5096C53.2931 35.0615 53.6578 34.7868 54.0506 34.5872C52.695 36.8606 52.7934 37.4278 53.2687 40.4737C53.6737 37.3771 54.7443 36.18 56.5031 33.869C58.4422 33.381 60.3477 32.7682 62.2078 32.0343ZM113.339 32.294C112.062 34.8796 110.092 37.0415 107.417 38.3662C105.982 39.0759 105.065 38.8293 103.462 38.6775C105.093 39.1453 106.124 39.7331 107.724 39.1621C110.985 37.9996 112.557 35.3793 113.339 32.294ZM101.942 36.4659C102.054 36.7021 102.164 36.9418 102.272 37.185C102.182 37.2512 102.097 37.3209 102.017 37.394C101.87 37.0525 101.66 36.7422 101.396 36.48C101.574 36.4737 101.756 36.4696 101.942 36.4659ZM85.635 38.4646C83.8387 39.2953 81.749 39.0928 80.2097 40.1334C78.8521 41.0493 76.979 43.9537 75.6009 45.1846C76.5993 44.7975 77.5603 44.1271 78.4462 43.4193C78.4508 44.0905 78.6382 44.7477 78.9882 45.3203C79.3382 45.893 79.8376 46.3595 80.4328 46.6696C79.9235 47.3374 79.518 48.0783 79.23 48.8671C81.855 45.7546 85.6631 43.4062 89.2425 42.4021C88.2412 42.3871 87.0553 42.5746 85.8487 42.9712C85.7739 42.2848 85.5081 41.633 85.0815 41.09C84.655 40.547 84.0848 40.1344 83.4356 39.899C84.2353 39.4715 85.0218 39.0215 85.635 38.4646ZM6.60278 41.7C1.83559 45.06 0.645905 46.5853 1.28903 53.384C1.76153 48.0346 2.80216 45.7265 6.60278 41.7ZM2.55841 43.7221C0.149031 45.4031 -0.163157 46.0968 0.059968 49.0153C0.584968 46.6078 1.07341 45.6984 2.55841 43.7221ZM11.459 44.6962C11.1084 45.4481 10.8609 46.0162 10.6912 46.6021C9.95622 49.1428 11.0231 51.4115 8.71778 53.2528C9.80153 55.439 9.75091 56.31 12.2709 55.2993C13.244 54.9103 14.0465 54.3637 14.7618 53.7178C14.3572 54.7705 13.9907 55.8374 13.6631 56.9165C11.8603 57.6815 9.48934 58.169 8.58184 56.2734C8.14122 55.3546 7.89278 54.4518 7.57122 53.2893C4.60216 50.2134 9.04122 46.1521 11.459 44.6962ZM12.074 46.0715C12.6881 46.4287 12.8503 47.0784 12.9178 47.9531C12.5522 47.5875 12.2587 47.3371 11.7843 47.3906C11.8384 46.9426 11.9354 46.5009 12.074 46.0715ZM86.4178 62.4121C85.7672 62.5218 84.599 62.7609 83.9484 62.8715C82.2093 63.165 82.005 63.5831 81.735 65.295C81.6075 66.1012 81.4312 67.1015 81.3037 67.9087C81.645 66.9965 82.0565 65.9362 82.454 65.0662C82.875 64.1475 83.1103 64.0603 84.0037 63.5747C84.6365 63.2297 85.784 62.7562 86.4178 62.4121ZM14.069 74.4168C15.4359 79.1428 17.7628 83.7862 20.3418 87.69V87.7593C20.1806 88.4306 19.995 89.084 19.6022 89.609C17.7581 92.0765 13.0668 88.4559 11.7084 87.0693C10.2243 85.5534 9.22966 83.7571 8.99341 82.0743C8.82091 80.8462 8.98778 80.8172 9.84466 79.9481L13.3087 76.4418L14.069 74.4168ZM76.0996 77.5059C76.3818 78.4218 76.604 79.3303 77.0147 80.3034C77.7009 81.929 78.0356 82.935 78.0843 84.6796L78.2418 90.2006C78.8306 91.2318 78.9234 91.4512 78.8184 92.6287C78.6056 95.0325 77.8031 95.1918 75.6909 95.1553C74.7318 95.1384 70.9125 95.1196 69.944 95.0362C68.5743 94.9181 67.8065 94.7971 67.3875 94.485C69.539 92.9053 73.1953 86.385 73.9078 84.1396C74.6606 81.7678 75.4856 79.6978 76.0996 77.5059Z" fill="black"/>
<path d="M97.8881 38.1221C97.6033 38.1265 97.3303 38.2367 97.1224 38.4313C96.9144 38.626 96.7863 38.891 96.7631 39.1749C96.7284 39.5424 96.9281 40.013 97.1793 40.2699C97.7812 40.0486 98.3643 39.8761 98.9484 39.7777C99.0306 39.5999 99.0667 39.4043 99.0533 39.209C99.04 39.0136 98.9777 38.8247 98.8721 38.6597C98.7666 38.4948 98.6212 38.3591 98.4494 38.2651C98.2776 38.1711 98.0839 38.1219 97.8881 38.1221ZM80.9287 43.628C80.6666 43.6269 80.4085 43.6924 80.1786 43.8182C79.9488 43.944 79.7546 44.1262 79.6142 44.3475C79.4739 44.5689 79.3921 44.8222 79.3763 45.0838C79.3606 45.3454 79.4115 45.6068 79.5243 45.8433C79.7123 46.2236 80.0367 46.5192 80.4328 46.6711C80.9976 45.9355 81.6636 45.2835 82.4109 44.7343C82.3875 44.6582 82.3593 44.5836 82.3265 44.5111C82.2001 44.2476 82.002 44.025 81.755 43.8688C81.5079 43.7126 81.221 43.6292 80.9287 43.628Z" fill="#FFFFCC"/>
</svg>
