<svg width="120" height="120" viewBox="0 0 120 120" fill="none" xmlns="http://www.w3.org/2000/svg">
<path d="M92.0437 82.6219C106.697 67.9782 109.134 46.6594 97.4812 35.0157C85.8281 23.3719 64.5093 25.8095 49.8562 40.4532C35.2031 55.097 39.4406 83.0907 44.4187 88.0594C48.4406 92.0813 77.3906 97.2657 92.0437 82.6219Z" fill="#F89939"/>
<path d="M31.9125 61.4624C23.4094 52.9687 11.0344 51.5531 4.27504 58.3031C-2.48434 65.0624 -1.06871 77.4281 7.43441 85.9218C15.9375 94.4249 32.1844 91.9593 35.0719 89.0812C37.4063 86.7468 40.425 69.9562 31.9125 61.4624Z" fill="#3499CD"/>
<path d="M116.081 80.3254C115.537 80.3254 115.266 79.9973 115.266 79.3316C115.266 78.8348 115.594 77.7473 116.241 76.0879C117.187 73.6598 117.666 71.916 117.666 70.8566C117.666 70.2191 117.478 69.6848 117.103 69.2629C116.728 68.841 116.259 68.6254 115.697 68.6254C114.872 68.6254 113.925 69.0098 112.856 69.7879C111.787 70.566 110.353 71.9629 108.544 73.9879C108.806 72.6754 109.369 70.8754 110.213 68.5879L106.172 69.366C105.253 71.3535 104.588 73.1441 104.175 74.7379C103.969 75.516 103.819 76.3223 103.716 77.1379C102.45 78.366 101.625 79.1066 101.269 79.3785C100.903 79.6504 100.519 79.7816 100.125 79.7816C99.7594 79.7816 99.4688 79.641 99.2531 79.3691C99.0375 79.0973 98.9344 78.7223 98.9344 78.2629C98.9344 77.766 99.0281 77.1941 99.2156 76.5473C99.4969 75.577 99.8156 74.6816 100.463 72.891L102 68.6535L100.491 68.7191C99.1219 71.3254 97.5187 72.7316 95.6812 72.9285C96.1781 71.6348 96.4313 70.641 96.4313 69.9473C96.4313 69.066 96 68.6254 95.1375 68.6254C94.1156 68.6254 93.3187 69.1035 92.7469 70.0691C92.1656 71.0348 91.875 71.9441 91.875 72.7973C91.875 74.077 92.3531 74.2504 93.3 74.6723C92.6812 75.5816 91.9875 76.4348 91.2375 77.241C90.3469 78.1223 89.6531 78.7973 89.1469 79.2379C88.6312 79.6973 88.1531 79.9223 87.7219 79.9223C87.0469 79.9223 86.7094 79.4441 86.7094 78.4973C86.7094 77.5504 87.0844 75.9191 87.8344 73.4816L89.2969 68.6254H88.3688L84.9844 70.5004C84.4313 69.2348 83.4656 68.5973 82.0875 68.5973C80.9906 68.5973 79.7344 69.066 78.3094 69.9941C76.8844 70.9223 75.7125 72.1316 74.8031 73.641C74.1 74.8035 73.6688 76.0223 73.5094 77.2785C72.2344 78.5535 71.2781 79.3785 70.6406 79.7629C69.975 80.1566 69.2813 80.3535 68.55 80.3535C66.6844 80.3535 65.5312 79.2754 65.0906 77.1191C69.9562 75.6941 72.3844 73.8379 72.3844 71.5504C72.3844 70.6879 72.075 69.9941 71.4563 69.4598C70.8375 68.9254 70.0125 68.6629 68.9906 68.6629C67.0125 68.6629 65.2125 69.6098 63.5906 71.5035C62.1188 73.2191 61.3219 75.1223 61.1813 77.2129C59.8406 78.5348 58.8281 79.4066 58.1719 79.8285C57.4969 80.2598 56.8594 80.4754 56.2687 80.4754C55.6781 80.4754 55.2094 80.1941 54.8625 79.6316C54.5062 79.0691 54.3281 78.3098 54.3281 77.3441C54.3281 76.9129 54.375 76.1254 54.4594 74.9723C56.6719 72.5723 58.2937 70.3223 59.3344 68.2129C60.375 66.1035 60.8906 63.9191 60.8906 61.6691C60.8906 60.8723 60.7875 60.2441 60.5813 59.7754C60.375 59.3066 60.1125 59.0723 59.7937 59.0723C59.7281 59.0723 59.625 59.091 59.4937 59.1379L55.2844 60.6941C53.85 63.4316 52.6219 66.4223 51.6188 69.6754C50.6156 72.9191 50.1094 75.7035 50.1094 78.0191C50.1094 79.566 50.4656 80.7941 51.1969 81.7129C51.9187 82.6316 52.875 83.091 54.0562 83.091C55.0875 83.091 56.1656 82.7629 57.3 82.1066C58.4344 81.4504 59.7469 80.4285 61.2562 79.0504C62.7656 77.6723 61.2562 79.0316 61.2562 79.0316C61.4344 80.0723 61.8656 80.9441 62.5406 81.6566C63.4687 82.6129 64.6781 83.1004 66.1781 83.1004C67.5281 83.1004 68.7562 82.7723 69.8719 82.116C70.95 81.4879 72.1594 80.5035 73.5094 79.2004C73.6219 80.1754 73.9406 81.0191 74.475 81.741C75.1594 82.6504 75.9844 83.1098 76.95 83.1098C77.9156 83.1098 78.9094 82.7348 79.8469 81.9848C80.7844 81.2348 81.7969 80.0629 82.9031 78.4879C82.8 81.5723 83.625 83.1098 85.3687 83.1098C86.0625 83.1098 86.7937 82.8566 87.5531 82.3504C88.3125 81.8441 89.5781 80.7473 91.35 79.0691C92.8875 77.5504 94.0125 76.1254 94.7344 74.7941C95.7094 74.6254 96.6 74.3348 97.4156 73.9129C95.7469 76.5285 94.9125 78.6191 94.9125 80.1754C94.9125 81.0191 95.1469 81.7223 95.6063 82.2848C96.0656 82.8473 96.6375 83.1379 97.3125 83.1379C98.7844 83.1379 100.875 81.816 103.575 79.2004C103.575 79.4066 103.556 79.6035 103.556 79.8098C103.556 80.541 103.622 81.6473 103.734 83.1379L107.4 82.2754C107.4 81.2816 107.419 80.4941 107.447 79.9035C107.503 79.116 107.616 78.2535 107.775 77.316C107.878 76.7629 108.131 76.2379 108.534 75.741L109.463 74.6629C109.8 74.2691 110.128 73.9129 110.419 73.6035C110.766 73.2379 111.075 72.9285 111.347 72.6754C111.656 72.4035 111.928 72.1785 112.163 72.0285C112.416 71.8785 112.622 71.7941 112.772 71.7941C113.044 71.7941 113.184 71.9723 113.184 72.3285C113.184 72.6848 112.922 73.5098 112.406 74.8129C111.431 77.241 110.944 79.0504 110.944 80.2316C110.944 81.1035 111.169 81.7973 111.628 82.3223C112.078 82.8379 112.678 83.1004 113.419 83.1004C115.237 83.1004 117.431 81.7504 119.981 79.0598V77.1566C118.172 79.2848 116.869 80.3535 116.063 80.3535L116.081 80.3254ZM54.9 72.5535C55.65 68.8879 56.4187 66.0473 57.1969 64.0129C57.975 61.9785 58.575 60.9566 58.9781 60.9566C59.1656 60.9566 59.325 61.0785 59.4469 61.3316C59.5687 61.5754 59.625 61.9129 59.625 62.316C59.625 63.7129 59.1938 65.3723 58.3125 67.3129C57.4406 69.2441 56.2969 70.9973 54.9 72.5535ZM65.9531 71.6348C66.6187 70.5191 67.3125 69.966 68.0438 69.966C68.8125 69.966 69.2062 70.5004 69.2062 71.5598C69.2062 73.7066 67.7906 75.1691 64.9594 75.966C64.9594 74.1848 65.2875 72.741 65.9531 71.6348ZM82.3406 77.1191C81.3656 79.0035 80.3156 79.941 79.2188 79.941C78.7687 79.941 78.3937 79.7535 78.1031 79.3879C77.8125 79.0223 77.6625 78.5348 77.6625 77.9348C77.6625 76.3598 78.1594 74.6254 79.1437 72.7504C80.1281 70.8754 81.1781 69.9379 82.2844 69.9379C82.7437 69.9379 83.1187 70.1066 83.3906 70.4629C83.6625 70.8098 83.8031 71.2973 83.8031 71.916C83.8031 73.5098 83.3156 75.2441 82.3406 77.1285V77.1191Z" fill="#010101"/>
<path d="M70.7438 60.8248C70.8844 61.0217 70.95 61.2748 70.95 61.5748C70.95 61.8748 70.8656 62.1467 70.6969 62.3998C70.5281 62.6529 70.2844 62.8592 69.9563 62.9998C69.6375 63.1404 69.2719 63.2154 68.8688 63.2154C68.1938 63.2154 67.6875 63.0748 67.3313 62.7936C66.975 62.5123 66.75 62.0998 66.6562 61.5467L67.5281 61.4061C67.575 61.7529 67.7156 62.0248 67.9313 62.2029C68.1563 62.3904 68.4656 62.4842 68.8688 62.4842C69.2719 62.4842 69.5719 62.3998 69.7687 62.2404C69.9656 62.0811 70.0594 61.8842 70.0594 61.6592C70.0594 61.4623 69.975 61.3029 69.7969 61.1904C69.675 61.1154 69.375 61.0123 68.8969 60.8904C68.25 60.7311 67.8094 60.5904 67.5562 60.4686C67.3031 60.3467 67.1156 60.1873 66.9938 59.9717C66.8719 59.7561 66.7969 59.5311 66.7969 59.2779C66.7969 59.0436 66.8531 58.8373 66.9562 58.6404C67.0594 58.4436 67.2094 58.2842 67.3875 58.1529C67.5281 58.0498 67.7063 57.9654 67.9406 57.8998C68.175 57.8342 68.4281 57.7967 68.7 57.7967C69.1031 57.7967 69.4594 57.8529 69.7687 57.9748C70.0781 58.0873 70.3031 58.2467 70.4531 58.4529C70.6031 58.6498 70.6969 58.9217 70.7531 59.2592L69.8906 59.3717C69.8531 59.1092 69.7406 58.8936 69.5531 58.7436C69.3656 58.5936 69.1031 58.5186 68.7562 58.5186C68.3531 58.5186 68.0625 58.5842 67.8937 58.7154C67.725 58.8467 67.6313 59.0061 67.6313 59.1842C67.6313 59.2967 67.6688 59.3998 67.7344 59.4936C67.8094 59.5873 67.9219 59.6623 68.0719 59.7279C68.1563 59.7561 68.4188 59.8311 68.85 59.9529C69.4688 60.1217 69.9 60.2529 70.1531 60.3561C70.3969 60.4592 70.5937 60.6186 70.7344 60.8154L70.7438 60.8248ZM74.9344 62.1748C74.7 62.3904 74.4188 62.4936 74.0719 62.4936C73.6406 62.4936 73.2938 62.3342 73.0313 62.0248C72.7688 61.7154 72.6281 61.1998 72.6281 60.5061C72.6281 59.8123 72.7688 59.3154 73.0406 59.0061C73.3125 58.6967 73.6781 58.5279 74.1187 58.5279C74.4094 58.5279 74.6625 58.6123 74.8688 58.7904C75.075 58.9686 75.2156 59.2311 75.3 59.5779L76.1531 59.4467C76.05 58.9217 75.825 58.5186 75.4688 58.2373C75.1125 57.9561 74.6531 57.8154 74.0906 57.8154C73.6406 57.8154 73.2375 57.9186 72.8531 58.1342C72.4781 58.3404 72.1875 58.6592 72.0094 59.0811C71.8219 59.5029 71.7281 59.9904 71.7281 60.5529C71.7281 61.4154 71.9437 62.0811 72.375 62.5404C72.8062 62.9998 73.3781 63.2342 74.0812 63.2342C74.6437 63.2342 75.1219 63.0654 75.5156 62.7279C75.9 62.3904 76.1438 61.9217 76.2375 61.3311L75.375 61.2186C75.3094 61.6592 75.1688 61.9779 74.9344 62.1936V62.1748ZM76.9875 63.0936H77.8687V57.9186H76.9875V63.0936ZM76.9875 56.9529H77.8687V55.9404H76.9875V56.9529ZM83.2969 57.9092H82.1625L80.0812 60.0186V55.9404H79.2V63.0842H80.0812V61.0311L80.7 60.4404L82.4156 63.0842H83.5031L81.3187 59.8311L83.2969 57.9092ZM84.1969 56.9529H85.0781V55.9404H84.1969V56.9529ZM84.1969 63.0936H85.0781V57.9186H84.1969V63.0936ZM88.3313 62.3061C88.1719 62.3248 88.0406 62.3436 87.9469 62.3436C87.8156 62.3436 87.7125 62.3248 87.6469 62.2779C87.5812 62.2311 87.525 62.1748 87.4969 62.1092C87.4688 62.0342 87.45 61.8748 87.45 61.6311V58.6029H88.3313V57.9186H87.45V56.1092L86.5781 56.6342V57.9186H85.9313V58.6029H86.5781V61.5842C86.5781 62.1092 86.6156 62.4561 86.6813 62.6154C86.7563 62.7842 86.8781 62.9154 87.0469 63.0092C87.225 63.1123 87.4688 63.1592 87.7875 63.1592C87.9844 63.1592 88.2 63.1311 88.4531 63.0842L88.3219 62.3061H88.3313Z" fill="white"/>
</svg>
