<svg width="24" height="24" viewBox="0 0 24 24" fill="none" xmlns="http://www.w3.org/2000/svg">
<path d="M6 2.75H18C18.2652 2.75 18.5195 2.85543 18.707 3.04297C18.8946 3.2305 19 3.48478 19 3.75V20.75H21.75C21.8163 20.75 21.8799 20.7764 21.9268 20.8232C21.9736 20.8701 22 20.9337 22 21C22 21.0663 21.9736 21.1299 21.9268 21.1768C21.8799 21.2236 21.8163 21.25 21.75 21.25H2.25C2.1837 21.25 2.12013 21.2236 2.07324 21.1768C2.02636 21.1299 2 21.0663 2 21C2 20.9337 2.02636 20.8701 2.07324 20.8232C2.12013 20.7764 2.1837 20.75 2.25 20.75H5V3.75C5 3.48478 5.10543 3.23051 5.29297 3.04297C5.48051 2.85543 5.73478 2.75 6 2.75ZM5.5 20.75H15.5V3.25H5.5V20.75ZM16 20.75H18.5V3.25H16V20.75ZM12.375 11.75C12.5408 11.75 12.7002 11.8154 12.8174 11.9326C12.9346 12.0498 13 12.2092 13 12.375C13 12.4986 12.9632 12.6199 12.8945 12.7227C12.8259 12.8252 12.7283 12.9049 12.6143 12.9521C12.5001 12.9995 12.3742 13.0124 12.2529 12.9883C12.1317 12.9642 12.02 12.9048 11.9326 12.8174C11.8452 12.73 11.7858 12.6183 11.7617 12.4971C11.7376 12.3758 11.7505 12.2499 11.7979 12.1357C11.8451 12.0217 11.9248 11.9241 12.0273 11.8555C12.1301 11.7868 12.2514 11.75 12.375 11.75Z" stroke="#0A0A0A"/>
</svg>
