<svg width="24" height="24" viewBox="0 0 24 24" fill="none" xmlns="http://www.w3.org/2000/svg">
<path d="M20.25 13.25C20.3163 13.25 20.3799 13.2764 20.4268 13.3232C20.4736 13.3701 20.5 13.4337 20.5 13.5V19.5C20.5 19.5663 20.4736 19.6299 20.4268 19.6768C20.3799 19.7236 20.3163 19.75 20.25 19.75H3.75C3.6837 19.75 3.62013 19.7236 3.57324 19.6768C3.52636 19.6299 3.5 19.5663 3.5 19.5V13.5C3.5 13.4337 3.52636 13.3701 3.57324 13.3232C3.62013 13.2764 3.68369 13.25 3.75 13.25C3.81631 13.25 3.87987 13.2764 3.92676 13.3232C3.97364 13.3701 4 13.4337 4 13.5V19.25H20V13.5C20 13.4337 20.0264 13.3701 20.0732 13.3232C20.1201 13.2764 20.1837 13.25 20.25 13.25ZM12 2.75C12.0663 2.75 12.1299 2.77636 12.1768 2.82324C12.2236 2.87012 12.25 2.93369 12.25 3V12.8975L13.1035 12.043L15.5732 9.57324C15.5965 9.54999 15.6239 9.53114 15.6543 9.51855C15.6694 9.5123 15.6852 9.50807 15.7012 9.50488L15.75 9.5C15.7828 9.5 15.8154 9.50601 15.8457 9.51855C15.8761 9.53114 15.9035 9.54999 15.9268 9.57324C15.95 9.59649 15.9689 9.62391 15.9814 9.6543C15.994 9.68464 16 9.71717 16 9.75C16 9.78283 15.994 9.81536 15.9814 9.8457C15.9689 9.87609 15.95 9.90351 15.9268 9.92676L12.1768 13.6768V13.6777C12.1536 13.7008 12.1259 13.7189 12.0957 13.7314C12.0654 13.744 12.0329 13.751 12 13.751C11.9671 13.751 11.9346 13.744 11.9043 13.7314C11.8741 13.7189 11.8464 13.7008 11.8232 13.6777V13.6768L8.07324 9.92676C8.02628 9.8798 8 9.81642 8 9.75C8 9.68358 8.02628 9.6202 8.07324 9.57324C8.1202 9.52628 8.18358 9.5 8.25 9.5C8.31642 9.5 8.3798 9.52628 8.42676 9.57324L10.8965 12.043L11.75 12.8975V3C11.75 2.9337 11.7764 2.87013 11.8232 2.82324C11.8584 2.78804 11.9031 2.76447 11.9512 2.75488L12 2.75Z" stroke="#718096"/>
</svg>
