<svg width="120" height="120" viewBox="0 0 120 120" fill="none" xmlns="http://www.w3.org/2000/svg">
<g clip-path="url(#clip0_352_376)">
<path d="M91.875 0H28.125C12.592 0 0 12.592 0 28.125V91.875C0 107.408 12.592 120 28.125 120H91.875C107.408 120 120 107.408 120 91.875V28.125C120 12.592 107.408 0 91.875 0Z" fill="#049789"/>
<path d="M59.7656 19.2188C37.3795 19.2188 19.2188 37.3795 19.2188 59.7656C19.2188 82.1517 37.3795 100.312 59.7656 100.312C82.1517 100.312 100.312 82.1517 100.312 59.7656C100.312 37.3795 82.1517 19.2188 59.7656 19.2188ZM57.653 92.2683V66.8348H43.5145L63.8283 27.263V52.6964H77.4389L57.653 92.2683Z" fill="white"/>
</g>
<defs>
<clipPath id="clip0_352_376">
<rect width="120" height="120" fill="white"/>
</clipPath>
</defs>
</svg>
