<svg width="115" height="115" viewBox="0 0 115 115" fill="none" xmlns="http://www.w3.org/2000/svg">
<path d="M44 14H59V44H44C40.0218 44 36.2064 42.4196 33.3934 39.6066C30.5804 36.7936 29 32.9782 29 29C29 25.0218 30.5804 21.2064 33.3934 18.3934C36.2064 15.5804 40.0218 14 44 14Z" fill="#F4511E"/>
<path d="M74 44H59V14H74C77.9782 14 81.7936 15.5804 84.6066 18.3934C87.4196 21.2064 89 25.0218 89 29C89 32.9782 87.4196 36.7936 84.6066 39.6066C81.7936 42.4196 77.9782 44 74 44Z" fill="#FF8A65"/>
<path d="M59 59C59 67.2843 65.7157 74 74 74C82.2843 74 89 67.2843 89 59C89 50.7157 82.2843 44 74 44C65.7157 44 59 50.7157 59 59Z" fill="#29B6F6"/>
<path d="M44 44H59V74H44C40.0218 74 36.2064 72.4196 33.3934 69.6066C30.5804 66.7936 29 62.9782 29 59C29 55.0218 30.5804 51.2064 33.3934 48.3934C36.2064 45.5804 40.0218 44 44 44Z" fill="#7C4DFF"/>
<path d="M44 74H59V89C59 92.9782 57.4196 96.7936 54.6066 99.6066C51.7936 102.42 47.9782 104 44 104C40.0218 104 36.2064 102.42 33.3934 99.6066C30.5804 96.7936 29 92.9782 29 89C29 85.0218 30.5804 81.2064 33.3934 78.3934C36.2064 75.5804 40.0218 74 44 74Z" fill="#00E676"/>
</svg>
