<svg width="24" height="24" viewBox="0 0 24 24" fill="none" xmlns="http://www.w3.org/2000/svg">
<path d="M5.25 2.75H14.25C14.2827 2.74997 14.3155 2.75614 14.3457 2.76855C14.376 2.78107 14.4036 2.80013 14.4268 2.82324L19.6768 8.07227C19.7 8.0955 19.7189 8.12395 19.7314 8.1543C19.7439 8.18451 19.75 8.21734 19.75 8.25V20.25C19.75 20.5152 19.6446 20.7695 19.457 20.957C19.2695 21.1446 19.0152 21.25 18.75 21.25H5.25C4.98478 21.25 4.7305 21.1446 4.54297 20.957C4.35543 20.7695 4.25 20.5152 4.25 20.25V3.75C4.25 3.48478 4.35543 3.2305 4.54297 3.04297C4.73051 2.85543 4.98478 2.75 5.25 2.75ZM4.75 20.75H19.25V8.5H14.25C14.1837 8.5 14.1201 8.47364 14.0732 8.42676C14.0264 8.37988 14 8.31631 14 8.25V3.25H4.75V20.75ZM9.75 11.749C9.78285 11.749 9.81535 11.756 9.8457 11.7686C9.87592 11.7811 9.9036 11.7992 9.92676 11.8223L9.92773 11.8232C9.95084 11.8464 9.96892 11.8741 9.98145 11.9043C9.99403 11.9346 10.001 11.9671 10.001 12C10.001 12.0329 9.99403 12.0654 9.98145 12.0957C9.96892 12.1259 9.95084 12.1536 9.92773 12.1768H9.92676L8.20703 13.8965L7.85254 14.25L8.20703 14.6035L9.92676 16.3232C9.95001 16.3465 9.96886 16.3739 9.98145 16.4043C9.99399 16.4346 10 16.4672 10 16.5L9.99512 16.5488C9.99193 16.5648 9.9877 16.5806 9.98145 16.5957C9.96886 16.6261 9.95001 16.6535 9.92676 16.6768C9.90351 16.7 9.87609 16.7189 9.8457 16.7314C9.81536 16.744 9.78283 16.75 9.75 16.75C9.71717 16.75 9.68464 16.744 9.6543 16.7314C9.62391 16.7189 9.59649 16.7 9.57324 16.6768L7.32324 14.4268H7.32227C7.29916 14.4036 7.28108 14.3759 7.26855 14.3457C7.25597 14.3154 7.24902 14.2829 7.24902 14.25C7.24902 14.2171 7.25597 14.1846 7.26855 14.1543C7.28108 14.1241 7.29916 14.0964 7.32227 14.0732H7.32324L9.57324 11.8232V11.8223C9.5964 11.7992 9.62408 11.7811 9.6543 11.7686C9.68465 11.756 9.71715 11.749 9.75 11.749ZM14.25 11.75C14.3164 11.75 14.3798 11.7763 14.4268 11.8232L16.6768 14.0732H16.6777C16.7008 14.0964 16.7189 14.1241 16.7314 14.1543C16.744 14.1846 16.751 14.2171 16.751 14.25C16.751 14.2829 16.744 14.3154 16.7314 14.3457C16.7189 14.3759 16.7008 14.4036 16.6777 14.4268H16.6768L14.4268 16.6768C14.3798 16.7237 14.3164 16.75 14.25 16.75C14.1836 16.75 14.1202 16.7237 14.0732 16.6768C14.0263 16.6298 14 16.5664 14 16.5C14 16.4336 14.0263 16.3702 14.0732 16.3232L15.793 14.6035L16.1475 14.25L15.793 13.8965L14.0732 12.1768C14.0263 12.1298 14 12.0664 14 12C14 11.9336 14.0263 11.8702 14.0732 11.8232C14.1202 11.7763 14.1836 11.75 14.25 11.75ZM14.5 8H18.8965L14.5 3.60352V8Z" stroke="black"/>
</svg>
