<svg width="115" height="115" viewBox="0 0 115 115" fill="none" xmlns="http://www.w3.org/2000/svg">
<g clip-path="url(#clip0_350_334)">
<path d="M52.6317 66.2975C51.9975 66.2974 51.3892 66.0458 50.9402 65.5979L47.3704 62.0377C47.1413 61.817 46.9584 61.5529 46.8325 61.2608C46.7065 60.9687 46.64 60.6544 46.6368 60.3363C46.6336 60.0182 46.6937 59.7026 46.8138 59.408C46.9338 59.1134 47.1114 58.8457 47.336 58.6204C47.5606 58.3952 47.8278 58.2169 48.1221 58.096C48.4164 57.9752 48.7317 57.9141 49.0498 57.9164C49.368 57.9187 49.6824 57.9843 49.9749 58.1095C50.2674 58.2346 50.532 58.4167 50.7533 58.6452L52.6317 60.5187L58.2906 54.8646C58.7399 54.4147 59.3494 54.1617 59.9852 54.1613C60.6209 54.1608 61.2309 54.4129 61.6807 54.8622C62.1306 55.3114 62.3836 55.921 62.384 56.5567C62.3845 57.1925 62.1324 57.8024 61.6831 58.2523L54.3279 65.5979C53.8766 66.0452 53.2671 66.2965 52.6317 66.2975ZM97.4481 65.5931L104.799 58.2523C105.235 57.8004 105.476 57.1952 105.471 56.5671C105.466 55.9389 105.214 55.338 104.769 54.8938C104.325 54.4496 103.724 54.1976 103.096 54.1921C102.468 54.1867 101.863 54.4282 101.411 54.8646L95.7519 60.5187L93.8735 58.6452C93.6522 58.4167 93.3876 58.2346 93.0951 58.1095C92.8026 57.9843 92.4882 57.9187 92.1701 57.9164C91.852 57.9141 91.5366 57.9752 91.2423 58.096C90.9481 58.2169 90.6808 58.3952 90.4562 58.6204C90.2316 58.8457 90.0541 59.1134 89.934 59.408C89.814 59.7026 89.7538 60.0182 89.757 60.3363C89.7602 60.6544 89.8267 60.9687 89.9527 61.2608C90.0786 61.5529 90.2615 61.817 90.4906 62.0377L94.0652 65.5979C94.2869 65.821 94.5507 65.998 94.8411 66.1186C95.1316 66.2392 95.4431 66.301 95.7577 66.3006C96.0722 66.3001 96.3835 66.2374 96.6737 66.116C96.9638 65.9945 97.227 65.8168 97.4481 65.5931ZM21.6919 35.7075L33.9442 28.1127C34.6359 27.6847 35.2073 27.0876 35.6045 26.3777C36.0017 25.6678 36.2116 24.8684 36.2145 24.055C36.2174 23.2415 36.0131 22.4407 35.6209 21.728C35.2288 21.0153 34.6616 20.4142 33.9729 19.9812L21.7206 12.2667C20.9957 11.81 20.1617 11.5561 19.3053 11.5313C18.4489 11.5065 17.6016 11.7118 16.8515 12.1257C16.1014 12.5397 15.476 13.1472 15.0405 13.8849C14.6049 14.6227 14.3751 15.4637 14.375 16.3204V31.6346C14.3764 32.4879 14.6055 33.3255 15.0385 34.0607C15.4716 34.7961 16.093 35.4025 16.8386 35.8175C17.5842 36.2326 18.4271 36.4412 19.2802 36.4219C20.1333 36.4025 20.9658 36.1559 21.6919 35.7075ZM31.419 24.035L19.1667 31.6346V16.3204L31.419 24.035ZM115 59.8958C115 69.1437 107.477 76.6667 98.2292 76.6667C94.2006 76.659 90.3091 75.2026 87.2653 72.5635C84.2215 69.9243 82.2285 66.2785 81.65 62.2917H71.6833C71.1049 66.2785 69.1118 69.9243 66.068 72.5635C63.0242 75.2026 59.1328 76.659 55.1042 76.6667C51.0753 76.66 47.1833 75.2039 44.1393 72.5646C41.0953 69.9253 39.1025 66.2789 38.525 62.2917H35.8512C31.1937 62.2917 26.9867 60.3798 23.9583 57.2987V81.4583C23.9583 89.3838 30.4079 95.8333 38.3333 95.8333H38.525C39.6942 87.721 46.6708 81.4583 55.1042 81.4583C64.3521 81.4583 71.875 88.9812 71.875 98.2292C71.875 107.477 64.3521 115 55.1042 115C51.0753 114.993 47.1833 113.537 44.1393 110.898C41.0953 108.259 39.1025 104.612 38.525 100.625H38.3333C27.7629 100.625 19.1667 92.0287 19.1667 81.4583V47.4327C13.7592 46.3216 8.90028 43.38 5.40888 39.1039C1.91748 34.8278 0.00717385 29.4787 0 23.9583C0 10.7477 10.7477 0 23.9583 0C37.169 0 47.9167 10.7477 47.9167 23.9583C47.9082 30.2693 45.4125 36.3225 40.9707 40.8056C36.5288 45.2887 30.4989 47.8403 24.1883 47.9071C24.721 50.6092 26.1749 53.0427 28.3019 54.7922C30.4289 56.5417 33.0972 57.4987 35.8512 57.5H38.525C39.6942 49.3877 46.6708 43.125 55.1042 43.125C59.133 43.1317 63.025 44.5877 66.069 47.227C69.113 49.8663 71.1058 53.5127 71.6833 57.5H81.65C82.2285 53.5131 84.2215 49.8673 87.2653 47.2282C90.3091 44.5891 94.2006 43.1327 98.2292 43.125C107.477 43.125 115 50.6479 115 59.8958ZM43.125 98.2292C43.125 104.832 48.5012 110.208 55.1042 110.208C61.7071 110.208 67.0833 104.832 67.0833 98.2292C67.0833 91.6262 61.7071 86.25 55.1042 86.25C48.5012 86.25 43.125 91.6262 43.125 98.2292ZM23.9583 43.125C34.5287 43.125 43.125 34.5287 43.125 23.9583C43.125 13.3879 34.5287 4.79167 23.9583 4.79167C13.3879 4.79167 4.79167 13.3879 4.79167 23.9583C4.79167 34.5287 13.3879 43.125 23.9583 43.125ZM67.0833 59.8958C67.0833 53.2929 61.7071 47.9167 55.1042 47.9167C48.5012 47.9167 43.125 53.2929 43.125 59.8958C43.125 66.4987 48.5012 71.875 55.1042 71.875C61.7071 71.875 67.0833 66.4987 67.0833 59.8958ZM110.208 59.8958C110.208 53.2929 104.832 47.9167 98.2292 47.9167C91.6262 47.9167 86.25 53.2929 86.25 59.8958C86.25 66.4987 91.6262 71.875 98.2292 71.875C104.832 71.875 110.208 66.4987 110.208 59.8958ZM47.9167 98.2292C47.9167 98.8646 48.1691 99.474 48.6184 99.9233C49.0677 100.373 49.6771 100.625 50.3125 100.625C50.9479 100.625 51.5573 100.373 52.0066 99.9233C52.4559 99.474 52.7083 98.8646 52.7083 98.2292C52.7083 97.5938 52.4559 96.9844 52.0066 96.535C51.5573 96.0857 50.9479 95.8333 50.3125 95.8333C49.6771 95.8333 49.0677 96.0857 48.6184 96.535C48.1691 96.9844 47.9167 97.5938 47.9167 98.2292ZM57.5 98.2292C57.5 98.8646 57.7524 99.474 58.2017 99.9233C58.651 100.373 59.2604 100.625 59.8958 100.625C60.5312 100.625 61.1406 100.373 61.5899 99.9233C62.0392 99.474 62.2917 98.8646 62.2917 98.2292C62.2917 97.5938 62.0392 96.9844 61.5899 96.535C61.1406 96.0857 60.5312 95.8333 59.8958 95.8333C59.2604 95.8333 58.651 96.0857 58.2017 96.535C57.7524 96.9844 57.5 97.5938 57.5 98.2292ZM115 98.2292C115 107.477 107.477 115 98.2292 115C94.1991 114.992 90.3065 113.534 87.2625 110.893C84.2185 108.252 82.2264 104.604 81.65 100.615C81.6165 100.62 81.5877 100.639 81.5494 100.639L79.1248 100.721H79.0433C78.4254 100.705 77.8376 100.451 77.4027 100.012C76.9678 99.5725 76.7194 98.9822 76.7095 98.3642C76.6996 97.7461 76.9289 97.1482 77.3496 96.6953C77.7702 96.2424 78.3496 95.9696 78.9667 95.934L81.3913 95.8525C81.4775 95.8429 81.559 95.8812 81.6404 95.886C82.2076 91.8879 84.197 88.2283 87.244 85.5783C90.2909 82.9283 94.1911 81.4656 98.2292 81.4583C107.477 81.4583 115 88.9812 115 98.2292ZM110.208 98.2292C110.208 91.6262 104.832 86.25 98.2292 86.25C91.6262 86.25 86.25 91.6262 86.25 98.2292C86.25 104.832 91.6262 110.208 98.2292 110.208C104.832 110.208 110.208 104.832 110.208 98.2292Z" fill="#2088FF"/>
</g>
<defs>
<clipPath id="clip0_350_334">
<rect width="115" height="115" fill="white"/>
</clipPath>
</defs>
</svg>
