<svg width="120" height="60" viewBox="0 0 120 60" fill="none" xmlns="http://www.w3.org/2000/svg">
<path fill-rule="evenodd" clip-rule="evenodd" d="M24.8946 44.7242C19.1366 44.7242 16.2794 40.6483 15.1587 36.3902C16.4092 43.3175 23.1628 50.0659 44.4744 53.0627C64.6132 55.9152 77.717 48.7598 82.1506 45.432C82.1506 45.432 85.1405 43.9034 83.35 46.2617C83.35 46.2617 70.6574 59.8245 45.8263 59.9989C20.947 60.1431 1.21554 45.6154 1.31596 30.8775C1.19754 16.201 20.9479 1.64195 45.8263 1.76048C70.7057 1.90026 83.35 15.4932 83.35 15.4932C85.1452 17.847 82.1506 16.3318 82.1506 16.3318C77.7284 13.0119 64.6654 6.46925 44.4744 8.70119C24.6426 10.9152 18.1665 18.7393 15.9724 23.9625C15.1473 25.9898 14.7693 27.9019 14.6774 29.8241C15.2136 24.7966 17.9117 18.9037 24.8766 18.9037C32.7775 18.9037 35.1752 26.5343 35.1752 31.7586C35.1752 37.0444 32.7623 44.675 24.8766 44.675L24.8946 44.7242ZM104.942 39.6487H115.444V44.0779H100.505V19.6003H104.919V39.6185L104.942 39.6487ZM88.73 30.8953H97.5489V44.1081H94.6073L94.1668 41.0375C93.049 42.5403 91.428 44.7544 87.5913 44.7544C82.503 44.7544 77.9027 40.5309 77.9027 31.9565C77.9027 25.2652 81.1114 18.9797 88.2535 18.9797C94.7258 18.9797 97.2751 23.854 97.5309 27.2008H93.1162C93.1162 26.2481 91.6175 23.1775 88.4979 23.1775C85.3527 23.1775 82.4291 25.7024 82.4291 31.9834C82.4291 38.6792 85.5743 40.3833 88.5983 40.3833C89.5674 40.3833 92.8055 39.9416 93.6979 34.998H88.784V30.8752L88.73 30.8953ZM24.9988 21.915C20.4098 21.915 17.6568 26.1038 17.6568 31.8961C17.6568 37.6571 20.4212 41.8772 24.9988 41.8772C29.5878 41.8772 32.3408 37.684 32.3408 31.8961C32.3408 26.1351 29.5764 21.915 24.9988 21.915ZM36.8776 28.4364H39.0205V30.6471H39.0727C39.6126 29.7469 40.6453 27.9779 43.0989 27.9779C46.6884 27.9779 49.2681 31.5025 49.2681 35.906C49.2681 39.6498 47.4065 44.5375 42.792 44.5375C40.9825 44.5375 39.7945 43.5501 39.2062 42.4408H39.1541V50.3074H36.8786L36.8776 28.4364ZM42.6394 42.2876C45.1187 42.2876 46.7993 39.7974 46.7993 36.36C46.7993 34.3506 46.1001 30.372 42.5883 30.372C39.3095 30.372 38.9467 34.4691 38.9467 37.0075C38.9467 41.1616 41.1966 42.2753 42.6394 42.2753V42.2876ZM63.0331 39.2081C62.9554 39.9506 62.3339 42.1736 60.6315 43.4841C60.0101 43.9649 59.1328 44.5676 56.9643 44.5676C53.1674 44.5676 50.8994 41.2432 50.8994 36.7011C50.8994 31.8481 52.9125 28.0093 57.3755 28.0093C61.2757 28.0093 63.1856 31.6043 63.1856 37.1685H53.2933C53.2933 40.4359 54.6111 42.3178 57.2201 42.3178C59.363 42.3178 60.6325 40.4046 60.7102 39.2338H62.9819L63.0331 39.2081ZM60.6277 35.0495C60.498 32.6252 59.6179 30.3799 56.8535 30.3799C54.7627 30.3799 53.1124 32.6252 53.1124 35.0495H60.6277ZM75.7702 44.0913H73.4947V34.4602C73.4947 31.7429 72.8211 30.3631 70.6043 30.3631C69.3131 30.3631 67.0404 31.3236 67.0404 35.5694V44.0823H64.7648V28.4107H66.9115V30.6214H66.9636C67.4562 29.7827 68.7181 27.9567 71.042 27.9567C73.1328 27.9567 75.7712 28.9441 75.7712 33.408V44.0924" fill="#B3B3B3"/>
<path fill-rule="evenodd" clip-rule="evenodd" d="M23.877 42.9644C18.0631 42.9644 15.1585 38.8886 14.0368 34.6304C15.3025 41.5532 22.1414 48.3061 43.6605 51.3029C64.003 54.1465 77.2583 47 81.7431 43.6678C81.7431 43.6678 84.7661 42.1437 82.9529 44.5019C82.9529 44.5019 70.156 58.0647 44.9697 58.2391C19.8327 58.3789 -0.15072 43.8556 0.000856599 29.1177C-0.121352 14.4412 19.8327 -0.116706 44.9707 0.000705458C70.1049 0.140481 82.9538 13.7334 82.9538 13.7334C84.767 16.0872 81.744 14.572 81.744 14.572C77.2735 11.2521 64.0513 4.70947 43.6614 6.93694C23.571 9.15546 17.0466 16.9784 14.8525 22.2027C14.082 24.0308 13.6361 26.0255 13.5423 28.0643C14.0823 23.0369 16.8097 17.1395 23.841 17.1395C31.7968 17.1395 34.2429 24.7746 34.2429 30.0558C34.2429 35.3371 31.8044 42.9152 23.841 42.9152L23.877 42.9644ZM104.942 37.8844H115.547V42.3181H100.456V17.8316H104.915V37.8587L104.942 37.8844ZM88.5744 29.1356H97.4966V42.3449H94.5247L94.0804 39.2833C92.9484 40.7817 91.3085 43.0002 87.4007 43.0002C82.2499 43.0002 77.5605 38.7767 77.5605 30.2023C77.5605 23.511 80.8024 17.2256 88.0108 17.2256C94.539 17.2256 97.1366 22.0998 97.3914 25.4466H92.9323C92.9323 24.4939 91.4118 21.4233 88.2618 21.4233C85.0797 21.4233 82.141 23.9482 82.141 30.2292C82.141 36.925 85.3231 38.6291 88.3613 38.6291C89.3418 38.6291 92.613 38.1874 93.513 33.2438H88.547V29.121L88.5744 29.1356ZM23.8249 20.1552C19.1847 20.1552 16.3834 24.344 16.3834 30.1364C16.3834 35.8929 19.1771 40.1175 23.8249 40.1175C28.465 40.1175 31.2701 35.9242 31.2701 30.1364C31.2701 24.3754 28.4763 20.1552 23.8249 20.1552ZM35.8591 26.6722H38.0238V28.8862H38.0759C38.6272 27.986 39.6674 26.217 42.1504 26.217C45.7807 26.217 48.3707 29.7416 48.3707 34.1451C48.3707 37.8844 46.4874 42.7766 41.8425 42.7766C40.0141 42.7766 38.8157 41.7892 38.2123 40.6799H38.1602V48.5465H35.8619V26.7023L35.8591 26.6722ZM41.6692 40.5323C44.1778 40.5323 45.8764 38.0387 45.8764 34.6002C45.8764 32.5863 45.1658 28.6078 41.6171 28.6078C38.3051 28.6078 37.9385 32.7093 37.9385 35.2477C37.9385 39.4018 40.2102 40.5155 41.6692 40.5155V40.5323ZM62.2665 37.4438C62.1888 38.1953 61.5636 40.4093 59.8394 41.7243C59.2141 42.2052 58.3255 42.8079 56.1352 42.8079C52.2937 42.8079 50.0182 39.4834 50.0182 34.9368C50.0182 30.0883 52.0569 26.2484 56.5937 26.2484C60.5347 26.2484 62.456 29.8434 62.456 35.4076H52.4642C52.4642 38.675 53.7924 40.5536 56.4346 40.5536C58.6031 40.5536 59.8801 38.6448 59.9578 37.474H62.2599L62.2665 37.4438ZM59.8318 33.2897C59.6982 30.861 58.8106 28.6201 56.0168 28.6201C53.9004 28.6201 52.2274 30.861 52.2274 33.2897H59.8318ZM75.1268 42.327H72.8285V32.7004C72.8285 29.9787 72.1474 28.6033 69.9012 28.6033C68.5948 28.6033 66.2965 29.5594 66.2965 33.8097V42.3226H63.9945V26.6498H66.1629V28.8605H66.215C66.7105 28.0218 67.9875 26.1958 70.3408 26.1958C72.4534 26.1958 75.1183 27.1832 75.1183 31.6471V42.2745" fill="#5586A4"/>
<path fill-rule="evenodd" clip-rule="evenodd" d="M120 42.0817C119.999 42.4825 119.908 42.8759 119.735 43.2214C119.563 43.5669 119.316 43.852 119.02 44.0475C118.715 44.2521 118.391 44.3494 118.039 44.3494C117.688 44.3494 117.365 44.2487 117.062 44.0475C116.766 43.8496 116.518 43.5636 116.344 43.2178C116.171 42.8742 116.08 42.4814 116.082 42.0817C116.082 41.6836 116.173 41.293 116.344 40.95C116.519 40.6035 116.767 40.3169 117.064 40.1184C117.361 39.9199 117.698 39.8165 118.039 39.8184C118.381 39.8157 118.718 39.9188 119.016 40.1173C119.314 40.3158 119.563 40.6029 119.738 40.95C119.909 41.293 119.999 41.6836 120 42.0817ZM119.623 42.0817C119.623 41.5796 119.468 41.1468 119.157 40.7935C119.012 40.6192 118.838 40.4815 118.647 40.3885C118.455 40.2954 118.25 40.2491 118.043 40.2523C117.835 40.2485 117.629 40.2945 117.437 40.3876C117.245 40.4806 117.071 40.6187 116.925 40.7935C116.776 40.9581 116.658 41.1578 116.578 41.3797C116.498 41.6016 116.459 41.8407 116.463 42.0817C116.459 42.3233 116.498 42.5631 116.578 42.7857C116.658 43.0083 116.776 43.2088 116.925 43.3743C117.234 43.7321 117.607 43.911 118.043 43.911C118.25 43.9161 118.455 43.8711 118.647 43.7788C118.839 43.6864 119.012 43.5488 119.157 43.3743C119.468 43.018 119.623 42.5871 119.623 42.0817ZM117.155 40.8718H118.091C118.354 40.8718 118.55 40.9333 118.668 41.0596C118.786 41.186 118.846 41.3481 118.846 41.5527C118.849 41.7097 118.8 41.8617 118.709 41.9765C118.619 42.0958 118.476 42.1815 118.28 42.2337C118.344 42.2575 118.404 42.2946 118.458 42.3433C118.524 42.4168 118.581 42.5026 118.625 42.5972C118.628 42.6016 118.743 42.8376 118.965 43.2916H118.347L117.943 42.4663C117.877 42.3746 117.806 42.331 117.74 42.331C117.721 42.331 117.703 42.331 117.673 42.34V43.2927H117.151L117.155 40.8718ZM117.677 41.8983H117.903C118.051 41.899 118.157 41.8714 118.221 41.8155C118.317 41.7317 118.314 41.6892 118.314 41.5975C118.314 41.5058 118.284 41.432 118.225 41.3794C118.165 41.3269 118.066 41.2922 117.922 41.2922H117.677V41.8983Z" fill="#999999"/>
<path fill-rule="evenodd" clip-rule="evenodd" d="M120 41.4976C120.002 41.896 119.911 42.2874 119.738 42.6293C119.567 42.9781 119.319 43.2651 119.02 43.459C118.721 43.6604 118.383 43.7657 118.039 43.7642C117.691 43.7642 117.365 43.6591 117.062 43.459C116.759 43.2588 116.522 42.9826 116.344 42.6293C116.171 42.2874 116.08 41.896 116.082 41.4976C116.082 41.0951 116.17 40.7164 116.344 40.3615C116.516 40.0154 116.765 39.7303 117.062 39.5363C117.365 39.335 117.691 39.2344 118.039 39.2344C118.561 39.2344 118.72 39.335 119.02 39.5363C119.319 39.7376 119.563 40.0127 119.738 40.3615C119.912 40.7104 120 41.0951 120 41.4976ZM119.623 41.4976C119.627 41.2562 119.587 41.0167 119.507 40.7947C119.426 40.5726 119.307 40.3732 119.157 40.2095C118.85 39.8472 118.476 39.6682 118.043 39.6682C117.61 39.6682 117.233 39.8472 116.925 40.2095C116.776 40.374 116.658 40.5737 116.578 40.7956C116.498 41.0175 116.459 41.2567 116.463 41.4976C116.459 41.7392 116.498 41.979 116.578 42.2016C116.658 42.4242 116.776 42.6247 116.925 42.7903C117.071 42.9637 117.246 43.1003 117.438 43.192C117.63 43.2836 117.836 43.3284 118.043 43.3237C118.48 43.3237 118.85 43.1492 119.157 42.7903C119.464 42.4313 119.623 42.0042 119.623 41.4976ZM117.155 40.2833H118.091C118.354 40.2833 118.55 40.3492 118.668 40.4711C118.787 40.593 118.846 40.7641 118.846 40.9687C118.847 41.1297 118.801 41.271 118.709 41.3925C118.619 41.5073 118.476 41.593 118.28 41.6497C118.344 41.6735 118.404 41.7106 118.458 41.7593C118.523 41.8326 118.579 41.9166 118.625 42.0086C118.629 42.0146 118.742 42.2476 118.965 42.7075H118.347L117.943 41.8823C117.877 41.7906 117.806 41.7425 117.74 41.7425C117.721 41.7425 117.703 41.747 117.673 41.7515V42.7075H117.151L117.155 40.2833ZM117.677 41.3142H117.903C118.051 41.3142 118.157 41.2852 118.221 41.227C118.25 41.2019 118.273 41.1691 118.29 41.1312C118.306 41.0933 118.314 41.0514 118.314 41.009C118.315 40.9675 118.307 40.9265 118.291 40.8893C118.276 40.8521 118.253 40.8199 118.225 40.7954C118.167 40.738 118.066 40.7089 117.922 40.7082H117.677V41.3142Z" fill="#5586A4"/>
</svg>
