<svg width="36" height="36" viewBox="0 0 36 36" fill="none" xmlns="http://www.w3.org/2000/svg">
<path d="M7.7998 25.6777C7.91838 25.6554 8.04009 25.6682 8.15039 25.7129L8.25586 25.7686L11.7695 28.2783L11.8467 28.334L11.9385 28.3564L17.5977 29.7686C17.7583 29.8088 17.8962 29.9117 17.9814 30.0537C18.0559 30.1779 18.0813 30.3228 18.0605 30.4648L18.0459 30.5254C18.0121 30.6603 17.9348 30.7805 17.8252 30.8662C17.7155 30.952 17.5797 30.9969 17.4404 30.9971C17.3891 30.9969 17.3379 30.9919 17.2881 30.9795H17.2891L11.4287 29.5146L11.4277 29.5137L11.3184 29.4756C11.2832 29.4594 11.2494 29.4397 11.2178 29.417H11.2168L7.52441 26.7793C7.40091 26.6801 7.31936 26.5378 7.29688 26.3809C7.27409 26.2216 7.31366 26.0596 7.40723 25.9287C7.50086 25.7978 7.64167 25.7076 7.7998 25.6777ZM17.8389 7.27051C17.9441 7.24341 18.0549 7.24351 18.1602 7.27051V7.27148L25.5273 9.2207L25.71 9.26855L25.8789 9.18457L29.376 7.43652H29.377C29.5824 7.33371 29.806 7.27222 30.0352 7.25586C30.2644 7.23949 30.4948 7.2682 30.7129 7.34082C30.9308 7.41341 31.1321 7.52831 31.3057 7.67871C31.4792 7.82917 31.6218 8.01237 31.7246 8.21777L34.9521 14.6748H34.9502L35.3125 15.3984C35.5197 15.8132 35.5537 16.2935 35.4072 16.7334C35.2789 17.1185 35.021 17.4454 34.6807 17.6602L34.5303 17.7451L30.8154 19.6025L30.7422 19.6396L30.6846 19.6963L22.9404 27.4424C22.8642 27.5184 22.7698 27.5738 22.666 27.6025C22.5621 27.6312 22.4522 27.6326 22.3477 27.6064H22.3467L13.3477 25.3564C13.2712 25.3372 13.198 25.3035 13.1338 25.2578L5.33203 19.6855L5.2998 19.6631L5.26465 19.6455L1.46777 17.7451C1.26235 17.6423 1.07918 17.4997 0.928711 17.3262C0.7783 17.1526 0.663415 16.9513 0.59082 16.7334C0.5182 16.5153 0.489493 16.2849 0.505859 16.0557C0.522219 15.8266 0.582835 15.6029 0.685547 15.3975L0.686523 15.3965L4.27441 8.21777C4.37721 8.01232 4.51978 7.82921 4.69336 7.67871C4.86703 7.52816 5.06905 7.41344 5.28711 7.34082C5.50514 7.26823 5.73563 7.2395 5.96484 7.25586C6.19397 7.27226 6.41762 7.33372 6.62305 7.43652L10.1211 9.18457L10.2891 9.26855L10.4717 9.2207L17.8389 7.27051ZM17.8721 8.55566L10.8711 10.4111L10.6533 10.4688L10.5527 10.6709L6.61523 18.5459L6.42383 18.9277L6.77148 19.1758L13.6904 24.1172L13.7676 24.1729L13.8594 24.1953L22.0312 26.2373L22.3057 26.3066L27.1855 21.4268L26.75 21.0781L22.8623 17.9551L22.5459 17.7002L22.2324 17.958C19.6388 20.0817 16.3854 20.347 13.6904 18.626H13.6895C13.4685 18.4853 13.2819 18.2966 13.1436 18.0742C13.0052 17.8519 12.9183 17.6011 12.8896 17.3408C12.8611 17.0804 12.8917 16.8165 12.9785 16.5693C13.0654 16.3222 13.2073 16.0974 13.3926 15.9121L13.4121 15.8906L19.7266 9.7627L20.3613 9.14648L19.5059 8.91992L18.1279 8.55566L18 8.52246L17.8721 8.55566ZM20.3574 10.8916L14.2764 16.7979L13.8213 17.2402L14.3574 17.5791C15.3262 18.1913 16.5752 18.5876 17.9297 18.4834C19.2922 18.3785 20.7258 17.7692 22.0557 16.4297C22.1643 16.3202 22.3099 16.2549 22.4639 16.2461C22.6179 16.2373 22.7702 16.2854 22.8906 16.3818L27.7295 20.2578L28.0791 20.5381L28.3955 20.2207L29.3594 19.2539L29.6133 19L29.4521 18.6777L25.626 11.0264L25.4873 10.75H20.5029L20.3574 10.8916ZM5.39258 8.77637L1.80273 15.957L1.5791 16.4043L2.02637 16.6279L4.89941 18.0635L5.3457 18.2861L5.57031 17.8398L9.16602 10.6611L9.38965 10.2139L8.94238 9.99023L6.06348 8.55273L5.61621 8.3291L5.39258 8.77637ZM29.9355 8.55273L27.0586 9.99609L26.6113 10.2197L26.835 10.666L30.4238 17.8379L30.6475 18.2852L31.0938 18.0625L33.9727 16.6279L34.4209 16.4043L34.1973 15.957L30.6064 8.77637L30.3828 8.32812L29.9355 8.55273Z" stroke="#F9F8FE"/>
</svg>
