<svg width="24" height="24" viewBox="0 0 24 24" fill="none" xmlns="http://www.w3.org/2000/svg">
<path d="M3.5 11.248C3.49959 11.1174 3.52521 10.9879 3.5752 10.8672C3.62531 10.7462 3.69907 10.6362 3.79199 10.5439L11.293 3.04297C11.4805 2.85558 11.7349 2.75 12 2.75C12.2651 2.75 12.5195 2.85557 12.707 3.04297L20.208 10.5439C20.3009 10.6362 20.3747 10.7462 20.4248 10.8672C20.4748 10.9879 20.5004 11.1174 20.5 11.248V20.25C20.5 20.3163 20.4736 20.3799 20.4268 20.4268C20.3799 20.4736 20.3163 20.5 20.25 20.5H14.25C14.1837 20.5 14.1201 20.4736 14.0732 20.4268C14.0264 20.3799 14 20.3162 14 20.25V14.5H10V20.25C10 20.3162 9.97357 20.3799 9.92676 20.4268C9.87987 20.4736 9.8163 20.5 9.75 20.5H3.75C3.6837 20.5 3.62012 20.4736 3.57324 20.4268C3.52644 20.3799 3.5 20.3162 3.5 20.25V11.248ZM20 11.043L12 3.04297L4 11.043V20H9.5V14.25C9.50006 14.1838 9.52641 14.1201 9.57324 14.0732C9.62011 14.0264 9.68375 14 9.75 14H14.25C14.3162 14 14.3799 14.0264 14.4268 14.0732C14.4736 14.1201 14.4999 14.1838 14.5 14.25V20H20V11.043Z" stroke="#737373"/>
</svg>
