<svg width="115" height="115" viewBox="0 0 115 115" fill="none" xmlns="http://www.w3.org/2000/svg">
<g clip-path="url(#clip0_1203_744)">
<path d="M20.3945 1.4375H94.6953C105.926 1.4375 115.09 10.5117 115.09 21.832V93.2578C115.09 104.488 106.016 113.652 94.6953 113.652H20.3945C9.07422 113.562 0 104.488 0 93.168V21.832C0 10.5117 9.07422 1.4375 20.3945 1.4375Z" fill="#330000"/>
<path d="M55.6134 68.5508H37.7345L34.1407 79.7812C34.0509 80.2305 33.6915 80.5 33.2423 80.4102H24.2579C23.7188 80.4102 23.629 80.1406 23.7188 79.5117L39.172 35.1289C39.3516 34.6797 39.4415 34.1406 39.6212 33.5117C39.8009 32.5234 39.8907 31.4453 39.8907 30.3672C39.8009 30.0977 40.0704 29.918 40.2501 29.8281H52.6485C53.0079 29.8281 53.1876 30.0078 53.2774 30.1875L70.797 79.5117C70.9766 80.0508 70.797 80.3203 70.3477 80.3203H60.2852C59.9259 80.4102 59.6563 80.1406 59.4766 79.7812L55.6134 68.5508ZM40.5196 58.7578H52.6485C52.379 57.7695 52.0196 56.5117 51.5704 55.3437C51.1212 54.0859 50.672 52.6484 50.3126 51.2109C49.8634 49.6836 49.4141 48.2461 48.9649 46.8086C48.5157 45.2812 48.0665 43.9336 47.7071 42.5859C47.3477 41.2383 46.9884 39.9805 46.629 38.8125H46.5391C46.0899 40.8789 45.5509 42.9453 44.922 45.0117C44.2032 47.3477 43.4845 49.6836 42.6759 52.1094C41.9571 54.5352 41.2384 56.7812 40.5196 58.7578ZM81.4884 38.3633C79.8712 38.4531 78.3438 37.8242 77.2657 36.6562C76.1876 35.4883 75.5587 33.8711 75.6485 32.2539C75.5587 30.6367 76.1876 29.1094 77.3555 28.0313C78.5235 26.9531 80.0509 26.3242 81.5782 26.3242C83.4649 26.3242 84.9024 26.8633 85.9805 28.0313C87.0587 29.1992 87.5977 30.7266 87.5977 32.2539C87.6876 33.8711 87.0587 35.4883 85.8907 36.6562C84.7227 37.8242 83.1055 38.4531 81.4884 38.3633ZM76.0977 79.9609V43.0352C76.0977 42.5859 76.2774 42.4062 76.7266 42.4062H86.2501C86.6993 42.4062 86.879 42.6758 86.879 43.0352V79.9609C86.879 80.5 86.6993 80.7695 86.2501 80.7695H76.8165C76.3673 80.6797 76.0977 80.4102 76.0977 79.9609Z" fill="#FF9A00"/>
</g>
<defs>
<clipPath id="clip0_1203_744">
<rect width="115" height="115" fill="white"/>
</clipPath>
</defs>
</svg>
