<svg width="120" height="120" viewBox="0 0 120 120" fill="none" xmlns="http://www.w3.org/2000/svg">
<g clip-path="url(#clip0_352_327)">
<path d="M38.6971 92.7651C38.6971 92.7651 32.5106 95.4269 43.1001 96.3276C55.9293 97.4104 62.4857 97.2554 76.6237 95.2754C76.6237 95.2754 80.3409 96.9998 85.5313 98.4935C53.8387 108.543 13.8037 97.9112 38.6971 92.7651ZM34.8243 79.6504C34.8243 79.6504 27.8854 83.4509 38.4829 84.2617C52.1873 85.3077 63.0098 85.3934 81.7373 82.7253C81.7373 82.7253 84.3276 84.6682 88.4006 85.7309C50.0816 94.0213 7.40149 86.3846 34.8243 79.6504Z" fill="#5382A1"/>
<path d="M67.4728 57.4043C75.2822 64.0563 65.4211 70.0425 65.4211 70.0425C65.4211 70.0425 85.2497 62.4689 76.1433 52.9848C67.6383 44.1409 61.1156 39.7459 96.4251 24.5947C96.4251 24.5947 41.0011 34.8367 67.4728 57.4043Z" fill="#E76F00"/>
<path d="M109.389 102.466C109.389 102.466 113.968 105.256 104.347 107.416C86.0535 111.516 28.207 112.754 12.1373 107.579C6.36088 105.72 17.1937 103.14 20.601 102.598C24.1546 102.028 26.1857 102.134 26.1857 102.134C19.7615 98.7858 -15.3376 108.709 8.35728 111.55C72.9759 119.304 126.15 108.059 109.389 102.466ZM41.6718 66.0625C41.6718 66.0625 12.2479 71.2336 31.2524 73.111C39.2765 73.9059 55.2726 73.7262 70.1727 72.8023C82.3499 72.0427 94.5773 70.4266 94.5773 70.4266C94.5773 70.4266 90.2835 71.7871 87.1771 73.3565C57.2971 79.171 -0.425686 76.4661 16.192 70.5185C30.2456 65.4923 41.6718 66.0625 41.6718 66.0625ZM94.4559 87.8921C124.831 76.214 110.787 64.9915 100.984 66.5037C98.5813 66.8734 97.5103 67.1938 97.5103 67.1938C97.5103 67.1938 98.4023 66.1603 100.106 65.7129C119.498 60.6684 134.412 80.5905 93.8456 88.4807C93.8456 88.481 94.3157 88.1703 94.4559 87.8921Z" fill="#5382A1"/>
<path d="M76.1433 0.128277C76.1433 0.128277 92.9653 12.5791 60.1884 31.724C33.9051 47.0819 54.195 55.8384 60.1776 65.8432C44.8355 55.6016 33.5761 46.5856 41.13 38.1946C52.2164 25.8766 82.9303 19.905 76.1433 0.128277Z" fill="#E76F00"/>
<path d="M44.6569 119.537C73.8127 120.918 118.584 118.771 119.645 108.563C119.645 108.563 117.607 112.433 95.5491 115.506C70.6641 118.971 39.9722 118.566 21.7683 116.346C21.7688 116.346 25.4944 118.628 44.6569 119.537Z" fill="#5382A1"/>
</g>
<defs>
<clipPath id="clip0_352_327">
<rect width="120" height="120" fill="white"/>
</clipPath>
</defs>
</svg>
