<svg width="120" height="120" viewBox="0 0 120 120" fill="none" xmlns="http://www.w3.org/2000/svg">
<g clip-path="url(#clip0_352_345)">
<path d="M91.875 0H28.125C12.592 0 0 12.592 0 28.125V91.875C0 107.408 12.592 120 28.125 120H91.875C107.408 120 120 107.408 120 91.875V28.125C120 12.592 107.408 0 91.875 0Z" fill="#F0DB4F"/>
<path d="M31.5525 100.28L40.7353 94.7227C42.5072 97.8638 44.1187 100.522 47.9845 100.522C51.69 100.522 54.0262 99.0722 54.0262 93.4341V55.0913H65.3034V93.5935C65.3034 105.273 58.4568 110.59 48.4678 110.59C39.4467 110.59 34.2103 105.918 31.552 100.279M71.4286 99.0718L80.6104 93.7557C83.0278 97.703 86.1693 100.603 91.7268 100.603C96.3998 100.603 99.3792 98.2664 99.3792 95.0443C99.3792 91.178 96.3183 89.8083 91.1629 87.5536L88.3443 86.3447C80.2083 82.8816 74.8111 78.5316 74.8111 69.3488C74.8111 60.8907 81.2554 54.4463 91.3247 54.4463C98.4937 54.4463 103.649 56.9438 107.354 63.4683L98.5739 69.1069C96.6403 65.6433 94.5468 64.2741 91.3247 64.2741C88.0218 64.2741 85.9275 66.3685 85.9275 69.1069C85.9275 72.4899 88.0218 73.8596 92.8546 75.9544L95.6737 77.1624C105.259 81.271 110.656 85.4588 110.656 94.883C110.656 105.033 102.682 110.591 91.9687 110.591C81.4973 110.591 74.7309 105.597 71.4286 99.0718Z" fill="#323330"/>
</g>
<defs>
<clipPath id="clip0_352_345">
<rect width="120" height="120" fill="white"/>
</clipPath>
</defs>
</svg>
