<svg width="115" height="115" viewBox="0 0 115 115" fill="none" xmlns="http://www.w3.org/2000/svg">
<g clip-path="url(#clip0_350_332)">
<path d="M13.7616 115H9.08974C8.96944 114.689 8.85759 114.374 8.75432 114.056C7.72411 110.865 5.90807 106.917 5.43849 103.735C4.7389 99.0199 9.17599 98.7563 12.0222 96.7151C16.4066 93.5526 19.8566 91.8036 24.6099 88.9526C26.0235 88.0949 30.2737 85.9626 30.7481 84.9803C31.7112 83.0253 29.0949 80.2749 28.4002 78.7511C27.322 76.3217 26.747 74.2613 26.5985 71.8751C22.6502 71.2522 19.6266 68.8707 17.7627 66.197C14.7439 61.7647 12.6547 53.5709 15.247 47.337C15.4627 46.8434 16.4641 45.8755 16.6127 45.1184C16.9002 43.6426 16.1095 41.6684 16.0377 40.0968C15.7502 31.9893 17.3985 25.003 22.8658 22.5592C25.0843 13.7426 32.9906 10.8053 40.4656 6.4257C43.2447 4.78695 46.3306 3.73279 49.5218 2.55883C60.8876 -1.64346 78.4012 -0.852838 87.8264 6.3107C91.8322 9.34383 98.2531 15.7503 100.553 20.3934C106.6 32.6361 106.159 53.0965 101.928 67.9938C101.353 70.0111 100.539 72.9388 99.3743 75.3395C98.5693 77.0165 96.0729 80.3707 96.3795 81.8561C96.6862 83.3607 102.082 87.4624 103.241 88.5405C105.321 90.5626 109.279 93.2124 109.585 95.728C109.921 98.397 108.397 102.13 107.621 104.712C106.581 108.167 105.532 111.617 104.487 114.923H13.752L13.7616 115ZM66.9683 98.0376C64.3568 96.6001 60.4468 95.0572 57.0735 94.4103C52.9047 93.6245 53.336 100.103 53.4797 103.965C53.6235 107.046 55.2047 110.271 55.9235 112.322C56.2876 113.266 56.3547 114.286 57.1502 114.473C58.5877 114.799 63.3314 112.911 64.697 112.178C67.572 110.606 69.7954 108.134 72.2391 106.481C72.3158 105.666 72.3158 104.851 72.3829 104.046C70.7497 103.232 68.96 102.779 67.136 102.719C68.6406 102 70.7297 102 72.0954 101.128L72.172 100.203C69.7954 100.06 68.8658 98.9863 67.2797 98.1143L66.9683 98.0376ZM102.685 112.101C103.57 109.343 104.314 106.541 104.913 103.706C105.201 102.331 105.944 99.3074 105.766 98.0711C105.484 95.8717 102.489 94.2426 100.956 92.8674C98.1572 90.3518 96.4035 88.1955 93.4806 85.8284C92.2875 87.6253 89.7431 88.7753 88.7704 90.208C95.7039 86.9065 96.9641 102.786 94.2377 107.889C94.6689 109.466 96.1112 110.046 96.7006 111.411L96.2885 112.207H102.47C102.532 112.207 102.613 112.207 102.681 112.274L102.685 112.101ZM70.8974 112.044C70.6579 111.689 70.4183 111.397 70.1787 111.042L68.7364 111.977H70.8927L70.8974 112.044ZM84.1704 112.044C84.2087 111.042 84.2566 110.108 84.3141 109.178C81.7745 109.317 80.361 106.878 78.5833 106.653C77.0308 106.437 75.7083 108.383 73.6958 107.587C73.2406 108.09 72.8189 108.675 72.3349 109.102C73.0729 109.964 73.7485 110.898 74.3666 111.9H78.2718C78.3389 111.114 78.9187 110.534 79.7093 110.534C80.4999 110.534 81.0702 111.114 81.0702 111.828H84.2327L84.1704 112.044ZM94.3095 112.044C92.8049 109.748 89.7718 107.741 86.2595 109.384L86.1158 111.977H94.3095V112.044ZM53.5324 112.044L53.0341 110.395C51.956 106.945 51.3091 104.358 51.0935 102.345C46.7139 100.256 42.1091 98.1766 38.3764 95.5124C37.6576 95.0093 33.0624 89.0436 32.4827 89.2593C24.1499 92.4984 16.3874 98.1718 9.41557 103.558C10.6422 106.227 11.7156 109.025 12.7218 111.895H53.4749L53.5324 112.044ZM93.1356 101.919C92.9966 99.4655 92.3497 94.4438 90.8356 93.5813C87.6731 91.7126 81.9902 97.3188 79.6231 98.0999C79.8387 98.8186 80.2699 99.3984 80.3418 100.4C81.7074 100.045 83.4324 100.261 84.6447 100.841C83.212 100.984 81.6308 100.984 80.6964 101.627C80.3418 102.561 80.7731 103.927 80.5574 105.287C83.8637 106.231 87.7449 106.739 91.9856 106.878C92.7714 105.791 93.0637 103.788 92.9966 101.694L93.1356 101.919ZM73.5856 100.194C73.3747 101.991 73.806 102.638 74.1606 104.712C80.1981 106.586 79.1152 96.3749 73.5137 100.117L73.5856 100.194ZM41.9749 93.4376C39.8187 95.6274 48.0604 98.6222 50.667 98.7803C50.667 97.3907 51.4576 96.0778 51.3139 95.0907C48.1993 94.5253 44.1168 94.8895 41.9941 93.428L41.9749 93.4376ZM68.6406 94.4678C68.6406 94.6738 68.3483 94.6115 68.3147 94.7745C71.0939 96.9355 73.1735 97.3859 76.9493 97.2182C78.6456 95.9628 80.1597 94.5205 81.947 93.3513C77.8501 93.7059 72.6943 96.2599 68.6549 94.4534L68.6406 94.4678ZM85.0281 9.5307C77.3327 5.18945 64.1843 1.90716 55.9139 6.028C49.3014 9.34383 40.2452 14.8447 37.2312 21.8022C40.1062 28.5201 36.4358 34.6726 36.1483 41.4911C36.062 45.1184 37.8733 48.2953 38.0218 52.234C37.0635 53.8536 34.0687 54.0549 31.9843 53.9399C31.2847 50.4468 30.0677 46.5176 26.4499 46.1295C21.3516 45.5736 17.6093 49.7903 17.3937 54.1938C17.1062 59.3688 21.3852 67.9172 27.3843 67.347C29.7227 67.1265 30.2977 64.7595 32.842 64.7595C34.2077 67.4907 30.7097 68.3532 30.336 70.289C30.2593 70.7922 30.6235 72.7376 30.8343 73.6672C31.9508 78.1905 34.3993 84.0172 36.7999 87.4672C39.8427 91.7797 45.8274 92.5032 52.2722 92.9345C53.4222 90.4188 57.6629 90.6345 60.4468 91.2765C57.1358 89.9828 54.0452 86.7484 51.4624 83.9501C48.5156 80.7109 45.5687 77.1938 45.4202 73.0251C50.9545 80.7109 55.4827 87.4001 65.5452 90.7734C73.1639 93.289 82.0764 89.5563 87.8935 85.4595C90.3372 83.7393 91.7795 81.0032 93.4997 78.5643C99.9685 69.2876 102.987 55.9955 102.345 43.1347C102.058 37.8111 102.058 32.4924 100.256 28.9753C98.392 25.233 92.1341 21.9267 88.3966 25.233C87.6779 21.5722 91.4154 19.3392 95.7997 20.633C92.6372 16.5409 89.3981 11.7301 84.9418 9.20966L85.0281 9.5307ZM65.0708 71.3768C68.0177 78.7751 78.1233 77.9078 86.6572 77.7161C86.2547 78.6457 85.4306 79.8005 84.4291 80.1838C81.6979 81.2955 74.151 82.1388 70.356 80.1263C67.9314 78.8326 66.4077 75.9432 65.0756 74.247C64.4191 73.4228 61.2662 71.3336 65.0181 71.3288L65.0708 71.3768ZM65.8566 67.208C70.1356 69.4313 77.9316 69.6853 83.7343 69.508C84.0506 70.7874 84.0506 72.3495 84.0602 73.8828C76.6331 74.2661 67.8356 72.4261 65.8806 67.1984H65.8566V67.208ZM97.841 64.4001C95.5745 68.7126 92.3545 73.4899 85.6749 73.6384C85.5647 72.2776 85.4593 70.1165 85.6749 69.3067C90.7733 68.8132 93.9502 66.2113 97.8602 64.4336L97.841 64.4001ZM94.7312 61.204C89.8437 64.3665 84.4099 67.7926 76.4079 67.002C74.726 65.5165 74.0839 62.2103 75.737 60.0157C76.6043 61.5155 76.0245 64.2563 78.4683 64.6636C82.9916 65.4543 88.2337 61.8893 91.5495 60.6386C93.562 57.2222 91.3291 55.962 89.537 53.7722C85.7899 49.3159 80.7683 43.7097 80.9024 36.9534C82.407 35.8801 82.5604 38.6113 82.776 39.1097C84.7118 43.7097 89.5993 49.5315 93.1931 53.4847C94.0556 54.4909 95.4931 55.3534 95.6368 55.9955C96.0777 57.8643 94.4197 60.0876 94.6354 61.3143L94.7312 61.204ZM30.336 57.9697C28.8314 57.088 28.4529 53.2259 26.656 53.1301C24.0924 52.9863 24.5572 58.1613 24.5668 61.1801C22.7939 59.5988 22.4824 54.6395 23.781 52.1238C22.3052 51.4051 21.6487 52.9097 20.8197 53.4847C21.8739 45.8659 32.0322 49.9676 30.3552 58.0847L30.336 57.9697ZM22.5831 28.7261C19.3008 32.3486 19.9956 39.1432 20.3837 44.002C26.3445 40.2405 34.2699 44.2895 34.1981 50.6815C37.0491 50.6049 35.2666 47.1165 34.7491 44.8597C33.0577 37.538 37.5858 29.5886 34.9456 22.8659C29.8472 23.2684 25.6545 25.3576 22.5927 28.6878L22.5831 28.7261ZM66.2831 34.0592C67.7541 36.7522 68.2189 39.5601 70.3081 41.5822C71.2424 42.4926 73.0585 43.6138 72.1624 46.1343C71.9468 46.714 70.4135 48.0078 69.5222 48.2905C66.2926 49.2249 58.7218 48.4342 61.2758 44.4092C63.9735 44.4811 67.572 46.1342 69.5749 44.1936C68.0704 41.6828 65.3343 36.8624 66.3454 33.9874L66.2831 34.0592ZM95.9818 33.997H96.3077C97.8889 37.1978 99.1827 40.5855 101.118 43.4126C99.8247 46.4218 91.2812 49.1147 91.4249 43.6857C93.2937 42.8711 96.4562 43.518 98.1093 42.4878C97.1845 39.8236 95.8093 37.6674 96.0297 34.0017L95.9818 33.997ZM62.7899 26.2488C55.9762 24.6676 52.5789 29.0855 50.5233 33.6903C48.6833 33.2399 49.4164 30.7434 49.8764 29.4592C51.0983 26.1003 56.0097 21.6345 60.0299 22.243C61.7501 22.5161 64.0933 24.0926 62.7899 26.2392V26.2488ZM46.2012 7.6332C38.7262 9.74154 29.1429 15.1753 26.0762 21.8836C28.4481 21.5482 30.1012 20.3455 32.4491 20.2017C33.3404 20.1251 34.4999 20.5563 35.5206 20.2736C37.5522 19.7753 39.2581 15.1705 40.801 13.5174C42.2864 11.8642 44.0833 11.1407 45.3052 9.63612C46.1054 9.20487 47.2649 9.28154 47.3176 8.05487C46.9679 7.6955 46.5989 7.408 46.206 7.55175L46.2012 7.6332Z" fill="#D24939"/>
</g>
<defs>
<clipPath id="clip0_350_332">
<rect width="115" height="115" fill="white"/>
</clipPath>
</defs>
</svg>
