<svg width="120" height="120" viewBox="0 0 120 120" fill="none" xmlns="http://www.w3.org/2000/svg">
<g clip-path="url(#clip0_350_330)">
<path d="M51.0201 71.7501L51.0551 71.8001L46.0601 83.8651C41.2669 80.7967 37.62 76.2324 35.6851 70.8801L48.5751 68.6951L48.5951 68.7201C48.9865 68.6482 49.39 68.6838 49.7627 68.823C50.1355 68.9623 50.4635 69.2 50.7118 69.5109C50.9602 69.8219 51.1195 70.1943 51.1729 70.5886C51.2263 70.9829 51.1718 71.3844 51.0151 71.7501H51.0201ZM46.8551 61.1051C47.2389 61.0001 47.587 60.7929 47.8623 60.5056C48.1377 60.2184 48.33 59.8619 48.4187 59.474C48.5075 59.0861 48.4894 58.6814 48.3664 58.303C48.2433 57.9246 48.02 57.5867 47.7201 57.3251L47.7301 57.2701L37.9251 48.5001C34.934 53.3689 33.6497 59.0953 34.2751 64.7751L46.8451 61.1501L46.8551 61.1051ZM52.5801 51.2051C52.9018 51.4399 53.2813 51.583 53.678 51.619C54.0746 51.6551 54.4736 51.5828 54.8324 51.4098C55.1912 51.2368 55.4963 50.9697 55.7152 50.6369C55.934 50.3041 56.0584 49.9181 56.0751 49.5201L56.1251 49.4951L56.8751 36.3951C51.1965 37.059 45.901 39.5959 41.8251 43.6051L52.5601 51.2201L52.5801 51.2051ZM56.3801 64.9551L59.9951 66.7001L63.6051 64.9651L64.5051 61.0651L62.0051 57.9501H57.9851L55.4851 61.0651L56.3801 64.9551ZM63.8801 49.4801C63.897 49.8785 64.0219 50.2648 64.2413 50.5977C64.4608 50.9306 64.7666 51.1976 65.1261 51.3701C65.4856 51.5427 65.8852 51.6143 66.2822 51.5773C66.6792 51.5403 67.0587 51.3961 67.3801 51.1601L67.4201 51.1751L78.0901 43.6101C74.0283 39.6324 68.7721 37.0992 63.1301 36.4001L63.8701 49.4751L63.8801 49.4801ZM118.26 79.3301L89.3951 115.235C88.6431 116.165 87.6922 116.915 86.6123 117.429C85.5324 117.943 84.3511 118.208 83.1551 118.205L36.8501 118.22C35.6542 118.221 34.4732 117.954 33.3942 117.438C32.3152 116.922 31.3655 116.171 30.6151 115.24L1.73509 79.3401C0.992005 78.4106 0.468091 77.3255 0.202331 76.1655C-0.0634298 75.0055 -0.0641957 73.8005 0.20009 72.6401L10.5001 27.8651C11.0401 25.5151 12.6251 23.5451 14.8151 22.5001L56.5251 2.56514C57.6062 2.04845 58.7893 1.78027 59.9876 1.78027C61.1859 1.78027 62.3689 2.04845 63.4501 2.56514L105.175 22.4901C107.365 23.5351 108.95 25.5101 109.49 27.8551L119.8 72.6301C120.34 74.9801 119.775 77.4451 118.26 79.3301ZM101.815 69.0451C101.605 68.9951 101.3 68.9151 101.09 68.8751C100.22 68.7101 99.5151 68.7501 98.6951 68.6851C96.9451 68.5001 95.5051 68.3501 94.2201 67.9451C93.6951 67.7451 93.3201 67.1201 93.1401 66.8651L92.1351 66.5701C92.6707 62.6839 92.4928 58.7325 91.6101 54.9101C90.7259 51.0488 89.1396 47.3829 86.9301 44.0951C87.1901 43.8601 87.6801 43.4301 87.8151 43.3001C87.8551 42.8501 87.8201 42.3851 88.2851 41.8901C89.2701 40.9651 90.5051 40.2001 92.0001 39.2801C92.7101 38.8601 93.3651 38.5951 94.0751 38.0701C94.2351 37.9501 94.4551 37.7601 94.6251 37.6251C95.8251 36.6701 96.1001 35.0251 95.2401 33.9451C94.3801 32.8651 92.7101 32.7651 91.5151 33.7201C91.3451 33.8551 91.1151 34.0301 90.9601 34.1601C90.2901 34.7401 89.8751 35.3101 89.3101 35.9101C88.0801 37.1601 87.0601 38.2001 85.9451 38.9551C85.4601 39.2351 84.7501 39.1401 84.4301 39.1201L83.4801 39.7951C78.0112 34.0561 70.645 30.4974 62.7501 29.7801L62.6901 28.6651C62.3651 28.3551 61.9751 28.0901 61.8751 27.4151C61.7651 26.0751 61.9501 24.6301 62.1601 22.8901C62.2751 22.0751 62.4651 21.4001 62.5001 20.5151C62.5051 20.3151 62.4951 20.0201 62.4951 19.8051C62.4951 18.2751 61.3751 17.0301 59.9951 17.0301C58.6201 17.0301 57.5001 18.2751 57.5001 19.8051L57.5051 19.8751C57.5051 20.0801 57.4951 20.3351 57.5051 20.5151C57.5351 21.4001 57.7251 22.0751 57.8401 22.8901C58.0501 24.6301 58.2301 26.0751 58.1201 27.4201C57.9782 27.9184 57.6972 28.3659 57.3101 28.7101L57.2501 29.7651C49.3046 30.4032 41.8802 33.9728 36.4201 39.7801C36.1173 39.5708 35.8173 39.3574 35.5201 39.1401C35.0701 39.2001 34.6201 39.3401 34.0351 38.9951C32.9201 38.2451 31.9001 37.2051 30.6701 35.9551C30.1051 35.3551 29.6951 34.7851 29.0251 34.2101C28.8751 34.0801 28.6401 33.9001 28.4701 33.7701C27.9758 33.3694 27.3658 33.1381 26.7301 33.1101C26.3526 33.0901 25.9756 33.1593 25.6299 33.3122C25.2841 33.4651 24.9793 33.6974 24.7401 33.9901C23.8801 35.0701 24.1551 36.7201 25.3551 37.6751L25.3901 37.7001L25.9101 38.1151C26.6201 38.6401 27.2701 38.9101 27.9801 39.3251C29.4751 40.2501 30.7101 41.0151 31.6951 41.9351C32.0751 42.3451 32.1451 43.0651 32.1951 43.3751L32.9951 44.0901C28.5768 50.7151 26.7606 58.7383 27.8951 66.6201L26.8551 66.9201C26.5801 67.2801 26.1901 67.8401 25.7801 68.0051C24.4951 68.4101 23.0501 68.5551 21.3051 68.7401C20.4851 68.8101 19.7801 68.7701 18.9051 68.9351C18.7201 68.9701 18.4551 69.0351 18.2401 69.0851L18.2201 69.0951L18.1851 69.1051C16.7101 69.4601 15.7651 70.8151 16.0701 72.1451C16.3751 73.4801 17.8151 74.2901 19.2951 73.9701L19.3301 73.9651L19.3801 73.9501L20.0251 73.8051C20.8751 73.5751 21.4951 73.2401 22.2651 72.9451C23.9151 72.3551 25.2851 71.8601 26.6151 71.6651C27.1751 71.6201 27.7651 72.0101 28.0551 72.1701L29.1401 71.9851C31.5839 79.5356 36.7058 85.931 43.5401 89.9651L43.0901 91.0551C43.2551 91.4751 43.4351 92.0501 43.3101 92.4651C42.8251 93.7251 41.9951 95.0501 41.0501 96.5301C40.5951 97.2101 40.1251 97.7401 39.7101 98.5251C39.6101 98.7101 39.4851 99.0001 39.3901 99.1951C38.7501 100.57 39.2201 102.15 40.4551 102.745C41.6951 103.345 43.2351 102.71 43.9051 101.335V101.325C44.0051 101.13 44.1351 100.875 44.2151 100.69C44.5651 99.8801 44.6851 99.1851 44.9351 98.4001C45.5951 96.7401 45.9601 95.0001 46.8701 93.9151C47.1201 93.6151 47.5201 93.5051 47.9451 93.3901L48.5101 92.3651C55.9225 95.2213 64.1279 95.2426 71.5551 92.4251L72.0851 93.3851C72.5151 93.5251 72.9851 93.5951 73.3651 94.1601C74.0451 95.3201 74.5101 96.6951 75.0751 98.3601C75.3251 99.1401 75.4451 99.8351 75.8001 100.645C75.8801 100.83 76.0151 101.095 76.1101 101.29C76.7751 102.67 78.3201 103.3 79.5601 102.7C80.7951 102.11 81.2651 100.525 80.6251 99.1501C80.5251 98.9551 80.4001 98.6701 80.3001 98.4801C79.8851 97.7001 79.4151 97.1751 78.9601 96.4901C78.0101 95.0101 77.2301 93.7851 76.7451 92.5251C76.5451 91.8751 76.7801 91.4751 76.9351 91.0551C76.8451 90.9451 76.6401 90.3351 76.5201 90.0451C83.3794 85.9797 88.5046 79.5341 90.9201 71.9351C91.2401 71.9851 91.8001 72.0851 91.9851 72.1251C92.3601 71.8751 92.7051 71.5551 93.3851 71.6051C94.7151 71.8001 96.0851 72.2951 97.7351 72.8851C98.5051 73.1851 99.1201 73.5251 99.9751 73.7501C100.155 73.8001 100.415 73.8451 100.625 73.8901L100.67 73.9051L100.705 73.9101C102.19 74.2301 103.625 73.4201 103.93 72.0851C104.23 70.7551 103.29 69.4001 101.815 69.0451ZM82.0001 48.5051L72.2501 57.2351V57.2601C71.9489 57.5214 71.7243 57.8597 71.6004 58.2388C71.4766 58.6178 71.4581 59.0234 71.5469 59.4122C71.6358 59.8009 71.8286 60.1582 72.1048 60.4459C72.3811 60.7335 72.7303 60.9406 73.1151 61.0451L73.1301 61.0951L85.7601 64.7351C86.0343 61.9343 85.852 59.1075 85.2201 56.3651C84.5847 53.5848 83.4969 50.9278 82.0001 48.5001V48.5051ZM61.9351 75.1301C61.7421 74.7659 61.45 74.4638 61.0926 74.2585C60.7351 74.0533 60.3269 73.9533 59.9151 73.9701C59.5302 73.9845 59.1558 74.0997 58.8294 74.3041C58.503 74.5086 58.236 74.7951 58.0551 75.1351H58.0451L51.7051 86.5951C57.0951 88.434 62.9418 88.4393 68.3351 86.6101L61.9851 75.1301H61.9351ZM71.3751 68.6651C70.9174 68.5808 70.4447 68.6439 70.0251 68.8451C69.5113 69.0907 69.1126 69.5259 68.9131 70.0593C68.7135 70.5926 68.7286 71.1826 68.9551 71.7051L68.9401 71.7251L73.9901 83.9151C78.8154 80.8346 82.4766 76.2339 84.3951 70.8401L71.3951 68.6401L71.3751 68.6651Z" fill="#326CE5"/>
</g>
<defs>
<clipPath id="clip0_350_330">
<rect width="120" height="120" fill="white"/>
</clipPath>
</defs>
</svg>
