<svg width="120" height="120" viewBox="0 0 120 120" fill="none" xmlns="http://www.w3.org/2000/svg">
<path d="M79.875 22.5C79.5766 22.5 79.2905 22.6185 79.0795 22.8295C78.8685 23.0405 78.75 23.3266 78.75 23.625V44.2388L74.0775 41.5125C73.7889 41.3423 73.46 41.2525 73.125 41.2525C72.79 41.2525 72.4611 41.3423 72.1725 41.5125L60.945 48.06C60.6569 48.2246 60.4177 48.4626 60.2516 48.7498C60.0856 49.0371 59.9988 49.3632 60 49.695V62.805C60 63.48 60.36 64.1025 60.945 64.44L72.1725 70.9875C72.4611 71.1577 72.79 71.2475 73.125 71.2475C73.46 71.2475 73.7889 71.1577 74.0775 70.9875L85.305 64.44C85.5931 64.2754 85.8323 64.0374 85.9984 63.7502C86.1644 63.4629 86.2512 63.1368 86.25 62.805V27.1125C86.2494 26.7854 86.1633 26.4641 86.0002 26.1806C85.837 25.897 85.6025 25.6611 85.32 25.4962L80.4337 22.6537C80.2652 22.5552 80.074 22.5022 79.8788 22.5H79.875ZM43.125 41.2575C42.7904 41.256 42.4616 41.344 42.1725 41.5125L30.945 48.06C30.6569 48.2246 30.4177 48.4626 30.2516 48.7498C30.0856 49.0371 29.9988 49.3632 30 49.695V62.805C30 63.48 30.36 64.1025 30.945 64.44L42.1725 70.9875C42.7612 71.325 43.485 71.325 44.0775 70.9875L55.305 64.44C55.5931 64.2754 55.8323 64.0374 55.9984 63.7502C56.1644 63.4629 56.2512 63.1368 56.25 62.805V49.695C56.2512 49.3632 56.1644 49.0371 55.9984 48.7498C55.8323 48.4626 55.5931 48.2246 55.305 48.06L44.0775 41.5125C43.7884 41.344 43.4596 41.256 43.125 41.2575ZM103.125 41.2575C102.79 41.256 102.462 41.344 102.173 41.5125L90.945 48.06C90.6569 48.2246 90.4177 48.4626 90.2516 48.7498C90.0856 49.0371 89.9988 49.3632 90 49.695V62.805C90 63.48 90.36 64.1025 90.945 64.44L101.835 71.0212C102.123 71.1951 102.453 71.2883 102.789 71.2909C103.126 71.2936 103.457 71.2056 103.747 71.0363L109.103 67.9238C109.228 67.8495 109.333 67.7437 109.405 67.6168C109.478 67.4899 109.516 67.3462 109.516 67.2C109.516 67.0538 109.478 66.9101 109.405 66.7832C109.333 66.6563 109.228 66.5505 109.103 66.4762L97.5 59.64V52.9125L103.125 49.6388L108.75 52.9125V57.6C108.75 58.2262 109.275 58.3237 109.627 58.1138L115.32 54.8025C115.603 54.6376 115.837 54.4017 116 54.1182C116.163 53.8347 116.249 53.5134 116.25 53.1862V49.6988C116.251 49.367 116.164 49.0408 115.998 48.7536C115.832 48.4664 115.593 48.2283 115.305 48.0638L104.077 41.5163C103.788 41.3478 103.46 41.2597 103.125 41.2613V41.2575ZM13.125 41.265C12.7904 41.2635 12.4616 41.3515 12.1725 41.52L0.945 48.06C0.65837 48.2281 0.420481 48.468 0.254773 48.756C0.0890656 49.044 0.00125708 49.3702 0 49.7025L0 66.4387C0 67.2562 0.885 67.7625 1.59 67.3538L6.57 64.455C6.85308 64.2898 7.08792 64.0533 7.2511 63.7691C7.41428 63.4848 7.5001 63.1628 7.5 62.835V52.9237L13.125 49.6425L18.75 52.9237V62.835C18.7506 63.1621 18.8367 63.4834 18.9998 63.7669C19.163 64.0505 19.3975 64.2864 19.68 64.4513L24.66 67.3538C24.8208 67.4475 25.0035 67.4971 25.1896 67.4976C25.3757 67.4981 25.5587 67.4495 25.72 67.3567C25.8813 67.2638 26.0152 67.1301 26.1083 66.9689C26.2014 66.8077 26.2502 66.6249 26.25 66.4387V49.7025C26.2487 49.3702 26.1609 49.044 25.9952 48.756C25.8295 48.468 25.5916 48.2281 25.305 48.06L14.0775 41.52C13.7884 41.3515 13.4596 41.2635 13.125 41.265ZM73.125 49.635L78.75 52.9163V59.5837L73.125 62.865L67.5 59.5837V52.9125L73.125 49.6312V49.635ZM103.125 52.515L99.9112 54.39V58.1325L103.125 60L106.339 58.1325V54.39L103.125 52.515ZM57.7725 67.4925C57.3828 67.4894 56.9991 67.5877 56.6588 67.7775L46.1138 73.875C45.7754 74.0686 45.4943 74.3481 45.2987 74.6852C45.1031 75.0224 45.0001 75.4052 45 75.795V87.9675C45 88.7513 45.4388 89.49 46.1138 89.8875L48.8887 91.47C50.22 92.1263 50.7113 92.1263 51.315 92.1263C53.3025 92.1263 54.435 90.9375 54.435 88.8375V76.8112C54.4371 76.77 54.4306 76.7287 54.416 76.69C54.4014 76.6514 54.3789 76.6162 54.3501 76.5866C54.3212 76.557 54.2865 76.5337 54.2482 76.5182C54.2099 76.5026 54.1688 76.4952 54.1275 76.4963H52.7925C52.709 76.4963 52.6288 76.5294 52.5698 76.5885C52.5107 76.6476 52.4775 76.7277 52.4775 76.8112V88.8375C52.4775 89.7487 51.5137 90.6863 49.9425 89.9025L47.055 88.2375C47.0079 88.2078 46.9689 88.167 46.9414 88.1185C46.9139 88.0701 46.8988 88.0157 46.8975 87.96V75.7875C46.8975 75.6787 46.95 75.5513 47.0588 75.495L57.6038 69.4162C57.6542 69.388 57.711 69.3732 57.7687 69.3732C57.8265 69.3732 57.8833 69.388 57.9338 69.4162L68.49 75.4913C68.5987 75.5513 68.6512 75.66 68.6512 75.7875V87.96C68.6488 88.0179 68.633 88.0744 68.605 88.1252C68.577 88.1759 68.5377 88.2195 68.49 88.2525L57.9338 94.3537C57.8833 94.382 57.8265 94.3968 57.7687 94.3968C57.711 94.3968 57.6542 94.382 57.6038 94.3537L54.9112 92.7487C54.8363 92.7113 54.7238 92.6925 54.6525 92.73C54.1586 93.0457 53.6236 93.2918 53.0625 93.4613C52.8787 93.5175 52.6312 93.63 53.16 93.9225L56.6588 96.0037C57.0008 96.1902 57.383 96.2906 57.7725 96.2962C58.1604 96.2991 58.5412 96.1925 58.8713 95.9888L69.42 89.8875C69.7583 89.6939 70.0395 89.4144 70.2351 89.0773C70.4306 88.7401 70.5337 88.3573 70.5338 87.9675V75.795C70.5299 75.406 70.4253 75.0246 70.2301 74.6881C70.0349 74.3516 69.7558 74.0714 69.42 73.875L58.8713 67.7813C58.5354 67.5939 58.1571 67.4958 57.7725 67.4963V67.4925ZM74.2237 73.11C73.9578 73.1105 73.6946 73.1634 73.4491 73.2656C73.2036 73.3678 72.9806 73.5174 72.793 73.7058C72.6053 73.8941 72.4565 74.1177 72.3552 74.3635C72.2539 74.6094 72.202 74.8728 72.2025 75.1388C72.203 75.4047 72.2559 75.6679 72.3581 75.9134C72.4603 76.1589 72.6099 76.3819 72.7983 76.5695C72.9866 76.7572 73.2102 76.906 73.456 77.0073C73.7019 77.1086 73.9653 77.1605 74.2312 77.16C74.7683 77.159 75.283 76.9447 75.662 76.5642C76.0411 76.1838 76.2535 75.6683 76.2525 75.1312C76.2515 74.5942 76.0372 74.0795 75.6567 73.7005C75.2763 73.3214 74.7608 73.109 74.2237 73.11ZM74.2013 73.4325C75.1538 73.4325 75.9262 74.1825 75.9262 75.1312C75.9195 75.5866 75.7356 76.0215 75.4135 76.3435C75.0915 76.6656 74.6566 76.8495 74.2013 76.8563C73.7484 76.8513 73.316 76.6669 72.9989 76.3435C72.6818 76.0201 72.506 75.5841 72.51 75.1312C72.5085 74.9084 72.5512 74.6874 72.6356 74.4811C72.7199 74.2749 72.8443 74.0873 73.0016 73.9294C73.1588 73.7715 73.3458 73.6462 73.5517 73.5609C73.7576 73.4757 73.9784 73.432 74.2013 73.4325ZM73.4625 73.9837V76.26H73.8938V75.3525H74.2988C74.4638 75.3525 74.5013 75.42 74.5387 75.5475C74.5387 75.5662 74.6062 76.1587 74.625 76.2675H75.0938C75.0337 76.07 74.9972 75.8661 74.985 75.66C74.9325 75.3675 74.9175 75.165 74.6063 75.1462C74.7713 75.09 75.045 75.0037 75.045 74.5837C75.045 73.98 74.52 73.9837 74.2462 73.9837H73.4625ZM73.8938 74.3475H74.2612C74.3737 74.3475 74.5913 74.3475 74.5913 74.655C74.5913 74.7825 74.535 74.9925 74.2388 74.985H73.8938V74.3475ZM60.6 76.2075C57.5887 76.2075 55.8 77.4938 55.8 79.6087C55.8 81.9263 57.5925 82.545 60.4763 82.8338C63.9263 83.1825 64.1963 83.6775 64.1963 84.3525C64.1963 85.5375 63.2437 86.0288 61.0163 86.0288C58.2225 86.0288 57.6113 85.3387 57.4087 83.9512C57.39 83.8012 57.2588 83.6925 57.0938 83.6925H55.7213C55.6799 83.6914 55.6388 83.6989 55.6005 83.7144C55.5622 83.73 55.5276 83.7533 55.4987 83.7828C55.4698 83.8124 55.4474 83.8476 55.4328 83.8863C55.4181 83.925 55.4117 83.9662 55.4137 84.0075C55.4137 85.7775 56.3813 87.8962 60.9975 87.8962C64.3838 87.8962 66.3 86.5837 66.3 84.2812C66.3 82.0013 64.7625 81.3937 61.515 80.955C58.23 80.5162 57.9038 80.295 57.9038 79.5263C57.9038 78.8888 58.1737 78.0525 60.6037 78.0525C62.7712 78.0525 63.5812 78.5288 63.9112 79.9875C63.9512 80.14 64.0462 80.2188 64.1963 80.2237H65.565C65.6575 80.2188 65.7312 80.1887 65.7862 80.1337C65.8462 80.0662 65.8712 79.9887 65.8613 79.9012C65.6437 77.3812 63.9787 76.2075 60.6 76.2075Z" fill="black"/>
</svg>
