<svg width="18" height="17" viewBox="0 0 18 17" fill="none" xmlns="http://www.w3.org/2000/svg">
<g clip-path="url(#clip0_673_669)">
<path d="M7.50015 9.20847C7.82224 9.61515 8.23317 9.95164 8.70506 10.1951C9.17696 10.4386 9.69878 10.5834 10.2351 10.6197C10.7715 10.656 11.3098 10.5829 11.8137 10.4054C12.3175 10.2279 12.775 9.95015 13.1551 9.59097L15.4051 7.46597C16.0882 6.79801 16.4662 5.90337 16.4577 4.97476C16.4491 4.04615 16.0547 3.15785 15.3595 2.5012C14.6642 1.84454 13.7236 1.47207 12.7404 1.464C11.7572 1.45593 10.8099 1.81291 10.1026 2.45805L8.81265 3.6693M10.5001 7.7918C10.1781 7.38513 9.76713 7.04863 9.29524 6.80514C8.82334 6.56164 8.30152 6.41685 7.76516 6.38057C7.2288 6.34429 6.69046 6.41738 6.18664 6.59488C5.68282 6.77237 5.22531 7.05013 4.84515 7.4093L2.59515 9.5343C1.91206 10.2023 1.53408 11.0969 1.54262 12.0255C1.55117 12.9541 1.94555 13.8424 2.64083 14.4991C3.33611 15.1557 4.27666 15.5282 5.2599 15.5363C6.24313 15.5443 7.19039 15.1874 7.89765 14.5422L9.18015 13.331" stroke="#1E1E1E" stroke-width="1.6" stroke-linecap="round" stroke-linejoin="round"/>
</g>
<defs>
<clipPath id="clip0_673_669">
<rect width="18" height="17" fill="white"/>
</clipPath>
</defs>
</svg>
