<svg width="120" height="120" viewBox="0 0 120 120" fill="none" xmlns="http://www.w3.org/2000/svg">
<g clip-path="url(#clip0_352_475)">
<path d="M37.5845 116.383C43.8915 118.401 50.7329 119.598 57.917 119.798C67.2999 120.064 76.6298 118.569 85.1504 115.434C75.2387 112.338 66.2626 107.811 58.6013 102.182C53.6354 108.503 46.2901 113.496 37.5845 116.383Z" fill="#FF9100"/>
<path d="M58.6001 102.184C41.1124 89.3254 30.5037 70.7142 31.4004 50.3016C31.4294 49.6382 31.4735 48.976 31.5251 48.3137C23.7585 46.7128 15.5965 46.7807 7.87381 48.5105C3.20553 55.0118 0.388341 62.4711 0.0372474 70.4608C-0.868378 91.0822 14.8277 109.1 37.5836 116.385C46.2893 113.498 53.6336 108.511 58.6001 102.184Z" fill="#FFC400"/>
<path d="M58.601 102.183C62.667 97.0101 65.1321 90.9453 65.419 84.4113C66.1737 67.2237 51.6405 52.4383 31.5255 48.3125C31.474 48.9747 31.4304 49.6373 31.4013 50.3003C30.5046 70.7134 41.1134 89.3242 58.601 102.183Z" fill="#FF9100"/>
<path d="M63.1694 0C51.7131 7.29689 42.6672 16.9178 37.1941 28.001C33.9872 34.4979 32.0717 41.3519 31.5161 48.3171C51.6311 52.4426 66.1647 67.2283 65.4095 84.4159C65.1227 90.9496 62.65 97.0084 58.5916 102.187C66.3269 107.88 75.3306 112.374 85.1402 115.44C105.034 108.129 119.149 92.3963 119.967 73.7884C120.496 61.7322 114.67 50.987 106.437 41.9173C97.7425 32.3247 63.1689 0 63.1689 0" fill="#DD2C00"/>
</g>
<defs>
<clipPath id="clip0_352_475">
<rect width="120" height="120" fill="white"/>
</clipPath>
</defs>
</svg>
