<svg width="120" height="120" viewBox="0 0 120 120" fill="none" xmlns="http://www.w3.org/2000/svg">
<g clip-path="url(#clip0_352_386)">
<path d="M68.5624 8.3093L68.8259 8.77805C71.9224 14.2312 74.1427 21.7099 75.6033 30.7468C75.9539 32.1487 75.7202 32.928 75.019 33.3949L73.8323 34.2049C71.1495 36.048 69.0206 37.598 66.3729 39.4412L64.8628 40.4899C64.3191 40.8487 64.1691 40.698 63.5906 38.9418L63.5091 38.6924C62.6843 36.1999 62.0665 34.5349 60.9738 33.0487L60.7631 32.7718C57.0823 27.9424 53.5184 29.3443 50.1881 35.1093C46.215 41.9643 44.1701 52.0918 44.2284 64.7118C44.287 77.1756 47.5003 87.4587 52.1161 89.1724C56.089 90.5749 59.4192 86.8355 62.0484 78.8899C62.5744 77.1755 63.0417 75.3062 63.6258 73.1249H52.35C51.123 73.1249 50.831 71.0999 51.24 68.4512L51.4425 67.1793C52.1934 62.5205 53.358 55.8243 54.1144 51.9955L54.2794 51.1712C54.4814 50.2374 54.8916 48.9755 55.6802 48.9755H74.4827C75.3272 41.8412 76.6973 35.0999 78.5248 28.7212C82.7899 13.7643 87.9314 5.97367 94.8841 2.70242C100.844 -0.102577 106.453 1.45555 111.536 10.648C116.151 19.0612 119.014 30.4355 119.774 45.3918C120.767 66.4255 118.488 83.5637 113.055 98.2093C109.199 108.648 104.466 115.192 99.0323 118.152C97.455 118.931 95.8774 119.087 94.3584 119.554C89.0416 119.242 84.1922 115.192 80.1023 105.844C77.2259 99.2124 75.2445 91.0637 74.2598 81.5762C73.5689 85.2939 72.7472 88.8285 71.8059 92.1324C67.5991 106.934 62.1073 116.126 55.1545 118.62C49.4287 120.645 44.1119 117.684 39.4378 108.336C35.1143 99.6112 32.6604 88.0818 32.0175 73.7487C31.2581 56.7655 33.1277 41.4968 36.9839 28.098C41.1323 13.608 46.6242 4.41617 53.3433 1.1443C58.7337 -1.4557 63.8988 0.147423 68.5627 8.3093M96.3562 30.6355L96.1692 30.7468C90.7357 34.0187 87.2302 43.2105 85.9448 57.8562C84.893 70.0087 87.1132 82.3174 91.32 87.303C94.5333 91.0424 97.7468 90.5749 100.843 86.368C105.459 79.9805 107.971 70.0087 108.264 56.6099C108.205 54.5849 108.205 53.0262 108.088 51.468C107.048 36.2174 101.839 27.5155 96.3562 30.6355ZM27.285 59.1024C27.5187 59.1024 27.6356 59.5699 27.6356 60.193L27.5187 63.9324C27.5187 64.5555 27.285 65.023 27.1097 65.023L14.3728 64.8674C14.1391 64.8674 14.0808 64.3999 14.1975 63.9324L15.0155 60.0374C15.1324 59.5699 15.3661 59.1024 15.5998 59.1024H27.285ZM28.5703 44.7687C28.804 44.7687 28.9209 45.2362 28.8626 45.7037L28.395 49.4431C28.3366 50.0662 28.103 50.3774 27.8693 50.3774L0.233663 50.5337C-8.67527e-06 50.5337 -0.0583681 50.2218 0.0583507 49.7543L1.2853 45.548C1.40226 45.0805 1.69429 44.7687 1.92796 44.7687H28.5703ZM31.6085 30.4349C31.8422 30.4349 31.9005 30.9024 31.7838 31.3699L30.7905 35.4205C30.6736 35.8881 30.3816 36.3555 30.2062 36.3555L9.05624 36.1993C8.82234 36.1993 8.76398 35.8881 8.88069 35.4205L10.1076 31.2143C10.2246 30.7468 10.5166 30.4349 10.7503 30.4349H31.6085Z" fill="#00ACD7"/>
</g>
<defs>
<clipPath id="clip0_352_386">
<rect width="120" height="120" fill="white"/>
</clipPath>
</defs>
</svg>
