<svg width="120" height="120" viewBox="0 0 120 120" fill="none" xmlns="http://www.w3.org/2000/svg">
<g clip-path="url(#clip0_352_394)">
<path d="M119.535 71.8576C118.816 69.7444 116.931 68.2726 114.493 67.9194C113.344 67.7531 112.028 67.824 110.47 68.1354C107.755 68.6785 105.741 68.8853 104.271 68.9253C109.819 59.8413 114.331 49.4822 116.928 39.7308C121.128 23.9631 118.884 16.7799 116.261 13.5308C109.321 4.9308 99.1941 0.310802 86.9776 0.169438C80.4605 0.0921655 74.7394 1.33989 71.7549 2.23717C68.9762 1.76171 65.9883 1.49626 62.8533 1.44717C56.9766 1.35626 51.7843 2.59853 47.3476 5.15171C44.8913 4.34626 40.9491 3.2108 36.3966 2.48626C25.6894 0.781711 17.0598 2.10989 10.7476 6.43398C3.10413 11.6694 -0.439151 20.7658 0.216162 33.4703C0.424287 37.504 2.75116 49.7767 6.41491 61.4158C8.52054 68.1058 10.7659 73.6613 13.0885 77.9294C16.3824 83.9817 19.9069 87.5458 23.8637 88.8258C26.0813 89.5422 30.1107 90.044 34.3487 86.6213C34.8858 87.2522 35.6026 87.879 36.5537 88.4613C37.7616 89.1999 39.2387 89.8035 40.7138 90.1613C46.0299 91.4499 51.0094 91.1276 55.2577 89.3213C55.284 90.054 55.3041 90.754 55.321 91.3585C55.3491 92.339 55.3773 93.3004 55.4143 94.1994C55.666 100.279 56.0926 105.005 57.3563 108.313C57.4257 108.494 57.519 108.772 57.6174 109.066C58.2479 110.938 59.3021 114.071 61.9843 116.525C64.7616 119.068 68.1212 119.847 71.198 119.847C72.7412 119.847 74.2135 119.651 75.5049 119.383C80.108 118.426 85.336 116.969 89.1179 111.747C92.6935 106.81 94.4316 99.3754 94.7462 87.6604C94.7868 87.3288 94.8249 87.0125 94.8605 86.7113L94.9355 86.0922L95.7779 86.164L95.9949 86.1781C100.683 86.3854 106.416 85.4213 109.937 83.8354C112.719 82.5835 121.634 78.0194 119.535 71.8576Z" fill="black"/>
<path d="M111.519 73.0556C97.5779 75.8442 96.6193 71.2674 96.6193 71.2674C111.338 50.0888 117.491 23.2056 112.182 16.6261C97.6955 -1.32167 72.6198 7.16651 72.2012 7.38651L72.0666 7.41014C69.3123 6.8556 66.2302 6.5256 62.7657 6.4706C56.4582 6.3706 51.6732 8.07423 48.0423 10.7442C48.0423 10.7442 3.30945 -7.12576 5.39023 33.2188C5.83273 41.8015 18.0765 98.161 32.6799 81.1379C38.0176 74.9129 43.1752 69.6497 43.1752 69.6497C45.7365 71.2997 48.803 72.1415 52.0177 71.8392L52.2676 71.6338C52.1898 72.4065 52.2254 73.1624 52.3674 74.0574C48.6052 78.1333 49.711 78.8488 42.1904 80.3501C34.5802 81.871 39.0507 84.5783 41.9696 85.2865C45.5082 86.1442 53.6945 87.3597 59.2257 79.851L59.0054 80.7079C60.4791 81.8529 61.5141 88.1547 61.3407 93.8679C61.1673 99.5806 61.0515 103.503 62.2126 106.566C63.3746 109.63 64.5319 116.523 74.4188 114.469C82.6796 112.752 86.9607 108.304 87.5565 100.883C87.9788 95.6074 88.9355 96.3874 88.9955 91.6706L89.7629 89.4379C90.6474 82.2865 89.9035 79.9792 94.9927 81.0524L96.2302 81.1579C99.9755 81.3229 104.879 80.5733 107.756 79.2765C113.952 76.4883 117.627 71.8324 111.518 73.0556H111.519Z" fill="#336791"/>
<path d="M50.6605 37.0573C49.4043 36.8877 48.2666 37.0445 47.691 37.4673C47.3676 37.705 47.2672 37.9804 47.2401 38.17C47.1679 38.6722 47.5307 39.2277 47.7538 39.5141C48.3847 40.325 49.3063 40.8822 50.2185 41.005C50.3507 41.0229 50.4822 41.0316 50.6132 41.0313C52.1343 41.0313 53.5176 39.8827 53.6394 39.035C53.7918 37.9732 52.2022 37.265 50.6605 37.0573ZM92.278 37.0909C92.158 36.2586 90.6308 36.0213 89.1815 36.2168C87.734 36.4123 86.3305 37.0459 86.4477 37.88C86.5415 38.5286 87.7494 39.6359 89.1791 39.6359C89.3001 39.6359 89.4219 39.6277 89.5448 39.6113C90.4991 39.4832 91.1994 38.8954 91.5322 38.5568C92.0385 38.0404 92.3319 37.465 92.278 37.0909Z" fill="white"/>
<path d="M116.157 72.7386C115.626 71.1799 113.915 70.6786 111.072 71.2477C102.632 72.9368 99.6098 71.7668 98.6175 71.0581C105.178 61.3672 110.574 49.6527 113.486 38.7231C114.865 33.5458 115.627 28.7377 115.689 24.8186C115.758 20.5172 115.002 17.3563 113.444 15.4254C107.162 7.6413 97.9415 3.46585 86.7806 3.3513C79.1076 3.26767 72.6248 5.17176 71.3681 5.70721C68.7215 5.06903 65.8364 4.67721 62.6953 4.62721C56.9353 4.53676 51.9562 5.87403 47.834 8.59994C46.0434 7.95358 41.4159 6.41312 35.7567 5.52903C25.9729 4.00176 18.1983 5.15903 12.6501 8.9704C6.02997 13.5186 2.97372 21.6486 3.56575 33.134C3.76497 36.9981 6.0356 48.8854 9.61872 60.2695C14.3353 75.2531 19.4625 83.7354 24.8568 85.4804C25.4883 85.6845 26.2162 85.8272 27.0192 85.8272C28.987 85.8272 31.3997 84.9672 33.9098 82.0408C36.9715 78.4793 40.1386 75.0042 43.4072 71.6199C45.5278 72.7236 47.8575 73.3399 50.2401 73.4017C50.2451 73.4624 50.2506 73.5227 50.2565 73.5827C49.8464 74.057 49.4448 74.5381 49.0518 75.0258C47.4009 77.0581 47.0573 77.4813 41.7431 78.5422C40.2314 78.8449 36.2165 79.6472 36.1575 82.3763C36.0937 85.3581 40.9036 86.6104 41.4515 86.7431C43.3612 87.2068 45.2011 87.4354 46.9556 87.4354C51.2226 87.4354 54.9778 86.0754 57.9787 83.444C57.8864 94.074 58.3434 104.549 59.6597 107.74C60.7378 110.353 63.3712 116.738 71.6897 116.737C72.9103 116.737 74.2537 116.599 75.7317 116.292C84.4134 114.488 88.1836 110.767 89.6418 102.564C90.4223 98.1795 91.7615 87.7108 92.3915 82.0954C93.7209 82.4977 95.4323 82.6818 97.2825 82.6813C101.141 82.6813 105.594 81.8863 108.386 80.6295C111.523 79.2168 117.184 75.7504 116.157 72.7386ZM95.4825 34.7931C95.4539 36.4508 95.2186 37.9558 94.9692 39.5268C94.7006 41.2163 94.4231 42.9631 94.3533 45.0836C94.2843 47.1472 94.5501 49.2927 94.807 51.3677C95.3264 55.5586 95.8593 59.8731 93.7964 64.1304C93.4542 63.5413 93.149 62.9328 92.8823 62.3081C92.6259 61.7054 92.069 60.7372 91.2979 59.3972C88.2984 54.1808 81.2742 41.9654 84.87 36.9808C85.9411 35.4972 88.6593 33.9718 95.4825 34.7931ZM87.2118 6.70812C97.2122 6.92221 105.123 10.5499 110.723 17.4899C115.019 22.8131 110.289 47.0345 96.5953 67.9304C96.4576 67.7606 96.3191 67.5913 96.18 67.4227L96.0065 67.2127C99.5451 61.5458 98.8532 55.939 98.2373 50.9681C97.9842 48.9281 97.7451 47.0013 97.8061 45.1913C97.8689 43.2731 98.1304 41.6277 98.3836 40.0368C98.6943 38.0763 99.0108 36.0477 98.9236 33.6563C98.9887 33.4054 99.015 33.109 98.9808 32.7572C98.7581 30.464 96.0581 23.6008 90.555 17.389C87.5447 13.9913 83.1548 10.189 77.1609 7.62449C79.739 7.1063 83.2645 6.62312 87.2118 6.70812ZM31.2534 79.899C28.4878 83.1236 26.5781 82.5054 25.95 82.3027C21.8578 80.979 17.1093 72.5918 12.9229 59.2918C9.30044 47.7836 7.18356 36.2113 7.01575 32.9663C6.487 22.7036 9.05247 15.5513 14.6414 11.7077C23.737 5.45312 38.6911 9.19676 44.7 11.0954C44.6137 11.1781 44.5237 11.2554 44.4384 11.3395C34.5778 20.9958 34.8117 37.494 34.8361 38.5027C34.8351 38.8918 34.8689 39.4427 34.9148 40.2004C35.0845 42.9754 35.4004 48.1399 34.5567 53.9886C33.7729 59.4236 35.5008 64.7431 39.2962 68.5836C39.6856 68.9771 40.095 69.3515 40.5229 69.7054C38.8336 71.4599 35.1618 75.3399 31.2534 79.899ZM41.7904 66.2658C38.7314 63.1704 37.342 58.8649 37.9781 54.4522C38.8687 48.274 38.5401 42.8931 38.3634 40.0022C38.3386 39.5977 38.3165 39.2431 38.3039 38.9636C39.7443 37.7249 46.4198 34.2568 51.1804 35.3145C53.3526 35.7968 54.6764 37.2313 55.2267 39.6986C58.0748 52.4727 55.6036 57.7968 53.6179 62.0754C53.2087 62.9568 52.822 63.7899 52.492 64.6518L52.2361 65.3181C51.5882 67.0027 50.9854 68.569 50.6118 70.0563C47.3597 70.0472 44.1961 68.6999 41.7904 66.2654M42.2897 83.4927C41.34 83.2627 40.4859 82.8631 39.9848 82.5318C40.4034 82.3409 41.1483 82.0808 42.4401 81.8227C48.6918 80.5749 49.6575 79.694 51.7659 77.0981C52.2492 76.5027 52.7972 75.8281 53.5561 75.0063L53.557 75.0054C54.6872 73.7781 55.2042 73.9863 56.1417 74.3636C56.9015 74.6681 57.6417 75.5918 57.9417 76.6081C58.0837 77.0881 58.2431 77.999 57.7214 78.7081C53.317 84.6881 46.8989 84.6113 42.2897 83.4927ZM75.0079 113.016C67.3598 114.605 64.6518 110.821 62.8673 106.495C61.7156 103.703 61.1493 91.109 61.5511 77.2013C61.5562 77.0163 61.529 76.8377 61.4765 76.6695C61.4296 76.3374 61.3582 76.0089 61.2628 75.6868C60.6656 73.6631 59.2101 71.9704 57.464 71.2686C56.7703 70.9899 55.4972 70.4786 53.9672 70.8581C54.2934 69.5545 54.8592 68.0822 55.4728 66.4881L55.7301 65.8177C56.0198 65.0618 56.3836 64.2786 56.7679 63.4495C58.8459 58.9731 61.6917 52.8418 58.6031 38.9904C57.4462 33.8022 53.5828 31.2686 47.7262 31.8572C44.2153 32.2095 41.0029 33.5831 39.4008 34.3708C39.0562 34.5399 38.7412 34.7036 38.4468 34.8627C38.894 29.6354 40.5834 19.8663 46.9031 13.6854C50.8823 9.79449 56.1815 7.87267 62.6381 7.9763C75.36 8.17812 83.5181 14.509 88.1222 19.7849C92.0897 24.3308 94.2379 28.9104 95.0953 31.3804C88.6476 30.7445 84.2625 31.9786 82.0397 35.0604C77.2036 41.764 84.6853 54.7749 88.2811 61.0281C88.9406 62.174 89.5097 63.1645 89.6887 63.5854C90.8597 66.3372 92.3756 68.1745 93.4823 69.5154C93.8217 69.9263 94.1508 70.3249 94.4011 70.6731C92.4483 71.219 88.9406 72.4804 89.2603 78.7854C89.0025 81.949 87.1692 96.7608 86.2378 101.994C85.0083 108.908 82.3847 111.482 75.0079 113.016ZM106.932 77.5913C104.935 78.4899 101.593 79.164 98.4187 79.309C94.9125 79.4681 93.1275 78.9281 92.7075 78.5958C92.5106 74.6668 94.0186 74.2563 95.6147 73.8218C95.8654 73.7536 96.1101 73.6868 96.3464 73.6068C96.4929 73.7228 96.6542 73.8374 96.8301 73.9504C99.6483 75.754 104.675 75.9486 111.771 74.5281L111.849 74.5131C110.892 75.3808 109.254 76.5454 106.932 77.5913Z" fill="white"/>
</g>
<defs>
<clipPath id="clip0_352_394">
<rect width="120" height="120" fill="white"/>
</clipPath>
</defs>
</svg>
