<svg width="120" height="120" viewBox="0 0 120 120" fill="none" xmlns="http://www.w3.org/2000/svg">
<g clip-path="url(#clip0_352_392)">
<path d="M110.333 92.102C103.795 91.9229 98.8042 92.5342 94.5339 94.3323C93.3217 94.8451 91.3885 94.8563 91.1907 96.376C91.8573 97.0754 91.9595 98.1188 92.491 98.9795C93.5092 100.624 95.2304 102.835 96.7651 103.997C98.4423 105.261 100.171 106.615 101.969 107.71C105.17 109.662 108.741 110.776 111.817 112.728C113.634 113.881 115.434 115.331 117.207 116.632C118.083 117.273 118.673 118.272 119.807 118.675V118.493C119.21 117.731 119.056 116.683 118.507 115.889L116.09 113.472C113.727 110.337 110.728 107.584 107.543 105.298C105.001 103.471 99.3104 101.006 98.252 98.0513L98.0654 97.8648C99.8673 97.6595 101.977 97.0079 103.643 96.5607C106.436 95.8135 108.935 96.0076 111.817 95.2604L115.72 94.1476V93.4042C114.263 91.9098 113.223 89.9288 111.634 88.5742C107.47 85.0295 102.929 81.4913 98.2529 78.5401C95.6598 76.9032 92.4554 75.8373 89.7057 74.4498C88.7795 73.9848 87.1567 73.7392 86.5454 72.9629C85.1026 71.1245 84.3151 68.792 83.2023 66.646C80.8698 62.1526 78.5804 57.2495 76.5114 52.5217C75.1014 49.2995 74.1826 46.1204 72.4248 43.231C63.9873 29.3588 54.9057 20.9842 40.8357 12.7548C37.8404 11.0045 34.2367 10.3126 30.4276 9.40791L24.2935 9.0376C23.0448 8.51728 21.7482 6.9901 20.5764 6.24666C15.916 3.3001 3.95917 -3.10491 0.50542 5.3176C-1.67333 10.6313 3.76511 15.8167 5.70948 18.512C7.07542 20.3982 8.82198 22.5179 9.79605 24.6423C10.441 26.041 10.5507 27.4398 11.1001 28.9163C12.4482 32.5567 13.6267 36.5185 15.3742 39.8804C16.2564 41.5829 17.2304 43.3745 18.3479 44.8979C19.0295 45.8317 20.2042 46.246 20.3917 47.6851C19.2414 49.2929 19.1757 51.7867 18.5317 53.8192C15.6273 62.9785 16.726 74.3598 20.9485 81.1351C22.2451 83.2192 25.2995 87.6788 29.4957 85.9688C33.1689 84.4707 32.3485 79.8385 33.3995 75.7482C33.6376 74.822 33.4914 74.1404 33.9564 73.5179V73.7045L37.3032 80.3917C39.7792 84.3798 44.1695 88.547 47.8942 91.3595C49.8245 92.8173 51.3442 95.3363 53.8417 96.1895V96.0029H53.6551C53.1714 95.2482 52.4139 94.937 51.7989 94.3332C50.3448 92.9054 48.7267 91.1326 47.5248 89.4995C44.1376 84.9038 41.1451 79.8713 38.4207 74.6354C37.1167 72.1342 35.9851 69.377 34.8864 66.8317C34.4617 65.8501 34.4692 64.3632 33.586 63.8579C32.3851 65.7217 30.6123 67.231 29.6823 69.4313C28.1992 72.9507 28.0051 77.2463 27.4557 81.6957C27.1295 81.8129 27.2729 81.7323 27.0826 81.8823C24.4932 81.256 23.5857 78.5935 22.622 76.3051C20.1901 70.5263 19.7364 61.2207 21.8785 54.5635C22.4317 52.8423 24.9367 47.4226 23.9223 45.8298C23.4385 44.2445 21.842 43.3248 20.9485 42.1126C19.8423 40.6145 18.7407 38.641 17.9748 36.9085C15.9826 32.4038 15.0564 27.3432 12.9573 22.7879C11.9542 20.6092 10.262 18.4042 8.87073 16.471C7.32855 14.3251 5.60448 12.7426 4.41011 10.1504C3.98542 9.22791 3.41073 7.75135 4.03698 6.80728C4.23855 6.16603 4.52073 5.89885 5.15355 5.69072C6.22979 4.85916 9.23355 5.96916 10.3539 6.43416C13.3351 7.67166 15.8214 8.85103 18.3479 10.5245C19.5564 11.326 20.7835 12.8795 22.2479 13.3117H23.9214C26.536 13.9126 29.4657 13.4945 31.9117 14.2379C36.2326 15.5523 40.1035 17.596 43.6192 19.8151C54.3273 26.5792 63.0873 36.2026 69.0779 47.6907C70.0407 49.5404 70.4589 51.302 71.3082 53.2642C73.0182 57.2195 75.1754 61.2882 76.8779 65.1592C78.5804 69.0151 80.236 72.9123 82.6417 76.1232C83.9054 77.8117 88.7832 78.7163 91.0023 79.6538C92.5585 80.3092 95.1076 80.9945 96.5795 81.8842C99.392 83.5801 102.116 85.6013 104.757 87.4576C106.072 88.3876 110.129 90.4276 110.331 92.1048L110.333 92.102ZM27.2654 21.302C25.9032 21.2767 24.9404 21.4482 23.9223 21.6723V21.8588H24.1051C24.7567 23.192 25.9032 24.0526 26.7085 25.202L28.5648 29.1057L28.7514 28.9229C29.9017 28.1101 30.4285 26.8135 30.421 24.8326C29.9598 24.3451 29.8942 23.7413 29.491 23.1592C28.9642 22.3867 27.9348 21.9507 27.2645 21.3029L27.2654 21.302Z" fill="#00618A"/>
</g>
<defs>
<clipPath id="clip0_352_392">
<rect width="120" height="120" fill="white"/>
</clipPath>
</defs>
</svg>
