<svg width="120" height="120" viewBox="0 0 120 120" fill="none" xmlns="http://www.w3.org/2000/svg">
<path d="M68.9528 9.76407C68.2356 9.76407 67.5528 9.93447 66.9384 10.1393C68.27 11.0273 68.9868 12.1877 69.3624 13.5193C69.3964 13.6901 69.4304 13.8265 69.4648 13.9973C69.4992 14.1681 69.5328 14.3045 69.5328 14.4753C69.6356 16.7629 68.9184 17.0357 68.4408 18.4013C67.6896 20.1425 67.8944 22.0205 68.816 23.5225C68.884 23.6933 68.9868 23.8985 69.1232 24.1029C68.1332 17.5137 73.63 16.5237 74.654 14.4749C74.7224 12.6657 73.2544 11.4709 72.0936 10.6517C70.8988 9.96847 69.8744 9.76407 68.9528 9.76407ZM77.2148 11.2321C77.1124 11.8465 77.1804 11.6761 77.1468 11.9829C77.1124 12.1877 77.1124 12.4609 77.078 12.6657C77.01 12.8705 76.9756 13.0753 76.9076 13.2805L76.7028 13.8949C76.6 14.0997 76.532 14.2705 76.4296 14.5093L76.2248 14.8165C76.1564 14.8849 76.1224 14.9873 76.054 15.0557C75.9172 15.2265 75.7808 15.4313 75.6784 15.5677C75.5076 15.7385 75.4052 15.9093 75.2004 16.0457V16.0797C75.0296 16.2165 74.8932 16.3529 74.7224 16.4897C74.176 16.8993 73.5616 17.2065 72.9812 17.6161C72.8104 17.7529 72.6056 17.8553 72.4692 17.9921C72.2984 18.1281 72.1276 18.2649 71.9912 18.4013L71.5132 18.8793C71.3768 19.0501 71.24 19.2209 71.1376 19.3913C71.0012 19.5621 70.8644 19.7673 70.762 19.9377C70.6596 20.1425 70.5916 20.3137 70.4888 20.5525C70.4208 20.7573 70.3184 20.9277 70.284 21.1669C70.216 21.4057 70.1476 21.6109 70.1136 21.8157C70.0792 21.9181 70.0792 22.0545 70.0452 22.1569C70.0112 22.2593 70.0112 22.3617 69.9772 22.4641C69.9772 22.6689 69.9428 22.9081 69.9428 23.1129C69.9428 23.2837 69.9428 23.4201 69.9768 23.5909C69.9768 23.7957 70.0112 24.0005 70.0448 24.2397C70.0792 24.4445 70.1136 24.6493 70.1816 24.8541L70.3864 25.4685C70.4548 25.6053 70.5232 25.7417 70.5572 25.8445L64.5828 23.5225C63.5584 23.2493 62.5684 22.9765 61.5784 22.7373C61.032 22.6009 60.4856 22.4641 59.9396 22.3617C58.3689 22.0535 56.7856 21.8144 55.194 21.6449C55.126 21.6449 55.126 21.6105 55.0572 21.6105C53.4868 21.4401 51.9504 21.3717 50.414 21.3717C49.2536 21.3717 48.1268 21.4397 47 21.5081C45.4296 21.6105 43.8252 21.8157 42.2544 22.0885C41.8788 22.1569 41.4692 22.2253 41.0936 22.2937C40.2744 22.4641 39.5232 22.6349 38.738 22.8057C38.3624 22.9081 37.9528 23.0105 37.5772 23.1129C37.2016 23.2837 36.826 23.4545 36.4508 23.5909C36.1728 23.7304 35.8879 23.8558 35.5972 23.9665C35.5288 24.0005 35.4948 24.0005 35.4604 24.0345C35.2178 24.1527 34.9787 24.2781 34.7436 24.4105C34.6756 24.4445 34.6072 24.4785 34.5728 24.4785C34.2996 24.6149 33.9928 24.7517 33.7536 24.8881C33.5828 24.9565 33.3776 25.0589 33.2416 25.1613C33.1732 25.2293 33.0708 25.2637 33.0024 25.2981C32.7636 25.4341 32.5244 25.5709 32.3196 25.6733C32.0804 25.8101 31.8756 25.9465 31.7052 26.0493C31.5344 26.1853 31.3292 26.2881 31.1932 26.4245C31.1588 26.4585 31.1248 26.4585 31.1248 26.4925C30.9513 26.5987 30.7909 26.7249 30.6468 26.8685L30.5784 26.9365C30.442 27.0389 30.3052 27.1417 30.2028 27.2441C30.1348 27.2781 30.1004 27.3121 30.032 27.3465C29.8956 27.4489 29.7592 27.5853 29.6564 27.6877C29.6224 27.7557 29.5884 27.7557 29.554 27.7901C29.3836 27.9609 29.2468 28.0633 29.076 28.2341C29.042 28.2341 29.042 28.2681 29.008 28.3021C28.8372 28.4389 28.7008 28.5753 28.53 28.7461C28.496 28.7801 28.496 28.8141 28.462 28.8141C28.3252 28.9509 28.1884 29.0877 28.086 29.2241C28.018 29.2921 27.9496 29.3265 27.9156 29.3949C27.7788 29.5657 27.6424 29.7021 27.4716 29.8729C27.4376 29.9409 27.4036 29.9409 27.3692 30.0093C27.1644 30.2141 26.9936 30.4189 26.7548 30.6237L26.6864 30.6921C26.2768 31.1361 25.8328 31.5801 25.3548 31.9553C24.8768 32.3649 24.3988 32.7749 23.8868 33.1161C23.3748 33.4917 22.8628 33.7989 22.3164 34.1061C21.8044 34.3793 21.258 34.6525 20.6776 34.8913C20.122 35.1319 19.5518 35.3372 18.9704 35.5061C17.878 35.7449 16.7512 36.1889 15.7956 36.2573C15.5904 36.2573 15.3516 36.3253 15.1468 36.3253C14.9076 36.3933 14.7028 36.4277 14.498 36.4961C14.2932 36.5645 14.0884 36.6669 13.8836 36.7349C13.6788 36.8029 13.474 36.9057 13.2692 37.0081C13.0984 37.1449 12.8932 37.2473 12.6888 37.3841C12.518 37.5201 12.3128 37.6569 12.1768 37.8277C12.0056 37.9641 11.8008 38.1349 11.6644 38.3057C11.4936 38.4761 11.3572 38.6469 11.2204 38.8177C11.084 39.0225 10.9476 39.1933 10.8452 39.4321C10.7084 39.6029 10.572 39.8081 10.4692 40.0469C10.3664 40.2857 10.2648 40.4909 10.1964 40.7297C10.1284 40.9345 10.0256 41.1737 9.95719 41.4125C9.88919 41.6173 9.85479 41.8221 9.82079 42.0269C9.82079 42.0609 9.78679 42.0949 9.78679 42.0949C9.71839 42.3341 9.71839 42.6413 9.71839 42.8121C9.68439 42.9829 9.65039 43.1537 9.65039 43.3241C9.65039 43.4265 9.65039 43.5633 9.68439 43.6657C9.71839 43.8365 9.75239 44.0069 9.78679 44.1437C9.85479 44.3145 9.88919 44.4509 9.95719 44.6217V44.6557C10.0256 44.8265 10.128 44.9629 10.2304 45.1337C10.3328 45.3045 10.4352 45.4409 10.572 45.6117C10.7084 45.7481 10.8452 45.8849 11.016 46.0213C11.1864 46.1921 11.3228 46.2945 11.4936 46.4309C12.1084 46.9773 12.2788 47.1481 13.064 47.5917L13.474 47.7965C13.508 47.7965 13.542 47.8309 13.542 47.8309C13.542 47.8989 13.542 47.8989 13.5764 47.9673C13.6104 48.1721 13.6444 48.3769 13.7128 48.5821C13.7811 48.821 13.8493 49.0258 13.9176 49.1965C14.02 49.4525 14.0544 49.5037 14.1224 49.6745C14.1568 49.7425 14.1908 49.7769 14.1908 49.8109C14.2932 50.0157 14.3956 50.1869 14.498 50.3913C14.6348 50.5621 14.7712 50.7673 14.874 50.9377C15.01 51.1085 15.1468 51.2789 15.3176 51.4157C15.488 51.5865 15.6248 51.6889 15.7956 51.8597C15.7956 51.8597 15.8296 51.8937 15.8636 51.8937C16.0344 52.0301 16.1708 52.1669 16.3416 52.2693C16.5124 52.4057 16.7176 52.5081 16.922 52.6105C17.0928 52.7129 17.298 52.8153 17.5368 52.8837C17.7072 52.9517 17.878 53.0201 18.0488 53.0545C18.0828 53.0885 18.1168 53.0885 18.1512 53.1225C18.2536 53.1569 18.39 53.1909 18.4924 53.1909C18.4244 54.5909 18.39 55.9221 18.5948 56.4001C18.834 56.9121 19.9608 55.3417 21.1212 53.4981C20.9508 55.3077 20.8484 57.3901 21.1212 58.0389C21.394 58.6877 22.9652 56.6733 24.3308 54.4201C42.7668 50.1521 59.598 62.8869 61.3732 80.9133C61.032 78.1137 57.5836 76.5433 55.9792 76.9189C55.194 78.8309 53.8624 81.3229 51.7456 82.8593C51.9164 81.1521 51.848 79.3769 51.4724 77.6697C50.8924 80.0597 49.7656 82.3129 48.2632 84.2249C45.8052 84.3957 43.3128 83.2009 42.0152 81.4253C41.9132 81.3573 41.8792 81.1865 41.8108 81.0841C41.7428 80.9133 41.64 80.7081 41.606 80.5377C41.5376 80.3669 41.4692 80.1621 41.4352 79.9913C41.4012 79.8205 41.4012 79.6161 41.4012 79.4113V79.0353C41.4352 78.8649 41.4692 78.6601 41.5376 78.4893C41.606 78.3185 41.64 78.1137 41.7084 77.9429C41.8108 77.7725 41.8788 77.5673 42.0156 77.3969C42.4596 76.1337 42.4596 75.1433 41.64 74.5289C41.4692 74.4265 41.3328 74.3581 41.162 74.2557C41.0596 74.2217 40.9232 74.1877 40.8208 74.1533C40.7524 74.1193 40.684 74.0853 40.6156 74.0853C40.4452 74.0169 40.2404 73.9825 40.0696 73.9485C39.8988 73.8805 39.694 73.8805 39.5232 73.8805C39.3524 73.8461 39.1476 73.8121 38.9432 73.8121C38.8064 73.8121 38.6696 73.8461 38.5672 73.8461C38.3624 73.8461 38.1916 73.8801 37.9872 73.9141C37.8164 73.9485 37.6112 73.9825 37.4408 74.0169C37.27 74.0849 37.0648 74.1193 36.8944 74.1877C36.724 74.2561 36.5532 74.3581 36.3824 74.4265C36.2116 74.4949 36.0752 74.5973 35.9044 74.6997C29.8272 78.6597 33.4464 87.9121 37.6112 90.5753C36.0408 90.8481 34.4704 91.1897 34.0268 91.5313L33.9584 91.5993C35.0773 92.2814 36.254 92.8641 37.4748 93.3405C39.1476 93.8869 40.9228 94.3645 41.674 94.6037V94.6377C43.8252 95.0817 46.01 95.2525 48.2292 95.1157C59.7348 94.2965 69.1916 85.5565 70.8988 73.9825C70.9668 74.2217 71.0012 74.4265 71.0692 74.6657C71.1376 75.1433 71.24 75.6217 71.3084 76.1337V76.1677C71.3764 76.4065 71.3764 76.6457 71.4108 76.8505V76.9529C71.4448 77.1921 71.4788 77.4309 71.4788 77.6357C71.5132 77.9089 71.5472 78.2161 71.5472 78.4893V78.8989C71.5472 79.0357 71.5816 79.1721 71.5816 79.3085C71.5816 79.4793 71.5472 79.6161 71.5472 79.7865V80.1625C71.5472 80.3329 71.5132 80.5037 71.5132 80.6745C71.5132 80.7769 71.5132 80.8793 71.4792 81.0157C71.4792 81.1865 71.4448 81.3913 71.4448 81.5961C71.4108 81.6641 71.4108 81.7669 71.4108 81.8349C71.3768 82.0401 71.3428 82.2109 71.3428 82.4497C71.3428 82.5177 71.3428 82.6205 71.3084 82.6885C71.2744 82.9617 71.2404 83.1665 71.206 83.4397V83.5077C71.138 83.7469 71.1036 83.9861 71.0352 84.2249V84.2929C70.9672 84.5321 70.9328 84.7713 70.8644 85.0101C70.8644 85.0445 70.8304 85.0781 70.8304 85.1125C70.7624 85.3517 70.728 85.5905 70.6596 85.8297V85.8977C70.5916 86.1709 70.4888 86.3757 70.4548 86.6149C70.4208 86.6489 70.4208 86.6829 70.4208 86.6829C70.3528 86.9561 70.25 87.1949 70.1816 87.4685C70.0792 87.7413 70.0112 87.9461 69.9084 88.2193C69.8056 88.4925 69.738 88.7313 69.6356 88.9705C69.5332 89.2437 69.4308 89.4485 69.3284 89.7217H69.294C69.1916 89.9605 69.0892 90.1997 68.9528 90.4385C68.9184 90.5065 68.8844 90.5753 68.8844 90.6093C68.8504 90.6433 68.8504 90.6773 68.8164 90.6773C67.1092 94.0917 64.6164 97.0617 61.51 99.4173C61.3052 99.5541 61.1004 99.6909 60.8956 99.8613C60.8272 99.9297 60.7588 99.9297 60.7248 99.9981C60.5446 100.143 60.3501 100.269 60.1444 100.374L60.2124 100.544H60.2468C60.6224 100.476 60.9636 100.442 61.3392 100.374H61.3732C62.0564 100.271 62.7392 100.134 63.3876 99.9977C63.5584 99.9637 63.7636 99.9297 63.968 99.8617C64.1048 99.8273 64.2072 99.7933 64.344 99.7933C64.5144 99.7589 64.7192 99.7249 64.89 99.6909C65.0608 99.6225 65.1972 99.6225 65.368 99.5541C67.9624 98.9397 70.4888 98.0861 72.9128 97.0621C68.782 102.695 63.2512 107.27 56.7644 110.24C59.7683 110.036 62.743 109.521 65.6408 108.704C76.1224 105.597 84.9304 98.5641 90.2224 89.0729C89.164 95.0817 86.7744 100.817 83.2236 105.802C85.75 104.129 88.0716 102.217 90.154 100.032C95.992 93.9549 99.816 86.2049 101.113 77.9089C102.001 82.0057 102.274 86.2733 101.864 90.4385C120.642 64.2525 103.435 37.0765 96.2312 29.9409C96.1972 29.8729 96.1632 29.8729 96.1632 29.8045C96.1288 29.8385 96.1288 29.8385 96.1288 29.8725C96.1288 29.8385 96.1288 29.8385 96.0944 29.8045C96.0944 30.1117 96.0604 30.4189 96.0264 30.7261C95.9584 31.3409 95.8556 31.8869 95.7532 32.4673C95.6168 33.0477 95.48 33.6281 95.3092 34.1745C95.1384 34.7209 94.934 35.3013 94.6948 35.8473C94.456 36.3593 94.2168 36.9057 93.9096 37.4177C93.6224 37.9194 93.3148 38.4091 92.9876 38.8857C92.6464 39.3641 92.2708 39.8417 91.9296 40.2857C91.5536 40.7637 91.11 41.1737 90.7004 41.5829C90.4272 41.8221 90.2224 42.0269 89.9492 42.2317C89.7444 42.4025 89.5736 42.5733 89.3348 42.7437C88.8568 43.1197 88.4128 43.4609 87.8668 43.7677C87.3888 44.0757 86.8428 44.3825 86.3304 44.6557C85.784 44.9289 85.238 45.1337 84.6916 45.3725C84.1452 45.5777 83.5648 45.7485 82.9844 45.9189C82.404 46.0893 81.8236 46.1921 81.2432 46.2945C80.6555 46.3942 80.0629 46.4626 79.468 46.4993C79.0584 46.5333 78.6488 46.5673 78.2048 46.5673C77.5904 46.5673 77.01 46.4993 76.4296 46.4653C75.8148 46.3969 75.2344 46.3285 74.654 46.1921C74.0396 46.0897 73.4932 45.9189 72.9128 45.7481H72.8788C73.4592 45.6801 74.0396 45.6457 74.586 45.5433C75.2004 45.4409 75.7468 45.3045 76.3272 45.1677C76.9072 44.9973 77.488 44.8265 78.034 44.6217C78.6144 44.4169 79.1608 44.1437 79.6728 43.9045C80.2192 43.6317 80.6968 43.3585 81.2432 43.0513C81.7212 42.7097 82.2336 42.3685 82.7112 42.0269C83.1892 41.6513 83.6332 41.2757 84.0432 40.8661C84.4868 40.4905 84.8624 40.0469 85.272 39.6029C85.6476 39.1249 86.0232 38.6809 86.3644 38.2029C86.4324 38.1349 86.4668 38.0325 86.5352 37.9301C86.8053 37.521 87.056 37.0995 87.2864 36.6669C87.5592 36.1549 87.8324 35.6429 88.0716 35.0965C88.3108 34.5501 88.5156 34.0037 88.686 33.4233C88.8568 32.8773 88.9932 32.2969 89.13 31.7165C89.2324 31.1017 89.3348 30.5557 89.4028 29.9753C89.4712 29.3605 89.5056 28.7801 89.5056 28.1997C89.5056 27.7901 89.4712 27.3805 89.4372 26.9365C89.3692 26.3221 89.3004 25.7757 89.2324 25.1953C89.13 24.5809 88.9932 24.0345 88.8564 23.4545C88.686 22.9081 88.4812 22.3277 88.2764 21.7813C88.0716 21.2349 87.7984 20.6889 87.5592 20.1769C87.2864 19.6649 86.9792 19.1529 86.6716 18.6405L85.6476 17.2065C85.2716 16.7625 84.8624 16.3185 84.4524 15.8749C84.2476 15.6701 84.0084 15.4309 83.7696 15.2265C82.6088 14.3045 81.38 13.4509 80.1508 12.6657C79.98 12.5633 79.8096 12.4953 79.6388 12.3925C78.8192 11.7781 78.034 11.5053 77.2148 11.2321Z" fill="#FF1744"/>
</svg>
