<svg width="120" height="120" viewBox="0 0 120 120" fill="none" xmlns="http://www.w3.org/2000/svg">
<path d="M59.9999 7.50009C52.1495 7.48571 44.3957 9.2321 37.3095 12.6107C30.2232 15.9893 23.9849 20.9141 19.0537 27.0225C14.1225 33.1309 10.6239 40.2675 8.81559 47.9068C7.00727 55.5462 6.93521 63.4939 8.6047 71.1647C10.2742 78.8356 13.6427 86.0345 18.4624 92.2313C23.282 98.4282 29.43 103.465 36.4539 106.972C43.4777 110.478 51.1985 112.365 59.0479 112.493C66.8973 112.621 74.6755 110.987 81.8099 107.711L44.9999 52.5001V86.2501C44.9999 87.2446 44.6048 88.1985 43.9016 88.9017C43.1983 89.605 42.2445 90.0001 41.2499 90.0001H33.7499C32.7554 90.0001 31.8015 89.605 31.0983 88.9017C30.395 88.1985 29.9999 87.2446 29.9999 86.2501V33.7501C29.9999 32.7555 30.395 31.8017 31.0983 31.0984C31.8015 30.3952 32.7554 30.0001 33.7499 30.0001H42.8774C43.5249 30.0006 44.1611 30.1687 44.7243 30.4881C45.2875 30.8075 45.7584 31.2672 46.0912 31.8226L89.1824 103.635C98.5407 97.3741 105.638 88.2703 109.427 77.6675C113.216 67.0647 113.496 55.5245 110.226 44.7504C106.955 33.9764 100.307 24.5392 91.2637 17.8318C82.22 11.1245 71.2595 7.50236 59.9999 7.50009ZM89.9999 67.5001H74.9999V33.7501C74.9999 32.7555 75.395 31.8017 76.0983 31.0984C76.8015 30.3952 77.7554 30.0001 78.7499 30.0001H86.2499C87.2445 30.0001 88.1983 30.3952 88.9016 31.0984C89.6048 31.8017 89.9999 32.7555 89.9999 33.7501V67.5001Z" fill="black"/>
</svg>
