<svg width="133" height="133" viewBox="0 0 133 133" fill="none" xmlns="http://www.w3.org/2000/svg">
<path fill-rule="evenodd" clip-rule="evenodd" d="M29.8946 76.7242C24.1366 76.7242 21.2794 72.6483 20.1587 68.3902C21.4092 75.3175 28.1628 82.0659 49.4744 85.0627C69.6132 87.9152 82.717 80.7598 87.1506 77.432C87.1506 77.432 90.1405 75.9034 88.35 78.2617C88.35 78.2617 75.6574 91.8245 50.8263 91.9989C25.947 92.1431 6.21554 77.6154 6.31596 62.8775C6.19754 48.201 25.9479 33.642 50.8263 33.7605C75.7057 33.9003 88.35 47.4932 88.35 47.4932C90.1452 49.847 87.1506 48.3318 87.1506 48.3318C82.7284 45.0119 69.6654 38.4693 49.4744 40.7012C29.6426 42.9152 23.1665 50.7393 20.9724 55.9625C20.1473 57.9898 19.7693 59.9019 19.6774 61.8241C20.2136 56.7966 22.9117 50.9037 29.8766 50.9037C37.7775 50.9037 40.1752 58.5343 40.1752 63.7586C40.1752 69.0444 37.7623 76.675 29.8766 76.675L29.8946 76.7242ZM109.942 71.6487H120.444V76.0779H105.505V51.6003H109.919V71.6185L109.942 71.6487ZM93.73 62.8953H102.549V76.1081H99.6073L99.1668 73.0375C98.049 74.5403 96.428 76.7544 92.5913 76.7544C87.503 76.7544 82.9027 72.5309 82.9027 63.9565C82.9027 57.2652 86.1114 50.9797 93.2535 50.9797C99.7258 50.9797 102.275 55.854 102.531 59.2008H98.1162C98.1162 58.2481 96.6175 55.1775 93.4979 55.1775C90.3527 55.1775 87.4291 57.7024 87.4291 63.9834C87.4291 70.6792 90.5743 72.3833 93.5983 72.3833C94.5674 72.3833 97.8055 71.9416 98.6979 66.998H93.784V62.8752L93.73 62.8953ZM29.9988 53.915C25.4098 53.915 22.6568 58.1038 22.6568 63.8961C22.6568 69.6571 25.4212 73.8772 29.9988 73.8772C34.5878 73.8772 37.3408 69.684 37.3408 63.8961C37.3408 58.1351 34.5764 53.915 29.9988 53.915ZM41.8776 60.4364H44.0205V62.6471H44.0727C44.6126 61.7469 45.6453 59.9779 48.0989 59.9779C51.6884 59.9779 54.2681 63.5025 54.2681 67.906C54.2681 71.6498 52.4065 76.5375 47.792 76.5375C45.9825 76.5375 44.7945 75.5501 44.2062 74.4408H44.1541V82.3074H41.8786L41.8776 60.4364ZM47.6394 74.2876C50.1187 74.2876 51.7993 71.7974 51.7993 68.36C51.7993 66.3506 51.1001 62.372 47.5883 62.372C44.3095 62.372 43.9467 66.4691 43.9467 69.0075C43.9467 73.1616 46.1966 74.2753 47.6394 74.2753V74.2876ZM68.0331 71.2081C67.9554 71.9506 67.3339 74.1736 65.6315 75.4841C65.0101 75.9649 64.1328 76.5676 61.9643 76.5676C58.1674 76.5676 55.8994 73.2432 55.8994 68.7011C55.8994 63.8481 57.9125 60.0093 62.3755 60.0093C66.2757 60.0093 68.1856 63.6043 68.1856 69.1685H58.2933C58.2933 72.4359 59.6111 74.3178 62.2201 74.3178C64.363 74.3178 65.6325 72.4046 65.7102 71.2338H67.9819L68.0331 71.2081ZM65.6277 67.0495C65.498 64.6252 64.6179 62.3799 61.8535 62.3799C59.7627 62.3799 58.1124 64.6252 58.1124 67.0495H65.6277ZM80.7702 76.0913H78.4947V66.4602C78.4947 63.7429 77.8211 62.3631 75.6043 62.3631C74.3131 62.3631 72.0404 63.3236 72.0404 67.5694V76.0823H69.7648V60.4107H71.9115V62.6214H71.9636C72.4562 61.7827 73.7181 59.9567 76.042 59.9567C78.1328 59.9567 80.7712 60.9441 80.7712 65.408V76.0924" fill="#B3B3B3"/>
<path fill-rule="evenodd" clip-rule="evenodd" d="M28.877 74.9644C23.0631 74.9644 20.1585 70.8886 19.0368 66.6304C20.3025 73.5532 27.1414 80.3061 48.6605 83.3029C69.003 86.1465 82.2583 79 86.7431 75.6678C86.7431 75.6678 89.7661 74.1437 87.9529 76.5019C87.9529 76.5019 75.156 90.0647 49.9697 90.2391C24.8327 90.3789 4.84928 75.8556 5.00086 61.1177C4.87865 46.4412 24.8327 31.8833 49.9707 32.0007C75.1049 32.1405 87.9538 45.7334 87.9538 45.7334C89.767 48.0872 86.744 46.572 86.744 46.572C82.2735 43.2521 69.0513 36.7095 48.6614 38.9369C28.571 41.1555 22.0466 48.9784 19.8525 54.2027C19.082 56.0308 18.6361 58.0255 18.5423 60.0643C19.0823 55.0369 21.8097 49.1395 28.841 49.1395C36.7968 49.1395 39.2429 56.7746 39.2429 62.0558C39.2429 67.3371 36.8044 74.9152 28.841 74.9152L28.877 74.9644ZM109.942 69.8844H120.547V74.3181H105.456V49.8316H109.915V69.8587L109.942 69.8844ZM93.5744 61.1356H102.497V74.3449H99.5247L99.0804 71.2833C97.9484 72.7817 96.3085 75.0002 92.4007 75.0002C87.2499 75.0002 82.5605 70.7767 82.5605 62.2023C82.5605 55.511 85.8024 49.2256 93.0108 49.2256C99.539 49.2256 102.137 54.0998 102.391 57.4466H97.9323C97.9323 56.4939 96.4118 53.4233 93.2618 53.4233C90.0797 53.4233 87.141 55.9482 87.141 62.2292C87.141 68.925 90.3231 70.6291 93.3613 70.6291C94.3418 70.6291 97.613 70.1874 98.513 65.2438H93.547V61.121L93.5744 61.1356ZM28.8249 52.1552C24.1847 52.1552 21.3834 56.344 21.3834 62.1364C21.3834 67.8929 24.1771 72.1175 28.8249 72.1175C33.465 72.1175 36.2701 67.9242 36.2701 62.1364C36.2701 56.3754 33.4763 52.1552 28.8249 52.1552ZM40.8591 58.6722H43.0238V60.8862H43.0759C43.6272 59.986 44.6674 58.217 47.1504 58.217C50.7807 58.217 53.3707 61.7416 53.3707 66.1451C53.3707 69.8844 51.4874 74.7766 46.8425 74.7766C45.0141 74.7766 43.8157 73.7892 43.2123 72.6799H43.1602V80.5465H40.8619V58.7023L40.8591 58.6722ZM46.6692 72.5323C49.1778 72.5323 50.8764 70.0387 50.8764 66.6002C50.8764 64.5863 50.1658 60.6078 46.6171 60.6078C43.3051 60.6078 42.9385 64.7093 42.9385 67.2477C42.9385 71.4018 45.2102 72.5155 46.6692 72.5155V72.5323ZM67.2665 69.4438C67.1888 70.1953 66.5636 72.4093 64.8394 73.7243C64.2141 74.2052 63.3255 74.8079 61.1352 74.8079C57.2937 74.8079 55.0182 71.4834 55.0182 66.9368C55.0182 62.0883 57.0569 58.2484 61.5937 58.2484C65.5347 58.2484 67.456 61.8434 67.456 67.4076H57.4642C57.4642 70.675 58.7924 72.5536 61.4346 72.5536C63.6031 72.5536 64.8801 70.6448 64.9578 69.474H67.2599L67.2665 69.4438ZM64.8318 65.2897C64.6982 62.861 63.8106 60.6201 61.0168 60.6201C58.9004 60.6201 57.2274 62.861 57.2274 65.2897H64.8318ZM80.1268 74.327H77.8285V64.7004C77.8285 61.9787 77.1474 60.6033 74.9012 60.6033C73.5948 60.6033 71.2965 61.5594 71.2965 65.8097V74.3226H68.9945V58.6498H71.1629V60.8605H71.215C71.7105 60.0218 72.9875 58.1958 75.3408 58.1958C77.4534 58.1958 80.1183 59.1832 80.1183 63.6471V74.2745" fill="#5586A4"/>
<path fill-rule="evenodd" clip-rule="evenodd" d="M125 74.0817C124.999 74.4825 124.908 74.8759 124.735 75.2214C124.563 75.5669 124.316 75.852 124.02 76.0475C123.715 76.2521 123.391 76.3494 123.039 76.3494C122.688 76.3494 122.365 76.2487 122.062 76.0475C121.766 75.8496 121.518 75.5636 121.344 75.2178C121.171 74.8742 121.08 74.4814 121.082 74.0817C121.082 73.6836 121.173 73.293 121.344 72.95C121.519 72.6035 121.767 72.3169 122.064 72.1184C122.361 71.9199 122.698 71.8165 123.039 71.8184C123.381 71.8157 123.718 71.9188 124.016 72.1173C124.314 72.3158 124.563 72.6029 124.738 72.95C124.909 73.293 124.999 73.6836 125 74.0817ZM124.623 74.0817C124.623 73.5796 124.468 73.1468 124.157 72.7935C124.012 72.6192 123.838 72.4815 123.647 72.3885C123.455 72.2954 123.25 72.2491 123.043 72.2523C122.835 72.2485 122.629 72.2945 122.437 72.3876C122.245 72.4806 122.071 72.6187 121.925 72.7935C121.776 72.9581 121.658 73.1578 121.578 73.3797C121.498 73.6016 121.459 73.8407 121.463 74.0817C121.459 74.3233 121.498 74.5631 121.578 74.7857C121.658 75.0083 121.776 75.2088 121.925 75.3743C122.234 75.7321 122.607 75.911 123.043 75.911C123.25 75.9161 123.455 75.8711 123.647 75.7788C123.839 75.6864 124.012 75.5488 124.157 75.3743C124.468 75.018 124.623 74.5871 124.623 74.0817ZM122.155 72.8718H123.091C123.354 72.8718 123.55 72.9333 123.668 73.0596C123.786 73.186 123.846 73.3481 123.846 73.5527C123.849 73.7097 123.8 73.8617 123.709 73.9765C123.619 74.0958 123.476 74.1815 123.28 74.2337C123.344 74.2575 123.404 74.2946 123.458 74.3433C123.524 74.4168 123.581 74.5026 123.625 74.5972C123.628 74.6016 123.743 74.8376 123.965 75.2916H123.347L122.943 74.4663C122.877 74.3746 122.806 74.331 122.74 74.331C122.721 74.331 122.703 74.331 122.673 74.34V75.2927H122.151L122.155 72.8718ZM122.677 73.8983H122.903C123.051 73.899 123.157 73.8714 123.221 73.8155C123.317 73.7317 123.314 73.6892 123.314 73.5975C123.314 73.5058 123.284 73.432 123.225 73.3794C123.165 73.3269 123.066 73.2922 122.922 73.2922H122.677V73.8983Z" fill="#999999"/>
<path fill-rule="evenodd" clip-rule="evenodd" d="M125 73.4976C125.002 73.896 124.911 74.2874 124.738 74.6293C124.567 74.9781 124.319 75.2651 124.02 75.459C123.721 75.6604 123.383 75.7657 123.039 75.7642C122.691 75.7642 122.365 75.6591 122.062 75.459C121.759 75.2588 121.522 74.9826 121.344 74.6293C121.171 74.2874 121.08 73.896 121.082 73.4976C121.082 73.0951 121.17 72.7164 121.344 72.3615C121.516 72.0154 121.765 71.7303 122.062 71.5363C122.365 71.335 122.691 71.2344 123.039 71.2344C123.561 71.2344 123.72 71.335 124.02 71.5363C124.319 71.7376 124.563 72.0127 124.738 72.3615C124.912 72.7104 125 73.0951 125 73.4976ZM124.623 73.4976C124.627 73.2562 124.587 73.0167 124.507 72.7947C124.426 72.5726 124.307 72.3732 124.157 72.2095C123.85 71.8472 123.476 71.6682 123.043 71.6682C122.61 71.6682 122.233 71.8472 121.925 72.2095C121.776 72.374 121.658 72.5737 121.578 72.7956C121.498 73.0175 121.459 73.2567 121.463 73.4976C121.459 73.7392 121.498 73.979 121.578 74.2016C121.658 74.4242 121.776 74.6247 121.925 74.7903C122.071 74.9637 122.246 75.1003 122.438 75.192C122.63 75.2836 122.836 75.3284 123.043 75.3237C123.48 75.3237 123.85 75.1492 124.157 74.7903C124.464 74.4313 124.623 74.0042 124.623 73.4976ZM122.155 72.2833H123.091C123.354 72.2833 123.55 72.3492 123.668 72.4711C123.787 72.593 123.846 72.7641 123.846 72.9687C123.847 73.1297 123.801 73.271 123.709 73.3925C123.619 73.5073 123.476 73.593 123.28 73.6497C123.344 73.6735 123.404 73.7106 123.458 73.7593C123.523 73.8326 123.579 73.9166 123.625 74.0086C123.629 74.0146 123.742 74.2476 123.965 74.7075H123.347L122.943 73.8823C122.877 73.7906 122.806 73.7425 122.74 73.7425C122.721 73.7425 122.703 73.747 122.673 73.7515V74.7075H122.151L122.155 72.2833ZM122.677 73.3142H122.903C123.051 73.3142 123.157 73.2852 123.221 73.227C123.25 73.2019 123.273 73.1691 123.29 73.1312C123.306 73.0933 123.314 73.0514 123.314 73.009C123.315 72.9675 123.307 72.9265 123.291 72.8893C123.276 72.8521 123.253 72.8199 123.225 72.7954C123.167 72.738 123.066 72.7089 122.922 72.7082H122.677V73.3142Z" fill="#5586A4"/>
</svg>
