<svg width="120" height="50" viewBox="0 0 120 50" fill="none" xmlns="http://www.w3.org/2000/svg">
<path d="M51.8053 32.5274H59.7336L55.5406 10.9078L47.8455 49.997H44.3433L53.7034 3.04361C53.9088 2.09408 54.1837 1.32024 54.504 0.789742C54.8242 0.259245 55.1802 -0.0117689 55.5406 0.000391914C56.2685 0.000391914 56.9469 1.10729 57.3408 2.96433L66.7371 49.997H63.2349L61.5832 41.2607H53.555L51.8053 32.5274ZM88.1833 41.2607V0.476091H85.2119V45.2553C85.2119 46.4811 85.3604 47.6673 85.6439 48.576C85.9274 49.4847 86.3099 49.997 86.7295 49.997H100.282L102.033 41.2607H88.1833ZM39.0162 33.9515C41.9019 33.9515 44.2453 26.4837 44.2453 17.2351C44.2453 7.98655 41.9029 0.476091 39.0162 0.476091H26.0149V50H28.9862V9.20932H38.8193C40.2007 9.20932 41.3101 12.8075 41.3101 17.2321C41.3101 21.6566 40.1998 25.2548 38.8193 25.2548L30.441 25.2152L39.3121 49.997H43.6297L37.6604 33.9484L39.0162 33.9515ZM7.72751 49.997C3.46225 49.997 0 38.931 0 25.2548C0 11.5786 3.4613 0.473044 7.72751 0.473044H16.7081C20.9752 0.473044 24.4346 11.5817 24.4346 25.2548C24.4346 38.9279 20.9752 49.997 16.7081 49.997H7.72751ZM16.5083 41.2607C17.1648 41.2639 17.815 40.8523 18.4219 40.0494C19.0287 39.2465 19.5802 38.068 20.0448 36.5815C20.5095 35.0949 20.8781 33.3294 21.1296 31.3859C21.3812 29.4423 21.5107 27.3589 21.5109 25.2548C21.5112 23.1482 21.3821 21.0621 21.1309 19.1154C20.8797 17.1688 20.5113 15.3998 20.0468 13.9095C19.5822 12.4192 19.0306 11.2368 18.4235 10.4298C17.8163 9.62285 17.1655 9.20708 16.5083 9.20628H7.92541C6.59829 9.20951 5.32592 10.9021 4.38813 13.9117C3.45034 16.9213 2.92394 21.0014 2.92469 25.2548C2.92482 27.3584 3.0543 29.4413 3.30573 31.3845C3.55717 33.3276 3.92563 35.0929 4.39005 36.5793C4.85447 38.0658 5.40575 39.2444 6.01237 40.0476C6.61899 40.8509 7.26905 41.2631 7.92541 41.2607H16.5083ZM72.9413 49.997C68.6751 49.997 65.21 38.931 65.21 25.2548C65.21 11.5786 68.6751 0.473044 72.9413 0.473044H83.6088L81.8686 9.20628H73.1392C71.8113 9.2087 70.538 10.9002 69.599 13.9093C68.6599 16.9184 68.1319 20.9989 68.1309 25.2548C68.1309 34.107 70.3763 41.2607 73.1392 41.2607H83.8552L82.1046 49.997H72.9413ZM109.283 41.2607C108.194 41.2623 107.136 40.124 106.267 38.0191C105.399 35.9142 104.769 32.9579 104.474 29.6001H117.175L118.926 20.8669H104.474C104.772 17.5132 105.402 14.5614 106.27 12.4577C107.137 10.354 108.195 9.21271 109.283 9.20628H118.001L119.765 0.473044H109.085C104.819 0.473044 101.354 11.5817 101.354 25.2548C101.354 38.9279 104.819 49.997 109.085 49.997H118.248L120 41.2607H109.283Z" fill="#EA1B22"/>
</svg>
