<svg width="24" height="24" viewBox="0 0 24 24" fill="none" xmlns="http://www.w3.org/2000/svg">
<path d="M22.0024 11.9912C22.0021 12.1686 21.9546 12.3431 21.8647 12.4961C21.7749 12.649 21.6464 12.7756 21.4917 12.8623L21.4878 12.8643L5.74658 21.8682C5.59477 21.9542 5.42302 21.9987 5.24854 21.999C5.08915 21.9987 4.93208 21.961 4.79053 21.8877C4.77598 21.8802 4.76266 21.8705 4.74854 21.8623L5.49854 21.4336L21.2485 12.418L22.0015 11.9863C22.0015 11.988 22.0024 11.9896 22.0024 11.9912ZM4.79443 3.21387L7.56396 11.4102L7.6792 11.75H13.4995C13.5657 11.75 13.6294 11.7765 13.6763 11.8232C13.7232 11.8701 13.7495 11.9337 13.7495 12C13.7495 12.0663 13.7231 12.1299 13.6763 12.1768C13.6294 12.2235 13.5657 12.25 13.4995 12.25H7.6792L7.56396 12.5898L4.77588 20.8281L4.74072 20.9326L4.74658 20.9932L4.65967 21.8057C4.57301 21.7421 4.4965 21.6654 4.43408 21.5771C4.34182 21.4466 4.28227 21.296 4.26025 21.1377C4.23828 20.9794 4.25393 20.8177 4.30713 20.667H4.30811L4.31006 20.6602L7.18115 12.1602L7.23584 12L7.18115 11.8398L4.31006 3.34082L4.30811 3.33496L4.26904 3.18848C4.24135 3.04021 4.24733 2.88695 4.2876 2.74023C4.3083 2.66491 4.33934 2.59317 4.37646 2.52539L4.79443 3.21387ZM5.15967 2.00879C5.36204 1.99005 5.56557 2.03409 5.74268 2.13379V2.13281L21.4897 11.1221L21.561 11.1631C21.6854 11.2471 21.7908 11.3561 21.8667 11.4863C21.954 11.6362 21.9997 11.8062 22.0015 11.9795L21.2476 11.5498L5.49756 2.56543L4.75146 2.13965C4.87602 2.06761 5.01504 2.02218 5.15967 2.00879Z" stroke="black"/>
</svg>
