<svg width="115" height="115" viewBox="0 0 115 115" fill="none" xmlns="http://www.w3.org/2000/svg">
<g clip-path="url(#clip0_1203_740)">
<path d="M88.0469 0H26.9531C12.0673 0 0 12.0673 0 26.9531V88.0469C0 102.933 12.0673 115 26.9531 115H88.0469C102.933 115 115 102.933 115 88.0469V26.9531C115 12.0673 102.933 0 88.0469 0Z" fill="#001E36"/>
<path d="M25.875 79.9791V30.6728C25.875 30.3373 26.0188 30.1459 26.3543 30.1459C27.1688 30.1459 27.9356 30.1459 29.0375 30.0978C30.1875 30.0498 31.3856 30.0498 32.6793 30.0021C33.9731 29.9541 35.3625 29.9541 36.8481 29.906C38.3332 29.8584 39.7707 29.8584 41.2082 29.8584C45.1375 29.8584 48.3957 30.3373 51.0793 31.3435C53.4846 32.1606 55.6779 33.5028 57.5 35.2728C59.0437 36.8222 60.2366 38.685 60.9981 40.7353C61.7168 42.7478 62.1 44.8084 62.1 46.9646C62.1 51.0855 61.1417 54.4876 59.225 57.1709C57.3082 59.8541 54.625 61.8666 51.5106 63.0166C48.2519 64.2146 44.6582 64.6459 40.7293 64.6459C39.5793 64.6459 38.8125 64.6459 38.3332 64.5978C37.8539 64.5498 37.1832 64.5498 36.2731 64.5498V79.931C36.3207 80.2666 36.0813 80.5541 35.7457 80.6021H26.45C26.0668 80.6021 25.875 80.4103 25.875 79.9791ZM36.3207 39.3935V55.4935C36.9918 55.5416 37.6144 55.5896 38.1894 55.5896H40.7293C42.5981 55.5896 44.4668 55.3022 46.2394 54.7271C47.7731 54.2959 49.1144 53.3853 50.1688 52.1873C51.175 50.9896 51.6543 49.3603 51.6543 47.2521C51.6993 45.7547 51.3169 44.2754 50.5519 42.9873C49.7375 41.7416 48.5875 40.7834 47.1981 40.256C45.425 39.5373 43.5082 39.2498 41.5438 39.2978C40.2981 39.2978 39.1957 39.2978 38.2856 39.3459C37.3269 39.2978 36.6562 39.3459 36.3207 39.3935ZM92 52.5709C90.5625 51.8041 89.0293 51.2771 87.4 50.9416C85.6269 50.5584 83.8543 50.3185 82.0332 50.3185C81.075 50.2709 80.0688 50.4146 79.1582 50.6541C78.5356 50.7978 78.0082 51.1334 77.6731 51.6123C77.4332 51.9959 77.2894 52.4748 77.2894 52.906C77.2894 53.3373 77.4813 53.7685 77.7688 54.1521C78.2 54.6791 78.775 55.1103 79.3981 55.4459C80.5091 56.0211 81.6441 56.5486 82.8 57.0271C85.3875 57.8896 87.8793 59.0873 90.1793 60.5248C91.7606 61.531 93.0543 62.8728 93.9644 64.5022C94.7313 66.0353 95.1144 67.7123 95.0668 69.4373C95.1144 71.6896 94.4438 73.9416 93.1981 75.8103C91.8615 77.7231 89.9966 79.205 87.8313 80.0748C85.4832 81.081 82.6082 81.6084 79.1582 81.6084C76.9543 81.6084 74.7981 81.4166 72.6418 80.9853C70.9518 80.6935 69.3082 80.1779 67.7543 79.4522C67.4188 79.2603 67.1793 78.9248 67.2269 78.5416V70.2041C67.2269 70.0603 67.275 69.8685 67.4188 69.7728C67.5625 69.6772 67.7062 69.7248 67.85 69.8209C69.7188 70.9228 71.6832 71.6897 73.7918 72.1685C75.6125 72.6478 77.5293 72.8873 79.4457 72.8873C81.2668 72.8873 82.5606 72.6478 83.4231 72.2166C84.1894 71.881 84.7168 71.0666 84.7168 70.2041C84.7168 69.5334 84.3332 68.9103 83.5668 68.2873C82.8 67.6646 81.2188 66.9459 78.8707 66.0353C76.4622 65.1864 74.1749 64.0266 72.0668 62.5853C70.5651 61.5153 69.321 60.1239 68.425 58.5123C67.6582 56.9791 67.275 55.3021 67.3231 53.6248C67.3231 51.5646 67.8981 49.5998 68.9519 47.8272C70.15 45.9103 71.9231 44.3771 73.9832 43.4185C76.2356 42.2685 79.0625 41.7416 82.4644 41.7416C84.4293 41.7416 86.4418 41.8853 88.4063 42.1728C89.8438 42.3646 91.2332 42.7478 92.5269 43.2748C92.7188 43.3228 92.9106 43.5146 93.0063 43.706C93.0543 43.8978 93.1019 44.0896 93.1019 44.281V52.0916C93.1019 52.2834 93.0062 52.4748 92.8625 52.5709C92.4313 52.6666 92.1918 52.6666 92 52.5709Z" fill="#31A8FF"/>
</g>
<defs>
<clipPath id="clip0_1203_740">
<rect width="115" height="115" fill="white"/>
</clipPath>
</defs>
</svg>
