<svg width="120" height="120" viewBox="0 0 120 120" fill="none" xmlns="http://www.w3.org/2000/svg">
<path d="M59.429 11.4822C55.4709 11.5009 51.6928 11.8375 48.3665 12.4263C38.5696 14.1569 36.7921 17.7794 36.7921 24.4609V33.2838H59.9418V36.2247H28.1034C21.3759 36.2247 15.4846 40.2681 13.6415 47.9631C11.5153 56.7803 11.4215 62.2834 13.6415 71.4906C15.2868 78.3447 19.2168 83.2272 25.9453 83.2272H33.9056V72.6503C33.9056 65.0088 40.5159 58.2691 48.3674 58.2691H71.4909C77.9278 58.2691 83.0653 52.9684 83.0653 46.5053V24.4619C83.0653 18.1872 77.7721 13.4744 71.4909 12.4272C67.5121 11.7653 63.3862 11.4644 59.429 11.4822ZM46.9096 18.5781C49.3003 18.5781 51.254 20.5628 51.254 23.0041C51.254 25.435 49.3012 27.4009 46.9096 27.4009C44.5096 27.4009 42.5662 25.435 42.5662 23.0041C42.5653 20.5628 44.5096 18.5781 46.9096 18.5781Z" fill="url(#paint0_linear_352_341)"/>
<path d="M85.9519 36.2246V46.5052C85.9519 54.4739 79.1944 61.1818 71.49 61.1818H48.3666C42.0329 61.1818 36.7922 66.6033 36.7922 72.9464V94.9918C36.7922 101.265 42.2466 104.956 48.3666 106.755C55.6941 108.908 62.7216 109.298 71.49 106.755C77.3175 105.066 83.0644 101.671 83.0644 94.9918V86.168H59.9419V83.2261H94.6407C101.368 83.2261 103.877 78.534 106.217 71.4896C108.634 64.238 108.53 57.2639 106.217 47.9621C104.554 41.2636 101.378 36.2236 94.6407 36.2236L85.9519 36.2246ZM72.946 92.0499C75.3469 92.0499 77.2904 94.0158 77.2904 96.4486C77.2904 98.888 75.346 100.873 72.946 100.873C70.5554 100.873 68.6026 98.888 68.6026 96.4486C68.6026 94.0158 70.5554 92.0499 72.946 92.0499Z" fill="url(#paint1_linear_352_341)"/>
<path opacity="0.444" d="M91.2272 112.122C91.2272 115.444 77.3372 118.137 60.2044 118.137C43.0707 118.137 29.1807 115.444 29.1807 112.122C29.1807 108.801 43.0697 106.106 60.2044 106.106C77.3372 106.106 91.2272 108.799 91.2272 112.122Z" fill="url(#paint2_radial_352_341)"/>
<defs>
<linearGradient id="paint0_linear_352_341" x1="9.69077" y1="14.2409" x2="63.0849" y2="59.7752" gradientUnits="userSpaceOnUse">
<stop stop-color="#5A9FD4"/>
<stop offset="1" stop-color="#306998"/>
</linearGradient>
<linearGradient id="paint1_linear_352_341" x1="83.174" y1="88.0799" x2="64.026" y2="61.2279" gradientUnits="userSpaceOnUse">
<stop stop-color="#FFD43B"/>
<stop offset="1" stop-color="#FFE873"/>
</linearGradient>
<radialGradient id="paint2_radial_352_341" cx="0" cy="0" r="1" gradientUnits="userSpaceOnUse" gradientTransform="translate(60.079 111.95) rotate(-90) scale(6.01717 26.4505)">
<stop stop-color="#B8B8B8" stop-opacity="0.498"/>
<stop offset="1" stop-color="#7F7F7F" stop-opacity="0"/>
</radialGradient>
</defs>
</svg>
