<svg width="120" height="120" viewBox="0 0 120 120" fill="none" xmlns="http://www.w3.org/2000/svg">
<path d="M75 37.5C79.1421 37.5 82.5 34.1421 82.5 30C82.5 25.8579 79.1421 22.5 75 22.5C70.8579 22.5 67.5 25.8579 67.5 30C67.5 34.1421 70.8579 37.5 75 37.5Z" fill="#F4511E"/>
<path d="M95.8988 42.5062C94.6354 40.8853 93.2568 39.3576 91.7738 37.935L81.18 48.555C82.1739 49.5119 83.1081 50.5288 83.9775 51.6C86.6224 54.8995 88.4738 58.7627 89.3887 62.8913C89.7129 64.4105 89.9185 65.9526 90.0037 67.5037C90.0033 75.4607 86.8419 83.0916 81.2151 88.7177C75.5883 94.3438 67.957 97.5042 60 97.5037C52.043 97.5033 44.4121 94.3419 38.786 88.7151C33.1599 83.0883 29.9995 75.457 30 67.5C29.988 63.8838 30.8842 60.3224 32.6062 57.1425C33.8246 54.5388 35.4401 52.1402 37.395 50.0325C38.07 49.3575 44.1975 43.485 51.42 36.5925L60 28.3237V7.5L41.0362 25.7738C36.8662 29.7488 27.1125 39.0675 26.4975 39.7313C23.4537 43.0001 20.9362 46.722 19.035 50.7637C16.3838 55.9443 15.0009 61.6805 15 67.5C15 73.4095 16.164 79.2611 18.4254 84.7208C20.6869 90.1804 24.0016 95.1412 28.1802 99.3198C32.3588 103.498 37.3196 106.813 42.7792 109.075C48.2389 111.336 54.0905 112.5 60 112.5C65.9095 112.5 71.7611 111.336 77.2208 109.075C82.6804 106.813 87.6412 103.498 91.8198 99.3198C95.9984 95.1412 99.3131 90.1804 101.575 84.7208C103.836 79.2611 105 73.4095 105 67.5C104.898 64.8856 104.58 62.2842 104.048 59.7225C102.678 53.438 99.8908 47.5495 95.8988 42.5062Z" fill="#F4511E"/>
</svg>
