<svg width="120" height="120" viewBox="0 0 120 120" fill="none" xmlns="http://www.w3.org/2000/svg">
<path d="M60 45C87.915 45 105 54.7125 105 60C105 65.2875 87.915 75 60 75C32.085 75 15 65.2875 15 60C15 54.7125 32.085 45 60 45ZM60 37.5C31.005 37.5 7.5 47.5725 7.5 60C7.5 72.4275 31.005 82.5 60 82.5C88.995 82.5 112.5 72.4275 112.5 60C112.5 47.5725 88.995 37.5 60 37.5Z" fill="#0288D1"/>
<path d="M60 52.5C58.5166 52.5 57.0666 52.9399 55.8332 53.764C54.5999 54.5881 53.6386 55.7594 53.0709 57.1299C52.5032 58.5003 52.3547 60.0083 52.6441 61.4632C52.9335 62.918 53.6478 64.2544 54.6967 65.3033C55.7456 66.3522 57.082 67.0665 58.5368 67.3559C59.9917 67.6453 61.4997 67.4968 62.8701 66.9291C64.2406 66.3614 65.4119 65.4001 66.236 64.1668C67.0601 62.9334 67.5 61.4834 67.5 60C67.5 58.0109 66.7098 56.1032 65.3033 54.6967C63.8968 53.2902 61.9891 52.5 60 52.5Z" fill="#0288D1"/>
<path d="M39.2174 20.6514C46.7811 20.6514 61.4812 32.5651 72.9899 52.5001C86.9474 76.6764 87.0786 96.3264 82.4999 98.9701C81.9717 99.244 81.3805 99.3734 80.7861 99.3451C73.2224 99.3451 58.5186 87.4351 47.0099 67.5001C33.0524 43.3239 32.9211 23.6739 37.4999 21.0301C38.0292 20.7556 38.6218 20.6225 39.2174 20.6514ZM39.2136 13.1551C37.3025 13.1205 35.4166 13.5956 33.7499 14.5314C22.9874 20.7451 26.0174 46.1401 40.5149 71.2501C52.8299 92.5876 69.4649 106.849 80.7899 106.849C82.7005 106.88 84.585 106.403 86.2499 105.465C97.0124 99.2551 93.9824 73.8601 79.4849 48.7501C67.1699 27.4126 50.5349 13.1514 39.2099 13.1514L39.2136 13.1551Z" fill="#0288D1"/>
<path d="M80.7863 20.6509C81.3806 20.6227 81.9718 20.7521 82.5 21.0259C87.0788 23.6734 86.9475 43.3234 72.99 67.4997C61.4775 87.4347 46.7775 99.3484 39.2138 99.3484C38.6195 99.3767 38.0282 99.2473 37.5 98.9734C32.9213 96.3222 33.0525 76.6722 47.01 52.4997C58.5225 32.5647 73.2225 20.6509 80.7863 20.6509ZM80.7863 13.1509C69.4613 13.1509 52.83 27.4159 40.5113 48.7497C26.0213 73.8597 22.9875 99.2547 33.75 105.465C35.416 106.403 37.3019 106.881 39.2138 106.848C50.5388 106.848 67.17 92.5835 79.4888 71.2497C93.9788 46.1397 97.0125 20.7447 86.25 14.5347C84.584 13.5963 82.6981 13.1187 80.7863 13.1509Z" fill="#0288D1"/>
</svg>
