<svg width="20" height="20" viewBox="0 0 20 20" fill="none" xmlns="http://www.w3.org/2000/svg">
<path d="M9.33301 3.25C12.6926 3.25 15.4168 5.97342 15.417 9.33301C15.417 10.7425 14.9356 12.0387 14.1309 13.0703L16.5303 15.4697C16.8229 15.7626 16.8231 16.2375 16.5303 16.5303C16.2375 16.8231 15.7626 16.8229 15.4697 16.5303L13.0703 14.1309C12.0387 14.9356 10.7425 15.417 9.33301 15.417C5.97342 15.4168 3.25 12.6926 3.25 9.33301C3.25018 5.97353 5.97353 3.25018 9.33301 3.25ZM9.33301 4.75C6.80196 4.75018 4.75018 6.80196 4.75 9.33301C4.75 11.8642 6.80185 13.9168 9.33301 13.917C11.8643 13.917 13.917 11.8643 13.917 9.33301C13.9168 6.80185 11.8642 4.75 9.33301 4.75ZM2.00977 2.00977H2V2H2.00977V2.00977Z" fill="#64748B"/>
</svg>
