<svg width="24" height="24" viewBox="0 0 24 24" fill="none" xmlns="http://www.w3.org/2000/svg">
<path d="M12.0586 4.25C16.2926 4.28166 19.75 7.79647 19.75 12.0938V15.5H20.25C20.5152 15.5 20.7695 15.6054 20.957 15.793C21.1446 15.9805 21.25 16.2348 21.25 16.5V18.75C21.25 19.0152 21.1446 19.2695 20.957 19.457C20.7695 19.6446 20.5152 19.75 20.25 19.75H3.75C3.48478 19.75 3.2305 19.6446 3.04297 19.457C2.85543 19.2695 2.75 19.0152 2.75 18.75V16.5C2.75 16.2348 2.85543 15.9805 3.04297 15.793C3.2305 15.6054 3.48478 15.5 3.75 15.5H4.25V12L4.25977 11.6172C4.30385 10.7253 4.50167 9.84667 4.8457 9.02051C5.23886 8.07639 5.81511 7.21944 6.54102 6.49902C7.2669 5.77864 8.12815 5.20921 9.0752 4.82324C10.0222 4.43731 11.036 4.24227 12.0586 4.25ZM3.25 19.25H20.75V16H3.25V19.25ZM12 4.75C10.0772 4.75 8.23269 5.51341 6.87305 6.87305C5.51341 8.23269 4.75 10.0772 4.75 12V15.5H19.25V12.0938C19.25 8.07567 16.0304 4.77949 12.0557 4.75H12ZM12.791 7.25391C15.0392 7.63072 16.75 9.66978 16.75 12C16.75 12.0663 16.7236 12.1299 16.6768 12.1768C16.6299 12.2236 16.5663 12.25 16.5 12.25C16.4337 12.25 16.3701 12.2236 16.3232 12.1768C16.2764 12.1299 16.25 12.0663 16.25 12C16.25 9.91878 14.7379 8.08792 12.7109 7.74707L12.7061 7.74609L12.6582 7.7334C12.6429 7.72774 12.6282 7.72048 12.6143 7.71191C12.5861 7.69461 12.5613 7.67133 12.542 7.64453C12.5229 7.61786 12.5094 7.58765 12.502 7.55566C12.4945 7.52366 12.4927 7.49044 12.498 7.45801C12.5035 7.42554 12.5157 7.3941 12.5332 7.36621C12.5507 7.33833 12.5737 7.31395 12.6006 7.29492C12.6276 7.27587 12.6582 7.26209 12.6904 7.25488C12.7225 7.24771 12.7557 7.24726 12.7881 7.25293L12.793 7.2207L12.791 7.25391ZM4.5 2.75C4.56641 2.75 4.6298 2.77628 4.67676 2.82324L5.42676 3.57324C5.45001 3.5965 5.46886 3.62391 5.48145 3.6543C5.49399 3.68464 5.5 3.71717 5.5 3.75C5.5 3.78283 5.49399 3.81536 5.48145 3.8457C5.46886 3.87609 5.45001 3.9035 5.42676 3.92676C5.4035 3.95001 5.37608 3.96886 5.3457 3.98145C5.31536 3.99399 5.28284 4 5.25 4C5.21716 4 5.18464 3.99399 5.1543 3.98145C5.12392 3.96886 5.0965 3.95001 5.07324 3.92676L4.32324 3.17676C4.27628 3.1298 4.25 3.06641 4.25 3C4.25 2.93359 4.27628 2.8702 4.32324 2.82324C4.3702 2.77628 4.43359 2.75 4.5 2.75ZM19.5 2.75C19.5664 2.75 19.6298 2.77628 19.6768 2.82324C19.7237 2.8702 19.75 2.93359 19.75 3C19.75 3.06641 19.7237 3.1298 19.6768 3.17676L18.9268 3.92676C18.9036 3.94987 18.876 3.96893 18.8457 3.98145C18.8155 3.99386 18.7827 4.00003 18.75 4L18.6768 3.98926C18.6534 3.98217 18.6309 3.9717 18.6104 3.95801C18.5693 3.93055 18.5375 3.89134 18.5186 3.8457C18.4996 3.80001 18.4943 3.74967 18.5039 3.70117C18.5135 3.65279 18.5374 3.60816 18.5723 3.57324H18.5732L19.3232 2.82324C19.3702 2.77628 19.4336 2.75 19.5 2.75ZM12 0.5C12.0663 0.5 12.1299 0.526358 12.1768 0.573242C12.2236 0.620125 12.25 0.683694 12.25 0.75V1.5C12.25 1.56631 12.2236 1.62988 12.1768 1.67676C12.1299 1.72364 12.0663 1.75 12 1.75C11.9337 1.75 11.8701 1.72364 11.8232 1.67676C11.7764 1.62987 11.75 1.5663 11.75 1.5V0.75C11.75 0.683696 11.7764 0.620126 11.8232 0.573242C11.8701 0.526359 11.9337 0.5 12 0.5Z" stroke="#0A0A0A"/>
</svg>
