<svg width="120" height="120" viewBox="0 0 120 120" fill="none" xmlns="http://www.w3.org/2000/svg">
<g clip-path="url(#clip0_352_399)">
<path d="M91.875 0H28.125C12.592 0 0 12.592 0 28.125V91.875C0 107.408 12.592 120 28.125 120H91.875C107.408 120 120 107.408 120 91.875V28.125C120 12.592 107.408 0 91.875 0Z" fill="#023430"/>
<path d="M80.2373 50.4333C75.2981 28.6453 65.0043 22.845 62.3784 18.7448C61.2949 16.9389 60.3357 15.0613 59.5073 13.125C59.3685 15.0609 59.1135 16.2797 57.4682 17.7478C54.1649 20.693 40.1352 32.1258 38.9545 56.8819C37.8543 79.9641 55.9232 94.1967 58.3101 95.6681C60.1457 96.5714 62.3812 95.6873 63.472 94.8581C72.1818 88.8806 84.0824 72.9441 80.2466 50.4333" fill="#10AA50"/>
<path d="M60.2555 83.377C59.8008 89.0901 59.4751 92.4098 58.3201 95.6746C58.3201 95.6746 59.078 101.114 59.6105 106.875H61.4944C61.9444 102.818 62.6306 98.7903 63.5494 94.813C61.1105 93.613 60.3493 88.3902 60.2555 83.377Z" fill="#B8C4C2"/>
<path d="M63.5461 94.8163C61.0814 93.6777 60.3684 88.3448 60.2587 83.377C60.8679 75.1818 61.0456 66.9603 60.7912 58.7465C60.6618 54.4368 60.8521 18.8287 59.7295 13.6152C60.497 15.3812 61.382 17.0938 62.3784 18.7415C65.0043 22.8449 75.3014 28.6452 80.2373 50.4332C84.0825 72.9056 72.2465 88.7999 63.5461 94.8163Z" fill="#12924F"/>
</g>
<defs>
<clipPath id="clip0_352_399">
<rect width="120" height="120" fill="white"/>
</clipPath>
</defs>
</svg>
