<svg width="120" height="120" viewBox="0 0 120 120" fill="none" xmlns="http://www.w3.org/2000/svg">
<g clip-path="url(#clip0_352_371)">
<path d="M91.875 0H28.125C12.592 0 0 12.592 0 28.125V91.875C0 107.408 12.592 120 28.125 120H91.875C107.408 120 120 107.408 120 91.875V28.125C120 12.592 107.408 0 91.875 0Z" fill="#092E20"/>
<path d="M52.823 23.9062H66.2363V85.9922C59.3555 87.2986 54.3038 87.8213 48.817 87.8213C32.4417 87.8208 23.9062 80.4183 23.9062 66.2208C23.9062 52.5459 32.9648 43.6627 46.9875 43.6627C49.1648 43.6627 50.8195 43.8361 52.823 44.3588V23.9062ZM52.823 55.1583C51.2555 54.6366 49.9491 54.4622 48.2944 54.4622C41.5008 54.4622 37.5806 58.643 37.5806 65.9588C37.5806 73.1016 41.3264 77.0208 48.2072 77.0208C49.687 77.0208 50.9072 76.9336 52.823 76.673V55.1583Z" fill="white"/>
<path d="M87.5747 44.6204V75.7135C87.5747 86.4272 86.791 91.5657 84.4393 96.008C82.2615 100.276 79.3871 102.976 73.4644 105.938L61.0093 100.014C66.9319 97.2277 69.8063 94.7897 71.6349 91.043C73.5516 87.211 74.1619 82.7686 74.1619 71.0977V44.6199L87.5747 44.6204ZM74.1619 23.9775H87.5747V37.7391H74.1619V23.9775Z" fill="white"/>
</g>
<defs>
<clipPath id="clip0_352_371">
<rect width="120" height="120" fill="white"/>
</clipPath>
</defs>
</svg>
