<svg width="120" height="120" viewBox="0 0 120 120" fill="none" xmlns="http://www.w3.org/2000/svg">
<g clip-path="url(#clip0_352_349)">
<path d="M91.875 0H28.125C12.592 0 0 12.592 0 28.125V91.875C0 107.408 12.592 120 28.125 120H91.875C107.408 120 120 107.408 120 91.875V28.125C120 12.592 107.408 0 91.875 0Z" fill="#2396ED"/>
<path d="M66.1814 57.2452H75.8925V48.4589H66.1814V57.2452ZM54.6211 57.2452H64.3317V48.4589H54.6211V57.2452ZM43.2914 57.2452H53.0025V48.4589H43.2914V57.2452ZM31.9617 57.2452H41.4422V48.4589H31.9622L31.9617 57.2452ZM20.4014 57.2452H30.1125V48.4589H20.4014V57.2452ZM31.9622 46.6092H41.4417V37.8234H31.9622V46.6092ZM43.2919 46.6092H53.0025V37.8234H43.2914L43.2919 46.6092ZM54.6211 46.6092H64.3317V37.8234H54.6211V46.6092ZM54.6211 35.9733H64.3317V27.1875H54.6211V35.9733ZM106.875 53.3152C106.875 53.3152 102.713 49.3842 94.1583 50.7717C93.2334 44.0663 86.0658 40.1358 86.0658 40.1358C86.0658 40.1358 79.3608 48.2283 84.2161 57.2456C82.8291 57.9394 80.5167 58.8642 77.0484 58.8642H13.4653C12.3089 63.2573 12.3089 92.3897 44.2162 92.3897C67.1062 92.3897 84.2161 81.7542 92.3086 62.332C104.332 63.2569 106.875 53.3152 106.875 53.3152Z" fill="white"/>
</g>
<defs>
<clipPath id="clip0_352_349">
<rect width="120" height="120" fill="white"/>
</clipPath>
</defs>
</svg>
