<svg width="112" height="112" viewBox="0 0 112 112" fill="none" xmlns="http://www.w3.org/2000/svg">
<rect width="112" height="112" fill="#FF6F00"/>
<path fill-rule="evenodd" clip-rule="evenodd" d="M23.3334 4.66699C18.3827 4.66699 13.6348 6.63365 10.1341 10.1343C6.63341 13.635 4.66675 18.383 4.66675 23.3337V88.667C4.66675 93.6177 6.63341 98.3656 10.1341 101.866C13.6348 105.367 18.3827 107.334 23.3334 107.334H88.6667C93.6175 107.334 98.3654 105.367 101.866 101.866C105.367 98.3656 107.333 93.6177 107.333 88.667V23.3337C107.333 18.383 105.367 13.635 101.866 10.1343C98.3654 6.63365 93.6175 4.66699 88.6667 4.66699H23.3334ZM49.3641 48.8277C50.0641 47.997 50.3254 47.1243 50.3674 46.9797L50.3721 46.9657C50.4442 46.7241 50.5064 46.4796 50.5587 46.233C50.6334 45.8783 50.6987 45.4863 50.7454 45.141C50.8247 44.5623 50.9181 43.8157 51.0161 43.0177L51.0767 42.4857C51.3287 40.4277 51.6554 37.875 52.1314 35.3783C52.4161 33.871 52.7381 32.5037 53.0787 31.3463C53.5874 32.191 54.1194 33.1477 54.6747 34.1743C55.1912 35.1512 55.6999 36.1219 56.2007 37.0863L56.2941 37.273C56.7514 38.1597 57.2041 39.0323 57.6241 39.8117C58.0627 40.633 58.5294 41.4683 58.9774 42.159C59.2378 42.5556 59.5181 42.9388 59.8174 43.307C60.0601 43.587 60.7227 44.357 61.7774 44.8843C63.1587 45.5797 64.4981 45.491 64.8574 45.4723H64.8714C65.4547 45.435 66.0147 45.3323 66.4581 45.239C67.3681 45.0523 68.4181 44.7443 69.4447 44.427C70.5881 44.0723 72.0021 43.601 73.4487 43.1203C74.8367 42.6594 76.2274 42.2067 77.6207 41.7623L76.8134 42.649C75.4321 44.1423 74.0227 45.5797 72.7254 46.905L71.3114 48.3517C70.5274 49.159 69.7667 49.957 69.1834 50.6383C68.9034 50.965 68.5674 51.3663 68.2781 51.7957C68.0799 52.0838 67.9037 52.3865 67.7507 52.701C67.3937 53.4384 67.2028 54.2452 67.1915 55.0644C67.1802 55.8836 67.3488 56.6954 67.6854 57.4423L67.6947 57.461C67.8814 57.909 68.1054 58.329 68.2921 58.6603C68.6654 59.3323 69.1694 60.1163 69.6547 60.877L70.2474 61.7917C71.1341 63.159 72.1047 64.657 73.0241 66.225C73.8547 67.653 74.5454 68.9737 75.0214 70.1217C73.8099 69.8168 72.6112 69.4634 71.4281 69.0623C69.7294 68.493 68.0681 67.8677 66.5421 67.2983L65.3521 66.8503C64.4794 66.5237 63.6067 66.211 62.8787 65.9823C62.4748 65.8549 62.0653 65.7459 61.6514 65.6557H61.6234C60.768 65.4716 59.8828 65.4748 59.0287 65.665C57.8621 65.945 57.0127 66.5377 56.6254 66.8223C56.1789 67.165 55.7535 67.5344 55.3514 67.9283C54.5599 68.7245 53.8047 69.556 53.0881 70.4203C52.2574 71.4097 51.2494 72.6603 50.2274 73.9203C49.4807 74.8537 48.7247 75.787 48.0247 76.6363C47.0914 77.775 46.1861 78.8437 45.3321 79.7957C45.3694 79.0179 45.4254 78.1934 45.5001 77.3223C45.6447 75.5817 45.8267 73.9157 46.0087 72.315L46.2887 69.6737C46.4054 68.5537 46.5034 67.4337 46.5267 66.4957C46.5431 65.9774 46.5306 65.4586 46.4894 64.9417C46.4144 64.0302 46.1489 63.1447 45.7101 62.3423C45.2653 61.5724 44.6567 60.9096 43.9274 60.401C43.4607 60.065 42.9941 59.799 42.6114 59.6077C41.8165 59.2178 41.0036 58.8658 40.1754 58.553C39.5563 58.3165 38.9434 58.0863 38.3367 57.8623C37.1934 57.433 36.0454 57.0037 34.8181 56.4857C33.8379 56.0844 32.8812 55.6279 31.9527 55.1183C33.4787 54.4711 35.038 53.9056 36.6241 53.4243C38.9387 52.6963 41.2861 52.071 43.2041 51.5577L43.3581 51.5203C44.201 51.3008 45.041 51.0706 45.8781 50.8297C46.2356 50.7286 46.589 50.6134 46.9374 50.4843C47.1829 50.3888 47.4242 50.2829 47.6607 50.167L47.6747 50.1577C48.3185 49.8276 48.8922 49.3759 49.3641 48.8277ZM52.7381 18.751C50.3207 18.751 48.4541 19.885 47.2034 21.1263C46.0134 22.3023 45.1967 23.7397 44.6087 25.009C43.4374 27.5663 42.6767 30.707 42.1494 33.4883C41.6081 36.335 41.2487 39.177 40.9967 41.2537L40.9501 41.6503L40.7494 41.7017L40.5441 41.7577C38.6494 42.2617 36.1154 42.9337 33.5814 43.7317C31.0054 44.539 28.1587 45.5563 25.8721 46.7743C24.7427 47.381 23.4874 48.1697 22.4467 49.1963C21.4481 50.1857 20.0947 51.9637 20.0947 54.4603C20.0947 58.287 22.5681 60.863 24.4347 62.3097C26.4041 63.831 28.8214 64.9837 30.8747 65.8517C32.2841 66.4443 33.8147 67.0183 35.0654 67.485L36.2554 67.933L36.1854 68.6517L35.9334 70.971C35.7467 72.6697 35.5321 74.625 35.3734 76.473C35.1401 79.2543 34.9861 82.3997 35.2801 85.013C35.4294 86.2916 35.7281 87.8596 36.4467 89.2877C37.2121 90.795 38.7754 92.7037 41.5101 93.161C43.8061 93.5437 45.7381 92.6243 46.7834 92.0177C47.9687 91.3317 49.0841 90.4077 50.0501 89.5117C51.9961 87.6963 54.0494 85.3117 55.8694 83.095C56.7405 82.031 57.5447 81.0401 58.2821 80.1223C59.2014 78.979 60.0414 77.9383 60.8534 76.9723L61.4741 76.249L61.8101 76.375L62.8834 76.7763C64.4234 77.3503 66.3181 78.0643 68.2127 78.6943C70.5414 79.4737 73.2341 80.2623 75.6421 80.561C76.9872 80.7515 78.3539 80.731 79.6927 80.5003C81.1254 80.2203 83.1227 79.4597 84.4527 77.467C86.6134 74.2283 85.8434 70.481 85.1621 68.2877C84.3828 65.7957 83.0481 63.2477 81.7927 61.101C80.8085 59.4413 79.7862 57.8044 78.7268 56.1917L78.3767 55.6597L78.6007 55.4263L79.8794 54.1197C81.2048 52.7663 82.7821 51.161 84.2754 49.5463C86.2634 47.3903 88.4007 44.9077 89.8428 42.593C90.5521 41.459 91.3034 40.0403 91.6627 38.4957C92.0174 36.937 92.1387 34.4123 90.3047 32.2423C88.5547 30.1703 86.0674 29.965 85.0827 29.9277C83.8025 29.9057 82.5237 30.0262 81.2701 30.287C78.8668 30.7443 76.0341 31.5937 73.4767 32.4197C72.2447 32.8179 71.1014 33.1943 70.0467 33.549C68.7401 33.983 67.5547 34.3797 66.4394 34.725H66.4254C66.0863 34.0872 65.713 33.3732 65.3054 32.583L65.2214 32.4197C64.6972 31.3983 64.1652 30.3809 63.6254 29.3677C62.5287 27.3283 61.2407 25.065 59.8967 23.2637C59.1906 22.2827 58.3714 21.3884 57.4561 20.599C56.5927 19.8803 54.9547 18.751 52.7427 18.751H52.7381Z" fill="white"/>
</svg>
