<svg width="120" height="120" viewBox="0 0 120 120" fill="none" xmlns="http://www.w3.org/2000/svg">
<g clip-path="url(#clip0_352_362)">
<path d="M91.875 0H28.125C12.592 0 0 12.592 0 28.125V91.875C0 107.408 12.592 120 28.125 120H91.875C107.408 120 120 107.408 120 91.875V28.125C120 12.592 107.408 0 91.875 0Z" fill="#FF3E00"/>
<mask id="mask0_352_362" style="mask-type:luminance" maskUnits="userSpaceOnUse" x="24" y="17" width="71" height="86">
<path d="M24.8438 17.8125H94.9894V102.188H24.8438V17.8125Z" fill="white"/>
</mask>
<g mask="url(#mask0_352_362)">
<path d="M90.485 28.9673C82.6911 17.7407 67.1745 14.4519 56.0201 21.5305L36.3561 34.1155C30.9936 37.4765 27.2754 42.982 26.2029 49.2027C25.2729 54.4227 26.0595 59.7852 28.5622 64.4333C26.8465 67.0073 25.7019 69.8676 25.2012 72.8708C24.0575 79.2346 25.5594 85.813 29.2775 91.0326C37.1431 102.259 52.5875 105.548 63.7423 98.4693L83.4059 85.956C88.7689 82.5951 92.487 77.0896 93.5595 70.8684C94.489 65.6488 93.7025 60.2859 91.1998 55.6382C92.9159 53.0638 94.0601 50.204 94.5608 47.2007C95.7762 40.7652 94.2748 34.1868 90.485 28.9673Z" fill="white"/>
<path d="M54.0892 92.1045C50.9989 92.9061 47.7369 92.7394 44.7444 91.6268C41.7519 90.5142 39.1733 88.5095 37.3572 85.8838C35.0692 82.7375 34.2109 78.8052 34.854 74.9436C34.9975 74.3 35.1405 73.7281 35.2834 73.0845L35.6411 71.9408L36.6419 72.6556C38.9835 74.3631 41.5935 75.668 44.3645 76.5167L45.0794 76.7314L45.0081 77.4463C44.9364 78.4475 45.2228 79.52 45.7947 80.3783C46.9389 82.0227 48.9409 82.8092 50.8712 82.3086C51.3006 82.1656 51.7295 82.0227 52.0872 81.808L71.679 69.2947C72.6803 68.6516 73.3239 67.722 73.5381 66.5778C73.7523 65.4336 73.4669 64.2181 72.8233 63.2886C71.6791 61.6437 69.677 60.9289 67.7462 61.4295C67.3173 61.5725 66.8884 61.7155 66.5308 61.9302L59.0228 66.7208C57.8073 67.5073 56.4489 68.0792 55.0187 68.4369C51.9284 69.2385 48.6664 69.0717 45.6739 67.9592C42.6814 66.8466 40.1028 64.8419 38.2867 62.2161C36.07 59.0698 35.1405 55.137 35.8558 51.2759C36.4989 47.5578 38.7873 44.1969 42.0048 42.1948L61.6684 29.6816C62.8839 28.895 64.2428 28.3231 65.673 27.8938C68.7634 27.0922 72.0254 27.259 75.0179 28.3717C78.0103 29.4843 80.589 31.4891 82.405 34.115C84.693 37.2613 85.5508 41.1936 84.9076 45.0552C84.7642 45.6988 84.6212 46.2706 84.407 46.9142L84.0494 48.058L83.0481 47.3431C80.7066 45.6357 78.0967 44.3308 75.3259 43.482L74.6106 43.2673L74.6823 42.5525C74.7541 41.5513 74.4676 40.4788 73.8958 39.6205C72.7515 37.9761 70.7495 37.2608 68.8192 37.7614C68.3898 37.9044 67.9609 38.0473 67.6033 38.262L48.0114 50.7753C47.0101 51.4189 46.3665 52.3484 46.1523 53.4927C45.9381 54.6369 46.2236 55.8523 46.8672 56.7819C48.0114 58.4263 50.0134 59.1411 51.9442 58.6409C52.3731 58.498 52.802 58.3545 53.1597 58.1403L60.6676 53.3497C61.8831 52.5631 63.2415 51.9908 64.6717 51.5619C67.7621 50.7603 71.024 50.927 74.0165 52.0396C77.009 53.1522 79.5877 55.1569 81.4037 57.7827C83.6917 60.9289 84.55 64.8617 83.9064 68.7228C83.2628 72.4409 80.9748 75.8019 77.7569 77.8039L58.0933 90.3172C56.8778 91.1037 55.5194 91.6756 54.0892 92.1045Z" fill="#FF3E00"/>
</g>
</g>
<defs>
<clipPath id="clip0_352_362">
<rect width="120" height="120" fill="white"/>
</clipPath>
</defs>
</svg>
