<svg width="120" height="120" viewBox="0 0 120 120" fill="none" xmlns="http://www.w3.org/2000/svg">
<path d="M118.434 31.9309C118.434 29.4654 118.186 27.0062 117.694 24.5902C117.202 22.1171 116.365 19.7251 115.209 17.484C114.002 15.3131 112.5 13.3193 110.747 11.559C108.939 9.79 106.84 8.34687 104.541 7.29336C102.272 6.14972 99.8451 5.35033 97.3406 4.92148C94.8563 4.44336 92.1281 4.44336 89.6438 4.20898H28.3594C26.4477 4.24023 24.5403 4.39996 22.65 4.68711C20.7741 4.9077 18.9379 5.38726 17.1937 6.11211C16.6969 6.34648 15.9563 6.59023 15.4594 6.82461C13.8096 7.70995 12.241 8.73893 10.7719 9.89961C10.275 10.3777 9.77812 10.6121 9.28125 11.0809C7.45397 12.7754 5.9429 14.7817 4.81875 17.0059C3.59076 19.2153 2.75048 21.6188 2.33437 24.1121C1.9657 26.5452 1.71852 28.9951 1.59375 31.4527V88.0684C1.59439 90.5339 1.84251 92.993 2.33437 95.409C2.82659 97.8821 3.66285 100.274 4.81875 102.515C6.02659 104.686 7.52825 106.68 9.28125 108.44C11.0887 110.209 13.1883 111.652 15.4875 112.706C17.7565 113.85 20.1831 114.649 22.6875 115.078C25.1719 115.556 27.9 115.556 30.3844 115.79H89.6531C92.2351 115.789 94.8116 115.55 97.35 115.078C99.8544 114.649 102.281 113.85 104.55 112.706C106.801 111.569 108.888 110.134 110.756 108.44C112.584 106.746 114.095 104.739 115.219 102.515C116.447 100.306 117.287 97.9023 117.703 95.409C118.072 92.9759 118.319 90.526 118.444 88.0684V31.9309H118.434Z" fill="#F05138"/>
<path d="M79.6876 90.4684C69.272 96.2152 54.9563 96.8059 40.547 90.909C29.3122 86.3505 19.7062 78.5214 12.9751 68.4371C16.1033 70.8317 19.5208 72.8224 23.147 74.3621C38.0251 81.0184 52.8938 80.559 63.3657 74.3621C48.4595 63.4309 35.8032 49.2184 26.372 37.6121C24.511 35.6505 22.8497 33.5087 21.4126 31.2184C32.8126 41.1652 50.9438 53.7184 57.3938 57.2715C48.1852 47.8348 39.7223 37.6982 32.0813 26.9527C44.7817 39.2948 58.757 50.2531 73.772 59.6434C74.4376 59.9996 74.9532 60.2996 75.3657 60.5809C75.8053 59.5061 76.184 58.4075 76.5001 57.2902C79.9782 45.2059 76.0032 31.4715 67.322 20.0996C87.422 31.6965 99.3751 53.484 94.3689 71.7277C94.2376 72.2246 94.097 72.6652 93.947 73.1809L94.1251 73.3871C104.053 85.2277 101.325 97.7621 100.078 95.4184C94.6876 85.3121 84.722 88.434 79.6876 90.4684Z" fill="#FEFEFE"/>
</svg>
