<svg width="48" height="48" viewBox="0 0 48 48" fill="none" xmlns="http://www.w3.org/2000/svg">
<path d="M9 6.5H39C39.663 6.5 40.2987 6.76358 40.7676 7.23242C41.2364 7.70126 41.5 8.33696 41.5 9V39C41.5 39.663 41.2364 40.2987 40.7676 40.7676C40.2987 41.2364 39.663 41.5 39 41.5H9C8.33696 41.5 7.70126 41.2364 7.23242 40.7676C6.76358 40.2987 6.5 39.663 6.5 39V9C6.5 8.33696 6.76358 7.70126 7.23242 7.23242C7.70126 6.76358 8.33696 6.5 9 6.5ZM8.5 39.5H39.5V31H33.4131L29.6465 34.7666L29.6455 34.7686C29.4147 35.0012 29.1396 35.1859 28.8369 35.3115C28.5341 35.4371 28.2087 35.501 27.8809 35.5H20.1191C19.7913 35.501 19.4659 35.4371 19.1631 35.3115C18.8604 35.1859 18.5853 35.0012 18.3545 34.7686L18.3535 34.7666L14.5869 31H8.5V39.5ZM8.5 29H14.3809C14.7087 28.999 15.0341 29.0629 15.3369 29.1885C15.6396 29.3141 15.9147 29.4988 16.1455 29.7314L16.1465 29.7334L19.9131 33.5H28.0869L31.8535 29.7334L31.8545 29.7314C32.0852 29.4989 32.3605 29.3141 32.6631 29.1885C32.89 29.0943 33.1294 29.0353 33.373 29.0117L33.6172 29H39.5V8.5H8.5V29Z" stroke="#BFBFBF"/>
</svg>
