<svg width="120" height="120" viewBox="0 0 120 120" fill="none" xmlns="http://www.w3.org/2000/svg">
<path fill-rule="evenodd" clip-rule="evenodd" d="M25 5C19.6957 5 14.6086 7.10714 10.8579 10.8579C7.10714 14.6086 5 19.6957 5 25V95C5 100.304 7.10714 105.391 10.8579 109.142C14.6086 112.893 19.6957 115 25 115H95C100.304 115 105.391 112.893 109.142 109.142C112.893 105.391 115 100.304 115 95V25C115 19.6957 112.893 14.6086 109.142 10.8579C105.391 7.10714 100.304 5 95 5H25ZM100 60C100 70.6087 95.7857 80.7828 88.2843 88.2843C80.7828 95.7857 70.6087 100 60 100C49.3913 100 39.2172 95.7857 31.7157 88.2843C24.2143 80.7828 20 70.6087 20 60C20 49.3913 24.2143 39.2172 31.7157 31.7157C39.2172 24.2143 49.3913 20 60 20C70.6087 20 80.7828 24.2143 88.2843 31.7157C95.7857 39.2172 100 49.3913 100 60ZM55.735 34.55C38.505 40.81 31.91 57.275 29.3 65.76C35.555 56.765 38.82 52.255 45.945 53.23V75.665H40.07C43.985 81.54 53.775 85.455 59.65 85.455L65.525 79.58L71.4 83.495C75.315 83.495 83.9 75.035 87.065 67.83C83.145 71.75 77.925 72.4 75.315 71.75V48.25C77.575 43.45 79.35 40.88 83.145 36.5C76.88 36.5 67.545 44.035 65.525 48.25V71.75C65.525 71.75 62.09 73.705 59.65 73.705C58.085 73.705 56.39 72.405 55.735 71.75V34.55Z" fill="black"/>
</svg>
